G04 Layer_Color=65535*
%FSLAX44Y44*%
%MOMM*%
G71*
G01*
G75*
%ADD34C,0.2000*%
%ADD35C,0.2540*%
%ADD38C,0.1500*%
%ADD40C,0.6000*%
%ADD73C,0.2500*%
%ADD74C,0.1000*%
%ADD75C,0.2032*%
G36*
X452071Y156290D02*
X450492D01*
Y166278D01*
X450473Y166259D01*
X450397Y166183D01*
X450264Y166088D01*
X450092Y165936D01*
X449883Y165784D01*
X449617Y165593D01*
X449312Y165403D01*
X448989Y165194D01*
X448970D01*
X448951Y165175D01*
X448837Y165099D01*
X448666Y165004D01*
X448437Y164890D01*
X448190Y164756D01*
X447924Y164642D01*
X447638Y164509D01*
X447353Y164395D01*
Y165917D01*
X447372D01*
X447410Y165936D01*
X447486Y165974D01*
X447581Y166031D01*
X447695Y166088D01*
X447828Y166164D01*
X448133Y166335D01*
X448494Y166545D01*
X448875Y166792D01*
X449255Y167077D01*
X449636Y167401D01*
X449655Y167420D01*
X449674Y167439D01*
X449807Y167553D01*
X449978Y167724D01*
X450188Y167952D01*
X450416Y168219D01*
X450644Y168504D01*
X450872Y168808D01*
X451044Y169132D01*
X452071D01*
Y156290D01*
D02*
G37*
G36*
X261620Y55790D02*
X232156D01*
Y173736D01*
X261620D01*
Y55790D01*
D02*
G37*
G36*
X424894Y169113D02*
X425046Y169094D01*
X425237Y169075D01*
X425427Y169056D01*
X425655Y168999D01*
X426112Y168885D01*
X426606Y168694D01*
X426834Y168580D01*
X427063Y168447D01*
X427291Y168295D01*
X427500Y168105D01*
X427519Y168086D01*
X427538Y168067D01*
X427595Y168009D01*
X427672Y167914D01*
X427748Y167819D01*
X427843Y167705D01*
X427938Y167553D01*
X428052Y167401D01*
X428242Y167039D01*
X428414Y166602D01*
X428490Y166373D01*
X428547Y166107D01*
X428566Y165860D01*
X428585Y165574D01*
Y165536D01*
Y165441D01*
X428566Y165289D01*
X428547Y165099D01*
X428509Y164851D01*
X428452Y164604D01*
X428376Y164338D01*
X428261Y164052D01*
X428242Y164014D01*
X428204Y163919D01*
X428128Y163786D01*
X428014Y163596D01*
X427862Y163349D01*
X427691Y163082D01*
X427462Y162797D01*
X427215Y162492D01*
X427177Y162454D01*
X427082Y162340D01*
X427006Y162264D01*
X426892Y162150D01*
X426777Y162036D01*
X426644Y161903D01*
X426492Y161750D01*
X426302Y161579D01*
X426112Y161408D01*
X425883Y161199D01*
X425655Y160989D01*
X425389Y160761D01*
X425103Y160514D01*
X424799Y160247D01*
X424780Y160228D01*
X424742Y160190D01*
X424666Y160133D01*
X424571Y160057D01*
X424342Y159848D01*
X424038Y159601D01*
X423733Y159334D01*
X423448Y159068D01*
X423182Y158821D01*
X423087Y158726D01*
X422992Y158630D01*
X422972Y158611D01*
X422934Y158554D01*
X422858Y158478D01*
X422763Y158364D01*
X422649Y158250D01*
X422535Y158098D01*
X422326Y157793D01*
X428604D01*
Y156290D01*
X420138D01*
Y156309D01*
Y156385D01*
Y156500D01*
X420157Y156633D01*
X420176Y156804D01*
X420195Y156975D01*
X420252Y157184D01*
X420309Y157375D01*
Y157394D01*
X420328Y157413D01*
X420366Y157527D01*
X420442Y157698D01*
X420556Y157907D01*
X420709Y158174D01*
X420880Y158459D01*
X421089Y158764D01*
X421336Y159068D01*
Y159087D01*
X421375Y159106D01*
X421470Y159220D01*
X421641Y159391D01*
X421869Y159620D01*
X422155Y159905D01*
X422516Y160247D01*
X422934Y160609D01*
X423410Y161008D01*
X423429Y161028D01*
X423505Y161084D01*
X423600Y161180D01*
X423753Y161294D01*
X423924Y161427D01*
X424114Y161598D01*
X424533Y161998D01*
X425008Y162416D01*
X425465Y162873D01*
X425693Y163101D01*
X425883Y163310D01*
X426073Y163520D01*
X426226Y163710D01*
Y163729D01*
X426264Y163748D01*
X426302Y163805D01*
X426340Y163881D01*
X426454Y164071D01*
X426606Y164319D01*
X426739Y164623D01*
X426854Y164946D01*
X426930Y165270D01*
X426968Y165612D01*
Y165631D01*
Y165650D01*
X426949Y165765D01*
X426930Y165936D01*
X426892Y166164D01*
X426796Y166411D01*
X426682Y166678D01*
X426511Y166944D01*
X426283Y167191D01*
X426245Y167211D01*
X426169Y167287D01*
X426017Y167401D01*
X425826Y167515D01*
X425560Y167629D01*
X425275Y167743D01*
X424932Y167819D01*
X424552Y167838D01*
X424437D01*
X424361Y167819D01*
X424152Y167800D01*
X423905Y167743D01*
X423600Y167667D01*
X423296Y167534D01*
X422992Y167363D01*
X422725Y167134D01*
X422706Y167096D01*
X422630Y167001D01*
X422516Y166849D01*
X422402Y166640D01*
X422269Y166373D01*
X422174Y166050D01*
X422097Y165669D01*
X422059Y165251D01*
X420442Y165422D01*
Y165441D01*
Y165498D01*
X420461Y165593D01*
X420480Y165727D01*
X420518Y165879D01*
X420556Y166050D01*
X420652Y166450D01*
X420804Y166887D01*
X421032Y167344D01*
X421165Y167572D01*
X421317Y167781D01*
X421489Y167990D01*
X421679Y168181D01*
X421698Y168200D01*
X421736Y168219D01*
X421793Y168276D01*
X421869Y168333D01*
X421983Y168409D01*
X422116Y168485D01*
X422269Y168561D01*
X422459Y168656D01*
X422649Y168752D01*
X422858Y168828D01*
X423106Y168904D01*
X423372Y168980D01*
X423638Y169037D01*
X423943Y169094D01*
X424247Y169113D01*
X424590Y169132D01*
X424761D01*
X424894Y169113D01*
D02*
G37*
G36*
X376400Y160818D02*
X378131D01*
Y159372D01*
X376400D01*
Y156309D01*
X374821D01*
Y159372D01*
X369246D01*
Y160818D01*
X375125Y169113D01*
X376400D01*
Y160818D01*
D02*
G37*
G36*
X399211Y169217D02*
X399458Y169179D01*
X399762Y169122D01*
X400086Y169046D01*
X400409Y168932D01*
X400751Y168780D01*
X400770D01*
X400789Y168761D01*
X400904Y168704D01*
X401056Y168590D01*
X401265Y168457D01*
X401474Y168285D01*
X401703Y168057D01*
X401931Y167829D01*
X402121Y167543D01*
X402140Y167505D01*
X402197Y167410D01*
X402273Y167258D01*
X402369Y167049D01*
X402445Y166801D01*
X402521Y166535D01*
X402578Y166231D01*
X402597Y165907D01*
Y165869D01*
Y165774D01*
X402578Y165603D01*
X402540Y165413D01*
X402483Y165165D01*
X402407Y164918D01*
X402292Y164652D01*
X402140Y164385D01*
X402121Y164347D01*
X402064Y164271D01*
X401950Y164157D01*
X401817Y164005D01*
X401627Y163834D01*
X401398Y163662D01*
X401132Y163472D01*
X400827Y163320D01*
X400847D01*
X400885Y163301D01*
X400942Y163282D01*
X401018Y163263D01*
X401208Y163187D01*
X401474Y163092D01*
X401741Y162939D01*
X402045Y162749D01*
X402331Y162521D01*
X402578Y162236D01*
X402597Y162197D01*
X402673Y162083D01*
X402787Y161912D01*
X402901Y161665D01*
X403015Y161379D01*
X403130Y161018D01*
X403206Y160618D01*
X403225Y160181D01*
Y160162D01*
Y160105D01*
Y160029D01*
X403206Y159895D01*
X403187Y159762D01*
X403168Y159591D01*
X403130Y159401D01*
X403072Y159192D01*
X402920Y158754D01*
X402825Y158526D01*
X402711Y158278D01*
X402559Y158031D01*
X402388Y157803D01*
X402197Y157575D01*
X401988Y157346D01*
X401969Y157327D01*
X401931Y157289D01*
X401855Y157232D01*
X401779Y157175D01*
X401646Y157080D01*
X401512Y156985D01*
X401341Y156871D01*
X401151Y156776D01*
X400942Y156661D01*
X400694Y156547D01*
X400447Y156452D01*
X400181Y156376D01*
X399876Y156300D01*
X399572Y156243D01*
X399249Y156205D01*
X398906Y156186D01*
X398735D01*
X398621Y156205D01*
X398488Y156224D01*
X398316Y156243D01*
X398126Y156262D01*
X397917Y156319D01*
X397479Y156433D01*
X397004Y156604D01*
X396775Y156718D01*
X396528Y156852D01*
X396300Y157004D01*
X396090Y157175D01*
X396071Y157194D01*
X396052Y157213D01*
X395995Y157270D01*
X395919Y157365D01*
X395824Y157460D01*
X395729Y157575D01*
X395634Y157727D01*
X395520Y157879D01*
X395291Y158259D01*
X395101Y158716D01*
X394930Y159230D01*
X394873Y159496D01*
X394835Y159800D01*
X396414Y160010D01*
Y159991D01*
X396433Y159953D01*
X396452Y159876D01*
X396471Y159781D01*
X396490Y159686D01*
X396528Y159553D01*
X396623Y159268D01*
X396756Y158944D01*
X396908Y158621D01*
X397099Y158316D01*
X397327Y158069D01*
X397365Y158050D01*
X397441Y157974D01*
X397574Y157879D01*
X397765Y157784D01*
X397993Y157670D01*
X398259Y157575D01*
X398564Y157498D01*
X398906Y157479D01*
X399020D01*
X399096Y157498D01*
X399306Y157517D01*
X399572Y157575D01*
X399857Y157670D01*
X400181Y157803D01*
X400485Y157993D01*
X400789Y158240D01*
X400827Y158278D01*
X400904Y158373D01*
X401037Y158545D01*
X401170Y158754D01*
X401303Y159039D01*
X401436Y159363D01*
X401512Y159724D01*
X401550Y160124D01*
Y160143D01*
Y160181D01*
Y160238D01*
X401531Y160314D01*
X401512Y160504D01*
X401455Y160752D01*
X401379Y161037D01*
X401246Y161341D01*
X401075Y161627D01*
X400827Y161912D01*
X400789Y161950D01*
X400694Y162026D01*
X400542Y162140D01*
X400333Y162274D01*
X400086Y162388D01*
X399781Y162502D01*
X399420Y162578D01*
X399039Y162616D01*
X398868D01*
X398735Y162597D01*
X398583Y162578D01*
X398392Y162540D01*
X398183Y162502D01*
X397936Y162445D01*
X398107Y163834D01*
X398202D01*
X398278Y163815D01*
X398526D01*
X398716Y163834D01*
X398963Y163872D01*
X399249Y163948D01*
X399534Y164024D01*
X399857Y164157D01*
X400162Y164328D01*
X400181D01*
X400200Y164347D01*
X400295Y164423D01*
X400428Y164557D01*
X400580Y164728D01*
X400713Y164956D01*
X400847Y165241D01*
X400942Y165565D01*
X400980Y165755D01*
Y165945D01*
Y165964D01*
Y165983D01*
Y166098D01*
X400942Y166250D01*
X400904Y166440D01*
X400827Y166668D01*
X400732Y166916D01*
X400580Y167144D01*
X400390Y167372D01*
X400371Y167391D01*
X400276Y167467D01*
X400162Y167562D01*
X399971Y167658D01*
X399762Y167772D01*
X399496Y167848D01*
X399211Y167924D01*
X398868Y167943D01*
X398716D01*
X398545Y167905D01*
X398335Y167867D01*
X398088Y167791D01*
X397841Y167696D01*
X397593Y167543D01*
X397346Y167353D01*
X397327Y167334D01*
X397251Y167239D01*
X397137Y167106D01*
X397023Y166935D01*
X396889Y166687D01*
X396756Y166383D01*
X396642Y166040D01*
X396566Y165641D01*
X394987Y165926D01*
Y165945D01*
X395006Y166002D01*
X395025Y166078D01*
X395044Y166193D01*
X395082Y166307D01*
X395139Y166459D01*
X395253Y166820D01*
X395425Y167201D01*
X395653Y167619D01*
X395938Y168000D01*
X396281Y168361D01*
X396300Y168381D01*
X396338Y168400D01*
X396395Y168438D01*
X396471Y168495D01*
X396566Y168571D01*
X396680Y168647D01*
X396832Y168723D01*
X396985Y168799D01*
X397346Y168951D01*
X397784Y169103D01*
X398278Y169198D01*
X398545Y169237D01*
X399001D01*
X399211Y169217D01*
D02*
G37*
G36*
X579374Y416301D02*
Y383547D01*
X327914D01*
Y416301D01*
Y443344D01*
X579374D01*
Y416301D01*
D02*
G37*
G36*
X622830Y209417D02*
X592604D01*
Y238930D01*
X622830D01*
Y209417D01*
D02*
G37*
G36*
X672592Y1077976D02*
X642366D01*
Y1107488D01*
X672592D01*
Y1077976D01*
D02*
G37*
G36*
X909824Y440589D02*
Y424688D01*
X868422D01*
Y440589D01*
Y455168D01*
X909824D01*
Y440589D01*
D02*
G37*
G36*
X910844Y775716D02*
X880618D01*
Y805228D01*
X910844D01*
Y775716D01*
D02*
G37*
G36*
X576471Y209417D02*
X546245D01*
Y238930D01*
X576471D01*
Y209417D01*
D02*
G37*
G36*
X351981Y167629D02*
X346883D01*
X346198Y164186D01*
X346217Y164205D01*
X346255Y164224D01*
X346312Y164262D01*
X346388Y164319D01*
X346502Y164376D01*
X346616Y164452D01*
X346921Y164604D01*
X347282Y164737D01*
X347701Y164870D01*
X348138Y164966D01*
X348367Y165004D01*
X348766D01*
X348880Y164985D01*
X349013Y164966D01*
X349184Y164946D01*
X349375Y164909D01*
X349584Y164851D01*
X350022Y164718D01*
X350250Y164623D01*
X350497Y164509D01*
X350745Y164376D01*
X350973Y164205D01*
X351201Y164033D01*
X351429Y163824D01*
X351449Y163805D01*
X351487Y163767D01*
X351544Y163710D01*
X351620Y163615D01*
X351696Y163501D01*
X351791Y163368D01*
X351905Y163196D01*
X352019Y163025D01*
X352114Y162816D01*
X352229Y162588D01*
X352324Y162340D01*
X352419Y162074D01*
X352476Y161788D01*
X352533Y161484D01*
X352571Y161180D01*
X352590Y160837D01*
Y160818D01*
Y160761D01*
Y160666D01*
X352571Y160552D01*
X352552Y160400D01*
X352533Y160228D01*
X352514Y160019D01*
X352457Y159810D01*
X352343Y159334D01*
X352152Y158840D01*
X352038Y158573D01*
X351905Y158326D01*
X351753Y158079D01*
X351563Y157831D01*
X351544Y157812D01*
X351506Y157774D01*
X351429Y157698D01*
X351334Y157584D01*
X351220Y157470D01*
X351068Y157337D01*
X350897Y157204D01*
X350687Y157070D01*
X350459Y156918D01*
X350212Y156785D01*
X349926Y156652D01*
X349641Y156538D01*
X349318Y156442D01*
X348975Y156366D01*
X348595Y156309D01*
X348214Y156290D01*
X348043D01*
X347929Y156309D01*
X347777Y156328D01*
X347606Y156347D01*
X347415Y156366D01*
X347206Y156404D01*
X346749Y156519D01*
X346274Y156709D01*
X346026Y156804D01*
X345798Y156937D01*
X345570Y157089D01*
X345361Y157261D01*
X345342Y157280D01*
X345323Y157299D01*
X345266Y157356D01*
X345189Y157432D01*
X345094Y157527D01*
X344999Y157660D01*
X344904Y157793D01*
X344790Y157945D01*
X344676Y158136D01*
X344562Y158326D01*
X344371Y158764D01*
X344200Y159277D01*
X344143Y159563D01*
X344105Y159867D01*
X345760Y159981D01*
Y159962D01*
Y159924D01*
X345779Y159867D01*
X345798Y159791D01*
X345855Y159563D01*
X345931Y159315D01*
X346045Y159011D01*
X346179Y158707D01*
X346369Y158421D01*
X346597Y158174D01*
X346635Y158155D01*
X346711Y158079D01*
X346864Y157984D01*
X347054Y157888D01*
X347282Y157774D01*
X347567Y157679D01*
X347872Y157603D01*
X348214Y157584D01*
X348328D01*
X348405Y157603D01*
X348614Y157622D01*
X348880Y157698D01*
X349184Y157793D01*
X349508Y157945D01*
X349831Y158155D01*
X349984Y158288D01*
X350136Y158440D01*
Y158459D01*
X350174Y158478D01*
X350212Y158535D01*
X350250Y158592D01*
X350383Y158783D01*
X350535Y159049D01*
X350668Y159372D01*
X350802Y159753D01*
X350878Y160209D01*
X350916Y160704D01*
Y160723D01*
Y160761D01*
Y160837D01*
X350897Y160932D01*
Y161047D01*
X350878Y161180D01*
X350821Y161484D01*
X350726Y161826D01*
X350592Y162169D01*
X350402Y162511D01*
X350155Y162835D01*
X350117Y162873D01*
X350022Y162949D01*
X349850Y163082D01*
X349622Y163234D01*
X349356Y163368D01*
X349013Y163501D01*
X348614Y163577D01*
X348176Y163615D01*
X348043D01*
X347910Y163596D01*
X347720Y163577D01*
X347510Y163520D01*
X347282Y163463D01*
X347035Y163368D01*
X346806Y163253D01*
X346787Y163234D01*
X346711Y163196D01*
X346597Y163101D01*
X346464Y163006D01*
X346312Y162873D01*
X346160Y162721D01*
X346007Y162530D01*
X345874Y162340D01*
X344390Y162549D01*
X345627Y169132D01*
X351981D01*
Y167629D01*
D02*
G37*
G36*
X935873Y96999D02*
X912956D01*
X924249Y109861D01*
X935873Y96999D01*
D02*
G37*
G36*
X941306Y262636D02*
X918389D01*
X929682Y275498D01*
X941306Y262636D01*
D02*
G37*
G36*
X673689Y26583D02*
X660827Y37876D01*
X673689Y49500D01*
Y26583D01*
D02*
G37*
G36*
X506303Y29885D02*
X493441Y41178D01*
X506303Y52802D01*
Y29885D01*
D02*
G37*
G36*
X272571Y169217D02*
X272705Y169198D01*
X272876Y169179D01*
X273256Y169122D01*
X273675Y168989D01*
X274131Y168818D01*
X274360Y168704D01*
X274569Y168571D01*
X274797Y168419D01*
X274988Y168247D01*
X275007Y168228D01*
X275026Y168209D01*
X275083Y168152D01*
X275140Y168076D01*
X275235Y167981D01*
X275311Y167867D01*
X275501Y167581D01*
X275691Y167239D01*
X275863Y166840D01*
X275977Y166383D01*
X275996Y166136D01*
X276015Y165888D01*
Y165869D01*
Y165850D01*
Y165736D01*
X275996Y165565D01*
X275958Y165355D01*
X275901Y165108D01*
X275806Y164861D01*
X275691Y164595D01*
X275539Y164328D01*
X275520Y164309D01*
X275444Y164214D01*
X275330Y164100D01*
X275178Y163967D01*
X274988Y163796D01*
X274740Y163624D01*
X274455Y163472D01*
X274112Y163320D01*
X274131D01*
X274170Y163301D01*
X274227Y163282D01*
X274303Y163244D01*
X274531Y163149D01*
X274797Y163015D01*
X275083Y162844D01*
X275387Y162635D01*
X275672Y162388D01*
X275920Y162083D01*
X275939Y162045D01*
X276015Y161931D01*
X276110Y161760D01*
X276243Y161513D01*
X276357Y161208D01*
X276452Y160866D01*
X276528Y160466D01*
X276548Y160048D01*
Y160029D01*
Y159972D01*
Y159895D01*
X276528Y159781D01*
X276509Y159629D01*
X276490Y159477D01*
X276452Y159287D01*
X276395Y159096D01*
X276262Y158659D01*
X276167Y158431D01*
X276053Y158202D01*
X275920Y157955D01*
X275749Y157727D01*
X275577Y157498D01*
X275368Y157289D01*
X275349Y157270D01*
X275311Y157251D01*
X275254Y157194D01*
X275159Y157118D01*
X275045Y157042D01*
X274911Y156947D01*
X274740Y156833D01*
X274550Y156737D01*
X274341Y156642D01*
X274112Y156528D01*
X273865Y156433D01*
X273599Y156357D01*
X273313Y156281D01*
X272990Y156243D01*
X272666Y156205D01*
X272324Y156186D01*
X272134D01*
X272001Y156205D01*
X271849Y156224D01*
X271658Y156243D01*
X271449Y156281D01*
X271221Y156319D01*
X270745Y156452D01*
X270479Y156547D01*
X270231Y156661D01*
X269984Y156776D01*
X269718Y156928D01*
X269489Y157099D01*
X269261Y157289D01*
X269242Y157308D01*
X269204Y157346D01*
X269147Y157403D01*
X269090Y157498D01*
X268995Y157593D01*
X268900Y157727D01*
X268785Y157879D01*
X268690Y158069D01*
X268576Y158259D01*
X268462Y158469D01*
X268291Y158944D01*
X268215Y159211D01*
X268158Y159477D01*
X268120Y159781D01*
X268101Y160086D01*
Y160105D01*
Y160143D01*
Y160200D01*
X268120Y160295D01*
Y160409D01*
X268139Y160523D01*
X268177Y160828D01*
X268253Y161151D01*
X268367Y161494D01*
X268519Y161855D01*
X268728Y162178D01*
Y162197D01*
X268766Y162216D01*
X268843Y162312D01*
X268995Y162464D01*
X269185Y162635D01*
X269451Y162825D01*
X269756Y163015D01*
X270117Y163187D01*
X270536Y163320D01*
X270517D01*
X270498Y163339D01*
X270384Y163396D01*
X270193Y163472D01*
X269984Y163586D01*
X269737Y163738D01*
X269508Y163910D01*
X269280Y164119D01*
X269071Y164347D01*
X269052Y164385D01*
X268995Y164461D01*
X268919Y164614D01*
X268843Y164804D01*
X268766Y165032D01*
X268690Y165299D01*
X268633Y165603D01*
X268614Y165926D01*
Y165945D01*
Y165983D01*
Y166059D01*
X268633Y166155D01*
X268652Y166288D01*
X268671Y166421D01*
X268748Y166744D01*
X268862Y167125D01*
X269033Y167524D01*
X269147Y167715D01*
X269280Y167905D01*
X269432Y168095D01*
X269604Y168285D01*
X269623Y168304D01*
X269642Y168323D01*
X269718Y168381D01*
X269794Y168438D01*
X269889Y168514D01*
X270003Y168590D01*
X270155Y168666D01*
X270326Y168761D01*
X270498Y168856D01*
X270707Y168932D01*
X271164Y169084D01*
X271696Y169198D01*
X271982Y169217D01*
X272286Y169237D01*
X272457D01*
X272571Y169217D01*
D02*
G37*
G36*
X804555Y29377D02*
X791693Y40670D01*
X804555Y52294D01*
Y29377D01*
D02*
G37*
G36*
X323625Y169217D02*
X323758D01*
X323910Y169198D01*
X324253Y169122D01*
X324652Y169027D01*
X325070Y168875D01*
X325470Y168666D01*
X325660Y168533D01*
X325850Y168381D01*
X325870D01*
X325889Y168342D01*
X325946Y168285D01*
X326003Y168228D01*
X326174Y168038D01*
X326364Y167772D01*
X326573Y167429D01*
X326764Y167030D01*
X326916Y166573D01*
X327030Y166040D01*
X325470Y165926D01*
Y165945D01*
X325451Y165964D01*
X325432Y166078D01*
X325375Y166231D01*
X325318Y166440D01*
X325223Y166649D01*
X325109Y166877D01*
X324994Y167087D01*
X324861Y167258D01*
X324823Y167296D01*
X324747Y167372D01*
X324614Y167467D01*
X324424Y167600D01*
X324195Y167734D01*
X323929Y167829D01*
X323625Y167905D01*
X323282Y167943D01*
X323149D01*
X323016Y167924D01*
X322826Y167886D01*
X322616Y167848D01*
X322407Y167772D01*
X322179Y167658D01*
X321950Y167524D01*
X321912Y167505D01*
X321836Y167429D01*
X321684Y167296D01*
X321532Y167125D01*
X321342Y166896D01*
X321132Y166611D01*
X320942Y166288D01*
X320771Y165926D01*
Y165907D01*
X320752Y165888D01*
X320733Y165812D01*
X320695Y165736D01*
X320676Y165622D01*
X320638Y165508D01*
X320600Y165355D01*
X320562Y165165D01*
X320505Y164975D01*
X320467Y164747D01*
X320429Y164519D01*
X320410Y164252D01*
X320371Y163967D01*
X320352Y163662D01*
X320333Y163320D01*
Y162997D01*
X320352Y163015D01*
X320429Y163111D01*
X320543Y163263D01*
X320714Y163453D01*
X320904Y163662D01*
X321152Y163872D01*
X321418Y164081D01*
X321703Y164252D01*
X321722D01*
X321741Y164271D01*
X321855Y164328D01*
X322008Y164385D01*
X322236Y164480D01*
X322502Y164557D01*
X322788Y164614D01*
X323111Y164671D01*
X323434Y164690D01*
X323587D01*
X323701Y164671D01*
X323834Y164652D01*
X323986Y164633D01*
X324367Y164538D01*
X324785Y164404D01*
X325013Y164309D01*
X325242Y164195D01*
X325451Y164062D01*
X325679Y163910D01*
X325908Y163738D01*
X326117Y163529D01*
X326136Y163510D01*
X326174Y163472D01*
X326212Y163415D01*
X326288Y163320D01*
X326383Y163206D01*
X326478Y163073D01*
X326573Y162901D01*
X326688Y162730D01*
X326783Y162521D01*
X326878Y162293D01*
X326973Y162045D01*
X327068Y161779D01*
X327144Y161494D01*
X327182Y161189D01*
X327220Y160885D01*
X327239Y160542D01*
Y160523D01*
Y160485D01*
Y160428D01*
Y160333D01*
X327220Y160238D01*
Y160105D01*
X327182Y159819D01*
X327106Y159477D01*
X327011Y159096D01*
X326878Y158697D01*
X326707Y158297D01*
Y158278D01*
X326688Y158259D01*
X326650Y158202D01*
X326612Y158126D01*
X326497Y157936D01*
X326345Y157708D01*
X326136Y157460D01*
X325889Y157194D01*
X325603Y156947D01*
X325280Y156718D01*
X325261D01*
X325242Y156699D01*
X325185Y156661D01*
X325128Y156642D01*
X324937Y156547D01*
X324690Y156452D01*
X324386Y156357D01*
X324024Y156262D01*
X323644Y156205D01*
X323225Y156186D01*
X323130D01*
X323035Y156205D01*
X322902D01*
X322730Y156224D01*
X322540Y156262D01*
X322312Y156300D01*
X322084Y156357D01*
X321836Y156433D01*
X321570Y156528D01*
X321304Y156642D01*
X321037Y156795D01*
X320771Y156947D01*
X320505Y157137D01*
X320257Y157365D01*
X320010Y157612D01*
X319991Y157632D01*
X319953Y157689D01*
X319896Y157765D01*
X319820Y157898D01*
X319725Y158050D01*
X319611Y158240D01*
X319515Y158488D01*
X319401Y158754D01*
X319268Y159058D01*
X319173Y159401D01*
X319059Y159800D01*
X318964Y160238D01*
X318888Y160695D01*
X318831Y161208D01*
X318792Y161779D01*
X318773Y162369D01*
Y162388D01*
Y162407D01*
Y162464D01*
Y162540D01*
X318792Y162730D01*
Y162978D01*
X318811Y163282D01*
X318850Y163624D01*
X318888Y164024D01*
X318945Y164442D01*
X319021Y164880D01*
X319116Y165317D01*
X319211Y165774D01*
X319344Y166212D01*
X319515Y166649D01*
X319687Y167049D01*
X319896Y167429D01*
X320143Y167772D01*
X320162Y167791D01*
X320200Y167829D01*
X320276Y167905D01*
X320371Y168000D01*
X320486Y168114D01*
X320638Y168228D01*
X320809Y168361D01*
X320999Y168514D01*
X321208Y168647D01*
X321456Y168780D01*
X321722Y168894D01*
X322008Y169008D01*
X322331Y169103D01*
X322654Y169179D01*
X322997Y169217D01*
X323377Y169237D01*
X323530D01*
X323625Y169217D01*
D02*
G37*
G36*
X301813Y167810D02*
X301794Y167791D01*
X301756Y167753D01*
X301698Y167677D01*
X301603Y167562D01*
X301489Y167448D01*
X301356Y167277D01*
X301204Y167087D01*
X301052Y166877D01*
X300861Y166649D01*
X300671Y166383D01*
X300481Y166098D01*
X300272Y165793D01*
X300043Y165451D01*
X299834Y165108D01*
X299606Y164728D01*
X299377Y164328D01*
X299358Y164309D01*
X299320Y164233D01*
X299263Y164119D01*
X299187Y163967D01*
X299073Y163757D01*
X298959Y163529D01*
X298826Y163263D01*
X298692Y162978D01*
X298540Y162654D01*
X298388Y162312D01*
X298236Y161950D01*
X298084Y161551D01*
X297779Y160752D01*
X297513Y159915D01*
Y159895D01*
X297494Y159838D01*
X297475Y159762D01*
X297437Y159629D01*
X297399Y159477D01*
X297361Y159306D01*
X297304Y159096D01*
X297266Y158868D01*
X297209Y158621D01*
X297152Y158355D01*
X297056Y157746D01*
X296980Y157099D01*
X296923Y156395D01*
X295306D01*
Y156414D01*
Y156471D01*
Y156547D01*
X295325Y156661D01*
Y156813D01*
X295344Y156985D01*
X295363Y157194D01*
X295382Y157422D01*
X295420Y157670D01*
X295458Y157936D01*
X295515Y158240D01*
X295572Y158564D01*
X295630Y158906D01*
X295706Y159268D01*
X295896Y160029D01*
Y160048D01*
X295915Y160124D01*
X295953Y160238D01*
X296010Y160390D01*
X296067Y160580D01*
X296124Y160809D01*
X296219Y161075D01*
X296315Y161360D01*
X296429Y161665D01*
X296543Y161988D01*
X296828Y162673D01*
X297152Y163415D01*
X297513Y164157D01*
X297532Y164176D01*
X297570Y164252D01*
X297627Y164347D01*
X297703Y164499D01*
X297798Y164671D01*
X297913Y164861D01*
X298046Y165089D01*
X298198Y165336D01*
X298540Y165850D01*
X298921Y166421D01*
X299358Y166992D01*
X299796Y167524D01*
X293518D01*
Y169027D01*
X301813D01*
Y167810D01*
D02*
G37*
%LPC*%
G36*
X555544Y227365D02*
X554613D01*
X552181Y220972D01*
X553074D01*
X553768Y222910D01*
X556447D01*
X557188Y220972D01*
X558147D01*
X555544Y227365D01*
D02*
G37*
G36*
X372890Y410590D02*
X369654D01*
Y390449D01*
X356137Y410590D01*
X352711D01*
Y384966D01*
X355947D01*
Y405069D01*
X369425Y384966D01*
X372890D01*
Y410590D01*
D02*
G37*
G36*
X603328Y227370D02*
X598702D01*
Y220977D01*
X603480D01*
Y221727D01*
X599547D01*
Y223912D01*
X603091D01*
Y224663D01*
X599547D01*
Y226619D01*
X603328D01*
Y227370D01*
D02*
G37*
G36*
X607631D02*
X604658D01*
Y220977D01*
X605503D01*
Y223817D01*
X606596D01*
X606691Y223808D01*
X606767D01*
X606833Y223798D01*
X606881Y223789D01*
X606919D01*
X606938Y223779D01*
X606947D01*
X607090Y223732D01*
X607213Y223675D01*
X607270Y223646D01*
X607308Y223627D01*
X607327Y223618D01*
X607337Y223608D01*
X607413Y223551D01*
X607489Y223494D01*
X607622Y223352D01*
X607679Y223285D01*
X607726Y223228D01*
X607755Y223190D01*
X607764Y223181D01*
X607859Y223057D01*
X607964Y222915D01*
X608068Y222772D01*
X608163Y222630D01*
X608249Y222497D01*
X608315Y222392D01*
X608344Y222354D01*
X608363Y222326D01*
X608382Y222307D01*
Y222297D01*
X609227Y220977D01*
X610282D01*
X609170Y222715D01*
X609047Y222896D01*
X608923Y223057D01*
X608809Y223200D01*
X608705Y223323D01*
X608610Y223428D01*
X608543Y223504D01*
X608496Y223542D01*
X608477Y223561D01*
X608401Y223618D01*
X608325Y223684D01*
X608154Y223779D01*
X608078Y223827D01*
X608021Y223855D01*
X607983Y223874D01*
X607964Y223884D01*
X608135Y223912D01*
X608287Y223941D01*
X608429Y223988D01*
X608562Y224026D01*
X608686Y224074D01*
X608800Y224121D01*
X608895Y224178D01*
X608990Y224226D01*
X609066Y224273D01*
X609132Y224321D01*
X609189Y224359D01*
X609237Y224397D01*
X609275Y224425D01*
X609303Y224454D01*
X609313Y224463D01*
X609322Y224473D01*
X609398Y224558D01*
X609474Y224653D01*
X609579Y224853D01*
X609664Y225043D01*
X609712Y225223D01*
X609750Y225385D01*
X609759Y225451D01*
Y225508D01*
X609769Y225556D01*
Y225594D01*
Y225613D01*
Y225622D01*
X609759Y225812D01*
X609731Y225993D01*
X609683Y226154D01*
X609636Y226297D01*
X609579Y226420D01*
X609541Y226506D01*
X609503Y226562D01*
X609493Y226581D01*
X609389Y226733D01*
X609275Y226857D01*
X609151Y226961D01*
X609037Y227047D01*
X608933Y227113D01*
X608857Y227161D01*
X608800Y227180D01*
X608790Y227190D01*
X608781D01*
X608695Y227218D01*
X608600Y227246D01*
X608391Y227294D01*
X608182Y227323D01*
X607973Y227351D01*
X607783Y227360D01*
X607698D01*
X607631Y227370D01*
D02*
G37*
G36*
X561700Y227479D02*
X561605D01*
X561292Y227460D01*
X561007Y227422D01*
X560741Y227356D01*
X560626Y227318D01*
X560513Y227289D01*
X560418Y227251D01*
X560323Y227213D01*
X560247Y227185D01*
X560180Y227147D01*
X560123Y227128D01*
X560085Y227109D01*
X560066Y227090D01*
X560057D01*
X559810Y226928D01*
X559591Y226748D01*
X559401Y226558D01*
X559249Y226377D01*
X559135Y226216D01*
X559088Y226140D01*
X559040Y226083D01*
X559012Y226026D01*
X558993Y225988D01*
X558974Y225969D01*
Y225959D01*
X558850Y225674D01*
X558755Y225380D01*
X558689Y225085D01*
X558641Y224810D01*
X558622Y224686D01*
X558613Y224572D01*
X558603Y224477D01*
Y224392D01*
X558594Y224316D01*
Y224268D01*
Y224230D01*
Y224221D01*
X558613Y223879D01*
X558651Y223565D01*
X558698Y223271D01*
X558727Y223138D01*
X558765Y223014D01*
X558793Y222900D01*
X558822Y222805D01*
X558850Y222710D01*
X558879Y222644D01*
X558898Y222577D01*
X558917Y222540D01*
X558926Y222511D01*
Y222502D01*
X559069Y222216D01*
X559221Y221979D01*
X559392Y221770D01*
X559553Y221599D01*
X559696Y221457D01*
X559753Y221409D01*
X559810Y221362D01*
X559857Y221333D01*
X559886Y221304D01*
X559905Y221295D01*
X559914Y221285D01*
X560038Y221210D01*
X560171Y221152D01*
X560446Y221048D01*
X560731Y220972D01*
X560997Y220924D01*
X561120Y220905D01*
X561235Y220886D01*
X561339Y220877D01*
X561424D01*
X561501Y220868D01*
X561595D01*
X561776Y220877D01*
X561956Y220886D01*
X562118Y220915D01*
X562280Y220953D01*
X562431Y220991D01*
X562565Y221038D01*
X562697Y221086D01*
X562811Y221143D01*
X562925Y221190D01*
X563011Y221238D01*
X563096Y221285D01*
X563163Y221324D01*
X563220Y221362D01*
X563258Y221390D01*
X563277Y221399D01*
X563286Y221409D01*
X563410Y221514D01*
X563524Y221637D01*
X563628Y221761D01*
X563733Y221894D01*
X563894Y222150D01*
X564027Y222407D01*
X564084Y222530D01*
X564122Y222635D01*
X564160Y222739D01*
X564198Y222824D01*
X564217Y222900D01*
X564236Y222948D01*
X564246Y222986D01*
Y222995D01*
X563400Y223214D01*
X563324Y222929D01*
X563220Y222682D01*
X563106Y222473D01*
X562992Y222302D01*
X562887Y222169D01*
X562849Y222122D01*
X562802Y222074D01*
X562773Y222045D01*
X562745Y222017D01*
X562735Y222008D01*
X562726Y221998D01*
X562631Y221922D01*
X562536Y221865D01*
X562327Y221761D01*
X562127Y221694D01*
X561947Y221637D01*
X561776Y221609D01*
X561710Y221599D01*
X561643D01*
X561595Y221590D01*
X561529D01*
X561311Y221599D01*
X561111Y221637D01*
X560921Y221684D01*
X560760Y221742D01*
X560626Y221789D01*
X560522Y221836D01*
X560484Y221856D01*
X560456Y221875D01*
X560446Y221884D01*
X560437D01*
X560266Y222008D01*
X560114Y222160D01*
X559990Y222302D01*
X559886Y222454D01*
X559810Y222587D01*
X559753Y222701D01*
X559734Y222739D01*
X559715Y222767D01*
X559705Y222786D01*
Y222796D01*
X559629Y223033D01*
X559572Y223271D01*
X559525Y223518D01*
X559496Y223736D01*
X559487Y223841D01*
X559477Y223926D01*
Y224012D01*
X559468Y224088D01*
Y224145D01*
Y224183D01*
Y224211D01*
Y224221D01*
X559477Y224458D01*
X559496Y224677D01*
X559534Y224886D01*
X559572Y225076D01*
X559601Y225228D01*
X559620Y225294D01*
X559639Y225342D01*
X559648Y225389D01*
X559658Y225418D01*
X559667Y225437D01*
Y225446D01*
X559753Y225655D01*
X559857Y225845D01*
X559971Y226007D01*
X560085Y226149D01*
X560190Y226254D01*
X560285Y226330D01*
X560342Y226377D01*
X560351Y226396D01*
X560361D01*
X560560Y226520D01*
X560760Y226605D01*
X560969Y226672D01*
X561168Y226710D01*
X561339Y226738D01*
X561405Y226748D01*
X561472D01*
X561520Y226757D01*
X561595D01*
X561824Y226748D01*
X562033Y226710D01*
X562213Y226653D01*
X562365Y226596D01*
X562489Y226539D01*
X562574Y226482D01*
X562631Y226444D01*
X562650Y226434D01*
X562802Y226301D01*
X562935Y226140D01*
X563049Y225969D01*
X563134Y225807D01*
X563210Y225655D01*
X563239Y225589D01*
X563267Y225532D01*
X563286Y225484D01*
X563296Y225446D01*
X563305Y225427D01*
Y225418D01*
X564141Y225617D01*
X564084Y225779D01*
X564027Y225931D01*
X563961Y226073D01*
X563885Y226206D01*
X563809Y226330D01*
X563733Y226434D01*
X563657Y226539D01*
X563581Y226634D01*
X563505Y226710D01*
X563438Y226786D01*
X563381Y226843D01*
X563324Y226900D01*
X563286Y226938D01*
X563248Y226966D01*
X563229Y226976D01*
X563220Y226985D01*
X563096Y227071D01*
X562963Y227147D01*
X562830Y227213D01*
X562697Y227270D01*
X562422Y227356D01*
X562175Y227422D01*
X562052Y227441D01*
X561947Y227451D01*
X561852Y227460D01*
X561767Y227470D01*
X561700Y227479D01*
D02*
G37*
G36*
X519782Y410590D02*
X516393D01*
Y384966D01*
X519782D01*
Y410590D01*
D02*
G37*
G36*
X570421Y227365D02*
X569271D01*
X566098Y224202D01*
Y227365D01*
X565253D01*
Y220972D01*
X566098D01*
Y223185D01*
X567143Y224192D01*
X569414Y220972D01*
X570535D01*
X567732Y224762D01*
X570421Y227365D01*
D02*
G37*
G36*
X436513Y410590D02*
X433276D01*
Y390449D01*
X419760Y410590D01*
X416333D01*
Y384966D01*
X419570D01*
Y405069D01*
X433048Y384966D01*
X436513D01*
Y410590D01*
D02*
G37*
G36*
X563987Y411047D02*
X563530D01*
X562159Y410971D01*
X560864Y410781D01*
X560293Y410666D01*
X559722Y410552D01*
X559227Y410400D01*
X558732Y410247D01*
X558313Y410095D01*
X557933Y409943D01*
X557590Y409829D01*
X557323Y409715D01*
X557095Y409600D01*
X556943Y409524D01*
X556829Y409486D01*
X556791Y409448D01*
X556257Y409143D01*
X555762Y408801D01*
X554849Y408039D01*
X554087Y407240D01*
X553440Y406478D01*
X552945Y405755D01*
X552755Y405450D01*
X552602Y405184D01*
X552450Y404955D01*
X552374Y404803D01*
X552336Y404689D01*
X552298Y404651D01*
X551765Y403432D01*
X551384Y402176D01*
X551117Y400995D01*
X550927Y399929D01*
X550851Y399434D01*
X550813Y399016D01*
X550775Y398635D01*
Y398292D01*
X550737Y398026D01*
Y397797D01*
Y397683D01*
Y397645D01*
X550813Y396274D01*
X550965Y394980D01*
X551232Y393837D01*
X551384Y393304D01*
X551536Y392809D01*
X551650Y392352D01*
X551803Y391972D01*
X551955Y391629D01*
X552069Y391325D01*
X552145Y391096D01*
X552221Y390944D01*
X552298Y390830D01*
Y390791D01*
X552945Y389725D01*
X553668Y388773D01*
X554468Y387974D01*
X555191Y387327D01*
X555877Y386832D01*
X556181Y386603D01*
X556448Y386451D01*
X556638Y386299D01*
X556791Y386222D01*
X556905Y386184D01*
X556943Y386146D01*
X558123Y385613D01*
X559303Y385233D01*
X560484Y384928D01*
X561512Y384738D01*
X562007Y384700D01*
X562425Y384623D01*
X562844Y384585D01*
X563149D01*
X563415Y384547D01*
X563796D01*
X564824Y384585D01*
X565814Y384700D01*
X566728Y384852D01*
X567566Y385042D01*
X567908Y385118D01*
X568251Y385233D01*
X568555Y385309D01*
X568784Y385385D01*
X568974Y385461D01*
X569127Y385499D01*
X569203Y385537D01*
X569241D01*
X570231Y385956D01*
X571183Y386413D01*
X572058Y386908D01*
X572820Y387403D01*
X573163Y387631D01*
X573467Y387822D01*
X573772Y388012D01*
X574000Y388202D01*
X574152Y388317D01*
X574305Y388431D01*
X574381Y388469D01*
X574419Y388507D01*
Y398026D01*
X563568D01*
Y395018D01*
X571106D01*
Y390220D01*
X570650Y389878D01*
X570155Y389535D01*
X569622Y389192D01*
X569089Y388926D01*
X568632Y388697D01*
X568251Y388545D01*
X568099Y388469D01*
X567984Y388431D01*
X567946Y388393D01*
X567908D01*
X567109Y388126D01*
X566347Y387898D01*
X565624Y387746D01*
X564977Y387669D01*
X564405Y387593D01*
X564177D01*
X563987Y387555D01*
X563606D01*
X562692Y387593D01*
X561816Y387746D01*
X560979Y387898D01*
X560255Y388126D01*
X559646Y388317D01*
X559418Y388393D01*
X559189Y388507D01*
X559037Y388545D01*
X558923Y388621D01*
X558847Y388659D01*
X558808D01*
X558009Y389116D01*
X557323Y389649D01*
X556752Y390220D01*
X556257Y390791D01*
X555877Y391286D01*
X555610Y391705D01*
X555496Y391857D01*
X555420Y391972D01*
X555382Y392048D01*
Y392086D01*
X555001Y393000D01*
X554734Y393952D01*
X554506Y394942D01*
X554392Y395817D01*
X554354Y396236D01*
X554316Y396617D01*
X554278Y396959D01*
Y397264D01*
X554240Y397493D01*
Y397683D01*
Y397797D01*
Y397835D01*
X554278Y398863D01*
X554392Y399815D01*
X554544Y400691D01*
X554734Y401452D01*
X554811Y401795D01*
X554887Y402100D01*
X554963Y402366D01*
X555039Y402594D01*
X555115Y402785D01*
X555153Y402899D01*
X555191Y402975D01*
Y403013D01*
X555420Y403508D01*
X555686Y404003D01*
X555953Y404422D01*
X556219Y404803D01*
X556448Y405107D01*
X556638Y405336D01*
X556752Y405488D01*
X556791Y405526D01*
X557209Y405945D01*
X557666Y406326D01*
X558123Y406631D01*
X558580Y406935D01*
X558961Y407125D01*
X559265Y407316D01*
X559456Y407392D01*
X559532Y407430D01*
X560217Y407659D01*
X560902Y407849D01*
X561550Y407963D01*
X562197Y408077D01*
X562730Y408115D01*
X563187Y408153D01*
X563568D01*
X564291Y408115D01*
X564938Y408039D01*
X565548Y407925D01*
X566043Y407811D01*
X566461Y407696D01*
X566804Y407582D01*
X566995Y407506D01*
X567071Y407468D01*
X567642Y407202D01*
X568137Y406897D01*
X568555Y406592D01*
X568898Y406288D01*
X569165Y406021D01*
X569355Y405831D01*
X569469Y405679D01*
X569507Y405640D01*
X569812Y405184D01*
X570117Y404689D01*
X570345Y404194D01*
X570574Y403699D01*
X570726Y403242D01*
X570840Y402899D01*
X570916Y402633D01*
X570954Y402594D01*
Y402556D01*
X574000Y403394D01*
X573734Y404346D01*
X573429Y405145D01*
X573086Y405869D01*
X572782Y406478D01*
X572515Y406973D01*
X572287Y407316D01*
X572135Y407544D01*
X572058Y407620D01*
X571563Y408191D01*
X570992Y408686D01*
X570383Y409105D01*
X569850Y409486D01*
X569317Y409753D01*
X568936Y409981D01*
X568784Y410057D01*
X568670Y410095D01*
X568594Y410133D01*
X568555D01*
X567680Y410438D01*
X566842Y410666D01*
X565966Y410819D01*
X565205Y410933D01*
X564520Y411009D01*
X564253D01*
X563987Y411047D01*
D02*
G37*
G36*
X388615Y442344D02*
X378792D01*
Y416720D01*
X388006D01*
X388843Y416758D01*
X389643Y416796D01*
X390328Y416872D01*
X390938Y416949D01*
X391432Y417025D01*
X391813Y417063D01*
X391927Y417101D01*
X392042Y417139D01*
X392118D01*
X392765Y417329D01*
X393336Y417520D01*
X393869Y417710D01*
X394326Y417939D01*
X394669Y418091D01*
X394935Y418243D01*
X395126Y418357D01*
X395164Y418396D01*
X395621Y418738D01*
X396078Y419119D01*
X396496Y419538D01*
X396839Y419919D01*
X397106Y420223D01*
X397334Y420528D01*
X397486Y420680D01*
X397524Y420756D01*
X397905Y421327D01*
X398248Y421974D01*
X398552Y422584D01*
X398819Y423193D01*
X399009Y423688D01*
X399162Y424107D01*
X399200Y424259D01*
X399238Y424373D01*
X399276Y424449D01*
Y424487D01*
X399504Y425363D01*
X399657Y426239D01*
X399809Y427115D01*
X399885Y427914D01*
X399923Y428638D01*
Y428904D01*
X399961Y429171D01*
Y429399D01*
Y429551D01*
Y429627D01*
Y429666D01*
X399923Y430922D01*
X399809Y432064D01*
X399618Y433092D01*
X399542Y433549D01*
X399466Y434006D01*
X399352Y434387D01*
X399276Y434729D01*
X399162Y435034D01*
X399086Y435301D01*
X399047Y435491D01*
X398971Y435643D01*
X398933Y435719D01*
Y435757D01*
X398514Y436709D01*
X398058Y437585D01*
X397562Y438308D01*
X397067Y438956D01*
X396611Y439451D01*
X396268Y439832D01*
X396116Y439946D01*
X396001Y440060D01*
X395963Y440136D01*
X395925D01*
X395316Y440593D01*
X394669Y440974D01*
X394060Y441316D01*
X393450Y441545D01*
X392956Y441735D01*
X392537Y441850D01*
X392384Y441926D01*
X392270D01*
X392194Y441964D01*
X392156D01*
X391509Y442078D01*
X390785Y442192D01*
X390024Y442268D01*
X389300Y442306D01*
X388615Y442344D01*
D02*
G37*
G36*
X373119D02*
X369730D01*
Y427533D01*
Y426658D01*
X369654Y425896D01*
X369578Y425135D01*
X369463Y424487D01*
X369349Y423916D01*
X369235Y423383D01*
X369083Y422888D01*
X368930Y422469D01*
X368778Y422127D01*
X368626Y421822D01*
X368512Y421556D01*
X368397Y421365D01*
X368283Y421213D01*
X368207Y421099D01*
X368169Y421061D01*
X368131Y421023D01*
X367826Y420718D01*
X367445Y420490D01*
X366608Y420071D01*
X365732Y419766D01*
X364856Y419576D01*
X364057Y419423D01*
X363714Y419385D01*
X363410D01*
X363143Y419347D01*
X362800D01*
X362001Y419385D01*
X361277Y419462D01*
X360668Y419614D01*
X360097Y419766D01*
X359678Y419919D01*
X359336Y420071D01*
X359145Y420147D01*
X359069Y420185D01*
X358536Y420528D01*
X358117Y420908D01*
X357737Y421327D01*
X357470Y421708D01*
X357242Y422089D01*
X357089Y422355D01*
X357013Y422546D01*
X356975Y422622D01*
X356861Y422926D01*
X356785Y423307D01*
X356632Y424069D01*
X356518Y424868D01*
X356442Y425668D01*
X356404Y426391D01*
Y426734D01*
X356366Y427000D01*
Y427229D01*
Y427381D01*
Y427495D01*
Y427533D01*
Y442344D01*
X352977D01*
Y427533D01*
Y426810D01*
X353015Y426087D01*
X353053Y425439D01*
X353129Y424792D01*
X353206Y424221D01*
X353282Y423726D01*
X353358Y423231D01*
X353472Y422774D01*
X353548Y422393D01*
X353624Y422051D01*
X353701Y421784D01*
X353777Y421518D01*
X353853Y421327D01*
X353891Y421213D01*
X353929Y421137D01*
Y421099D01*
X354348Y420261D01*
X354843Y419576D01*
X355414Y418928D01*
X355947Y418434D01*
X356442Y418053D01*
X356823Y417748D01*
X356975Y417634D01*
X357089Y417596D01*
X357165Y417520D01*
X357203D01*
X358117Y417101D01*
X359107Y416834D01*
X360059Y416606D01*
X361011Y416454D01*
X361430Y416416D01*
X361848Y416378D01*
X362191Y416339D01*
X362496D01*
X362762Y416301D01*
X363105D01*
X364438Y416378D01*
X365047Y416416D01*
X365580Y416530D01*
X366113Y416644D01*
X366608Y416758D01*
X367065Y416872D01*
X367484Y417025D01*
X367864Y417139D01*
X368169Y417253D01*
X368435Y417368D01*
X368664Y417482D01*
X368854Y417596D01*
X368969Y417634D01*
X369045Y417710D01*
X369083D01*
X369882Y418281D01*
X370530Y418890D01*
X371101Y419500D01*
X371520Y420071D01*
X371862Y420604D01*
X372091Y421023D01*
X372167Y421175D01*
X372205Y421289D01*
X372243Y421365D01*
Y421403D01*
X372547Y422317D01*
X372738Y423345D01*
X372890Y424335D01*
X373004Y425325D01*
X373042Y425782D01*
X373080Y426201D01*
Y426581D01*
X373119Y426886D01*
Y427153D01*
Y427381D01*
Y427495D01*
Y427533D01*
Y442344D01*
D02*
G37*
G36*
X440473D02*
X428555D01*
Y416720D01*
X431944D01*
Y428105D01*
X436322D01*
X436703Y428066D01*
X437008D01*
X437274Y428028D01*
X437465Y427990D01*
X437617D01*
X437693Y427952D01*
X437731D01*
X438302Y427762D01*
X438797Y427533D01*
X439026Y427419D01*
X439178Y427343D01*
X439254Y427305D01*
X439292Y427267D01*
X439597Y427038D01*
X439902Y426810D01*
X440434Y426239D01*
X440663Y425972D01*
X440853Y425744D01*
X440967Y425592D01*
X441006Y425554D01*
X441386Y425059D01*
X441805Y424487D01*
X442224Y423916D01*
X442605Y423345D01*
X442947Y422812D01*
X443214Y422393D01*
X443328Y422241D01*
X443404Y422127D01*
X443480Y422051D01*
Y422013D01*
X446869Y416720D01*
X451095D01*
X446641Y423688D01*
X446146Y424411D01*
X445651Y425059D01*
X445194Y425630D01*
X444775Y426125D01*
X444394Y426544D01*
X444128Y426848D01*
X443937Y427000D01*
X443861Y427076D01*
X443557Y427305D01*
X443252Y427571D01*
X442567Y427952D01*
X442262Y428143D01*
X442034Y428257D01*
X441881Y428333D01*
X441805Y428371D01*
X442491Y428485D01*
X443100Y428600D01*
X443671Y428790D01*
X444204Y428942D01*
X444699Y429132D01*
X445156Y429323D01*
X445536Y429551D01*
X445917Y429742D01*
X446222Y429932D01*
X446488Y430122D01*
X446717Y430275D01*
X446907Y430427D01*
X447060Y430541D01*
X447174Y430656D01*
X447212Y430694D01*
X447250Y430732D01*
X447555Y431074D01*
X447859Y431455D01*
X448278Y432255D01*
X448620Y433016D01*
X448811Y433740D01*
X448963Y434387D01*
X449001Y434653D01*
Y434882D01*
X449039Y435072D01*
Y435224D01*
Y435301D01*
Y435339D01*
X449001Y436100D01*
X448887Y436824D01*
X448697Y437471D01*
X448506Y438042D01*
X448278Y438537D01*
X448126Y438880D01*
X447973Y439108D01*
X447935Y439184D01*
X447516Y439793D01*
X447060Y440288D01*
X446564Y440707D01*
X446108Y441050D01*
X445689Y441316D01*
X445384Y441507D01*
X445156Y441583D01*
X445118Y441621D01*
X445080D01*
X444737Y441735D01*
X444356Y441850D01*
X443518Y442040D01*
X442681Y442154D01*
X441843Y442268D01*
X441082Y442306D01*
X440739D01*
X440473Y442344D01*
D02*
G37*
G36*
X423225D02*
X404683D01*
Y416720D01*
X423834D01*
Y419728D01*
X408071D01*
Y428485D01*
X422273D01*
Y431493D01*
X408071D01*
Y439337D01*
X423225D01*
Y442344D01*
D02*
G37*
G36*
X390976Y411047D02*
X390519D01*
X389148Y410971D01*
X387854Y410781D01*
X387282Y410666D01*
X386711Y410552D01*
X386216Y410400D01*
X385721Y410247D01*
X385303Y410095D01*
X384922Y409943D01*
X384579Y409829D01*
X384313Y409715D01*
X384084Y409600D01*
X383932Y409524D01*
X383818Y409486D01*
X383779Y409448D01*
X383246Y409143D01*
X382752Y408801D01*
X381838Y408039D01*
X381076Y407240D01*
X380429Y406478D01*
X379934Y405755D01*
X379744Y405450D01*
X379591Y405184D01*
X379439Y404955D01*
X379363Y404803D01*
X379325Y404689D01*
X379287Y404651D01*
X378754Y403432D01*
X378373Y402176D01*
X378106Y400995D01*
X377916Y399929D01*
X377840Y399434D01*
X377802Y399016D01*
X377764Y398635D01*
Y398292D01*
X377726Y398026D01*
Y397797D01*
Y397683D01*
Y397645D01*
X377802Y396274D01*
X377954Y394980D01*
X378221Y393837D01*
X378373Y393304D01*
X378525Y392809D01*
X378639Y392352D01*
X378792Y391972D01*
X378944Y391629D01*
X379058Y391325D01*
X379134Y391096D01*
X379211Y390944D01*
X379287Y390830D01*
Y390791D01*
X379934Y389725D01*
X380657Y388773D01*
X381457Y387974D01*
X382180Y387327D01*
X382866Y386832D01*
X383170Y386603D01*
X383437Y386451D01*
X383627Y386299D01*
X383779Y386222D01*
X383894Y386184D01*
X383932Y386146D01*
X385112Y385613D01*
X386292Y385233D01*
X387473Y384928D01*
X388501Y384738D01*
X388996Y384700D01*
X389414Y384623D01*
X389833Y384585D01*
X390138D01*
X390405Y384547D01*
X390785D01*
X391813Y384585D01*
X392803Y384700D01*
X393717Y384852D01*
X394555Y385042D01*
X394897Y385118D01*
X395240Y385233D01*
X395545Y385309D01*
X395773Y385385D01*
X395963Y385461D01*
X396116Y385499D01*
X396192Y385537D01*
X396230D01*
X397220Y385956D01*
X398172Y386413D01*
X399047Y386908D01*
X399809Y387403D01*
X400152Y387631D01*
X400456Y387822D01*
X400761Y388012D01*
X400989Y388202D01*
X401142Y388317D01*
X401294Y388431D01*
X401370Y388469D01*
X401408Y388507D01*
Y398026D01*
X390557D01*
Y395018D01*
X398096D01*
Y390220D01*
X397639Y389878D01*
X397144Y389535D01*
X396611Y389192D01*
X396078Y388926D01*
X395621Y388697D01*
X395240Y388545D01*
X395088Y388469D01*
X394973Y388431D01*
X394935Y388393D01*
X394897D01*
X394098Y388126D01*
X393336Y387898D01*
X392613Y387746D01*
X391965Y387669D01*
X391394Y387593D01*
X391166D01*
X390976Y387555D01*
X390595D01*
X389681Y387593D01*
X388805Y387746D01*
X387968Y387898D01*
X387244Y388126D01*
X386635Y388317D01*
X386407Y388393D01*
X386178Y388507D01*
X386026Y388545D01*
X385912Y388621D01*
X385835Y388659D01*
X385798D01*
X384998Y389116D01*
X384313Y389649D01*
X383741Y390220D01*
X383246Y390791D01*
X382866Y391286D01*
X382599Y391705D01*
X382485Y391857D01*
X382409Y391972D01*
X382371Y392048D01*
Y392086D01*
X381990Y393000D01*
X381724Y393952D01*
X381495Y394942D01*
X381381Y395817D01*
X381343Y396236D01*
X381305Y396617D01*
X381267Y396959D01*
Y397264D01*
X381228Y397493D01*
Y397683D01*
Y397797D01*
Y397835D01*
X381267Y398863D01*
X381381Y399815D01*
X381533Y400691D01*
X381724Y401452D01*
X381800Y401795D01*
X381876Y402100D01*
X381952Y402366D01*
X382028Y402594D01*
X382104Y402785D01*
X382142Y402899D01*
X382180Y402975D01*
Y403013D01*
X382409Y403508D01*
X382675Y404003D01*
X382942Y404422D01*
X383208Y404803D01*
X383437Y405107D01*
X383627Y405336D01*
X383741Y405488D01*
X383779Y405526D01*
X384198Y405945D01*
X384655Y406326D01*
X385112Y406631D01*
X385569Y406935D01*
X385950Y407125D01*
X386254Y407316D01*
X386445Y407392D01*
X386521Y407430D01*
X387206Y407659D01*
X387892Y407849D01*
X388539Y407963D01*
X389186Y408077D01*
X389719Y408115D01*
X390176Y408153D01*
X390557D01*
X391280Y408115D01*
X391927Y408039D01*
X392537Y407925D01*
X393032Y407811D01*
X393450Y407696D01*
X393793Y407582D01*
X393983Y407506D01*
X394060Y407468D01*
X394631Y407202D01*
X395126Y406897D01*
X395545Y406592D01*
X395887Y406288D01*
X396154Y406021D01*
X396344Y405831D01*
X396458Y405679D01*
X396496Y405640D01*
X396801Y405184D01*
X397106Y404689D01*
X397334Y404194D01*
X397562Y403699D01*
X397715Y403242D01*
X397829Y402899D01*
X397905Y402633D01*
X397943Y402594D01*
Y402556D01*
X400989Y403394D01*
X400723Y404346D01*
X400418Y405145D01*
X400075Y405869D01*
X399771Y406478D01*
X399504Y406973D01*
X399276Y407316D01*
X399124Y407544D01*
X399047Y407620D01*
X398552Y408191D01*
X397981Y408686D01*
X397372Y409105D01*
X396839Y409486D01*
X396306Y409753D01*
X395925Y409981D01*
X395773Y410057D01*
X395659Y410095D01*
X395583Y410133D01*
X395545D01*
X394669Y410438D01*
X393831Y410666D01*
X392956Y410819D01*
X392194Y410933D01*
X391509Y411009D01*
X391242D01*
X390976Y411047D01*
D02*
G37*
G36*
X903088Y793669D02*
X900115D01*
Y787275D01*
X900960D01*
Y790116D01*
X902053D01*
X902148Y790106D01*
X902224D01*
X902290Y790097D01*
X902338Y790087D01*
X902376D01*
X902395Y790078D01*
X902404D01*
X902547Y790030D01*
X902671Y789973D01*
X902728Y789945D01*
X902766Y789926D01*
X902785Y789916D01*
X902794Y789907D01*
X902870Y789850D01*
X902946Y789793D01*
X903079Y789650D01*
X903136Y789584D01*
X903183Y789527D01*
X903212Y789489D01*
X903221Y789479D01*
X903316Y789356D01*
X903421Y789213D01*
X903525Y789071D01*
X903620Y788928D01*
X903706Y788795D01*
X903772Y788691D01*
X903801Y788653D01*
X903820Y788624D01*
X903839Y788605D01*
Y788596D01*
X904684Y787275D01*
X905739D01*
X904627Y789014D01*
X904504Y789194D01*
X904380Y789356D01*
X904266Y789498D01*
X904162Y789622D01*
X904067Y789726D01*
X904000Y789802D01*
X903953Y789840D01*
X903934Y789859D01*
X903858Y789916D01*
X903782Y789983D01*
X903611Y790078D01*
X903535Y790125D01*
X903478Y790154D01*
X903440Y790173D01*
X903421Y790182D01*
X903592Y790211D01*
X903744Y790239D01*
X903886Y790287D01*
X904019Y790325D01*
X904143Y790372D01*
X904257Y790420D01*
X904352Y790477D01*
X904447Y790524D01*
X904523Y790572D01*
X904589Y790619D01*
X904646Y790657D01*
X904694Y790695D01*
X904732Y790724D01*
X904760Y790752D01*
X904770Y790762D01*
X904779Y790771D01*
X904855Y790857D01*
X904931Y790952D01*
X905036Y791151D01*
X905121Y791341D01*
X905169Y791522D01*
X905207Y791683D01*
X905216Y791750D01*
Y791807D01*
X905226Y791854D01*
Y791892D01*
Y791911D01*
Y791921D01*
X905216Y792111D01*
X905188Y792291D01*
X905140Y792453D01*
X905093Y792595D01*
X905036Y792719D01*
X904998Y792804D01*
X904960Y792861D01*
X904950Y792880D01*
X904846Y793032D01*
X904732Y793156D01*
X904608Y793260D01*
X904494Y793346D01*
X904390Y793412D01*
X904314Y793460D01*
X904257Y793479D01*
X904247Y793488D01*
X904238D01*
X904152Y793517D01*
X904057Y793545D01*
X903848Y793593D01*
X903639Y793621D01*
X903430Y793650D01*
X903240Y793659D01*
X903155D01*
X903088Y793669D01*
D02*
G37*
G36*
X899317D02*
X898462D01*
X897465Y789555D01*
X897398Y789270D01*
X897332Y789004D01*
X897275Y788767D01*
X897227Y788568D01*
X897208Y788482D01*
X897189Y788397D01*
X897180Y788330D01*
X897161Y788273D01*
X897151Y788225D01*
Y788197D01*
X897142Y788178D01*
Y788168D01*
X897075Y788568D01*
X896999Y788966D01*
X896914Y789346D01*
X896866Y789527D01*
X896828Y789698D01*
X896790Y789850D01*
X896752Y789992D01*
X896724Y790116D01*
X896695Y790220D01*
X896667Y790315D01*
X896657Y790372D01*
X896638Y790420D01*
Y790429D01*
X895726Y793669D01*
X894710D01*
X893494Y789346D01*
X893484Y789308D01*
X893465Y789251D01*
X893446Y789175D01*
X893427Y789090D01*
X893380Y788900D01*
X893332Y788700D01*
X893285Y788501D01*
X893256Y788406D01*
X893237Y788330D01*
X893218Y788263D01*
X893209Y788216D01*
X893199Y788178D01*
Y788168D01*
X893152Y788406D01*
X893104Y788643D01*
X893066Y788862D01*
X893019Y789061D01*
X893000Y789147D01*
X892981Y789232D01*
X892962Y789299D01*
X892952Y789356D01*
X892943Y789403D01*
X892933Y789441D01*
X892924Y789460D01*
Y789470D01*
X891964Y793669D01*
X891090D01*
X892772Y787275D01*
X893655D01*
X894995Y792139D01*
X895033Y792263D01*
X895061Y792386D01*
X895099Y792519D01*
X895128Y792633D01*
X895156Y792738D01*
X895175Y792814D01*
X895185Y792871D01*
X895194Y792890D01*
X895204Y792861D01*
X895213Y792823D01*
X895242Y792719D01*
X895280Y792595D01*
X895318Y792462D01*
X895346Y792339D01*
X895375Y792234D01*
X895384Y792196D01*
X895394Y792168D01*
X895403Y792149D01*
Y792139D01*
X896743Y787275D01*
X897560D01*
X899317Y793669D01*
D02*
G37*
G36*
X888345D02*
X885723D01*
Y787275D01*
X886569D01*
Y789878D01*
X888203D01*
X888450Y789888D01*
X888668Y789907D01*
X888877Y789926D01*
X889067Y789964D01*
X889238Y790011D01*
X889390Y790059D01*
X889523Y790106D01*
X889647Y790163D01*
X889751Y790211D01*
X889837Y790258D01*
X889912Y790306D01*
X889969Y790353D01*
X890017Y790391D01*
X890045Y790410D01*
X890064Y790429D01*
X890074Y790439D01*
X890169Y790543D01*
X890245Y790657D01*
X890321Y790771D01*
X890378Y790895D01*
X890473Y791123D01*
X890530Y791341D01*
X890549Y791436D01*
X890568Y791531D01*
X890577Y791607D01*
X890587Y791683D01*
X890596Y791740D01*
Y791778D01*
Y791807D01*
Y791816D01*
X890587Y791987D01*
X890568Y792158D01*
X890530Y792301D01*
X890501Y792434D01*
X890463Y792538D01*
X890425Y792624D01*
X890406Y792671D01*
X890397Y792690D01*
X890321Y792833D01*
X890236Y792956D01*
X890150Y793061D01*
X890074Y793146D01*
X889998Y793222D01*
X889941Y793270D01*
X889903Y793298D01*
X889884Y793308D01*
X889761Y793384D01*
X889628Y793450D01*
X889494Y793498D01*
X889371Y793536D01*
X889267Y793564D01*
X889172Y793583D01*
X889115Y793602D01*
X889096D01*
X888962Y793621D01*
X888801Y793640D01*
X888640Y793650D01*
X888488Y793659D01*
X888345Y793669D01*
D02*
G37*
G36*
X339004Y442344D02*
X328914D01*
Y416720D01*
X338661D01*
X339537Y416758D01*
X340336Y416796D01*
X341022Y416872D01*
X341631Y416949D01*
X342126Y417025D01*
X342469Y417063D01*
X342697Y417139D01*
X342773D01*
X343382Y417329D01*
X343954Y417520D01*
X344410Y417710D01*
X344829Y417939D01*
X345134Y418091D01*
X345400Y418243D01*
X345553Y418357D01*
X345591Y418396D01*
X346009Y418738D01*
X346390Y419119D01*
X346695Y419500D01*
X346961Y419880D01*
X347190Y420223D01*
X347342Y420490D01*
X347456Y420680D01*
X347494Y420756D01*
X347761Y421365D01*
X347951Y421936D01*
X348065Y422508D01*
X348180Y423041D01*
X348218Y423498D01*
X348256Y423840D01*
Y424069D01*
Y424107D01*
Y424145D01*
X348218Y424944D01*
X348065Y425668D01*
X347837Y426315D01*
X347609Y426886D01*
X347380Y427343D01*
X347152Y427686D01*
X346999Y427914D01*
X346961Y427990D01*
X346466Y428561D01*
X345857Y429056D01*
X345286Y429475D01*
X344715Y429818D01*
X344182Y430046D01*
X343763Y430237D01*
X343611Y430275D01*
X343497Y430313D01*
X343420Y430351D01*
X343382D01*
X344030Y430694D01*
X344563Y431074D01*
X345058Y431455D01*
X345438Y431836D01*
X345705Y432178D01*
X345933Y432445D01*
X346048Y432597D01*
X346086Y432673D01*
X346390Y433206D01*
X346619Y433778D01*
X346771Y434273D01*
X346885Y434768D01*
X346961Y435148D01*
X346999Y435491D01*
Y435681D01*
Y435757D01*
X346961Y436405D01*
X346847Y437052D01*
X346657Y437623D01*
X346505Y438118D01*
X346314Y438537D01*
X346124Y438880D01*
X346009Y439070D01*
X345971Y439146D01*
X345553Y439717D01*
X345134Y440212D01*
X344677Y440631D01*
X344220Y440974D01*
X343801Y441202D01*
X343497Y441393D01*
X343268Y441507D01*
X343230Y441545D01*
X343192D01*
X342507Y441811D01*
X341707Y442002D01*
X340946Y442154D01*
X340184Y442230D01*
X339537Y442306D01*
X339232D01*
X339004Y442344D01*
D02*
G37*
G36*
X545901Y410590D02*
X542665D01*
Y390449D01*
X529148Y410590D01*
X525722D01*
Y384966D01*
X528958D01*
Y405069D01*
X542436Y384966D01*
X545901D01*
Y410590D01*
D02*
G37*
G36*
X614082Y227370D02*
X611108D01*
Y220977D01*
X611954D01*
Y223817D01*
X613046D01*
X613141Y223808D01*
X613217D01*
X613284Y223798D01*
X613331Y223789D01*
X613369D01*
X613388Y223779D01*
X613398D01*
X613540Y223732D01*
X613664Y223675D01*
X613721Y223646D01*
X613759Y223627D01*
X613778Y223618D01*
X613787Y223608D01*
X613863Y223551D01*
X613939Y223494D01*
X614072Y223352D01*
X614129Y223285D01*
X614177Y223228D01*
X614205Y223190D01*
X614215Y223181D01*
X614310Y223057D01*
X614414Y222915D01*
X614519Y222772D01*
X614614Y222630D01*
X614699Y222497D01*
X614766Y222392D01*
X614794Y222354D01*
X614813Y222326D01*
X614832Y222307D01*
Y222297D01*
X615677Y220977D01*
X616732D01*
X615620Y222715D01*
X615497Y222896D01*
X615373Y223057D01*
X615260Y223200D01*
X615155Y223323D01*
X615060Y223428D01*
X614994Y223504D01*
X614946Y223542D01*
X614927Y223561D01*
X614851Y223618D01*
X614775Y223684D01*
X614604Y223779D01*
X614528Y223827D01*
X614471Y223855D01*
X614433Y223874D01*
X614414Y223884D01*
X614585Y223912D01*
X614737Y223941D01*
X614879Y223988D01*
X615013Y224026D01*
X615136Y224074D01*
X615250Y224121D01*
X615345Y224178D01*
X615440Y224226D01*
X615516Y224273D01*
X615583Y224321D01*
X615639Y224359D01*
X615687Y224397D01*
X615725Y224425D01*
X615754Y224454D01*
X615763Y224463D01*
X615773Y224473D01*
X615849Y224558D01*
X615924Y224653D01*
X616029Y224853D01*
X616115Y225043D01*
X616162Y225223D01*
X616200Y225385D01*
X616209Y225451D01*
Y225508D01*
X616219Y225556D01*
Y225594D01*
Y225613D01*
Y225622D01*
X616209Y225812D01*
X616181Y225993D01*
X616133Y226154D01*
X616086Y226297D01*
X616029Y226420D01*
X615991Y226506D01*
X615953Y226562D01*
X615943Y226581D01*
X615839Y226733D01*
X615725Y226857D01*
X615602Y226961D01*
X615488Y227047D01*
X615383Y227113D01*
X615307Y227161D01*
X615250Y227180D01*
X615241Y227190D01*
X615231D01*
X615145Y227218D01*
X615051Y227246D01*
X614841Y227294D01*
X614633Y227323D01*
X614424Y227351D01*
X614234Y227360D01*
X614148D01*
X614082Y227370D01*
D02*
G37*
G36*
X892053Y447087D02*
X889602D01*
Y440694D01*
X891901D01*
X892110Y440703D01*
X892310Y440713D01*
X892481Y440732D01*
X892633Y440751D01*
X892756Y440770D01*
X892851Y440779D01*
X892880Y440789D01*
X892908Y440798D01*
X892927D01*
X893089Y440846D01*
X893231Y440893D01*
X893364Y440941D01*
X893478Y440998D01*
X893564Y441036D01*
X893630Y441074D01*
X893678Y441102D01*
X893687Y441112D01*
X893801Y441197D01*
X893915Y441292D01*
X894020Y441397D01*
X894105Y441492D01*
X894172Y441568D01*
X894229Y441644D01*
X894267Y441682D01*
X894276Y441701D01*
X894371Y441843D01*
X894457Y442005D01*
X894533Y442157D01*
X894599Y442309D01*
X894647Y442432D01*
X894685Y442537D01*
X894694Y442575D01*
X894704Y442603D01*
X894713Y442622D01*
Y442632D01*
X894770Y442850D01*
X894808Y443069D01*
X894846Y443287D01*
X894865Y443487D01*
X894875Y443667D01*
Y443734D01*
X894884Y443800D01*
Y443857D01*
Y443895D01*
Y443914D01*
Y443923D01*
X894875Y444237D01*
X894846Y444522D01*
X894799Y444779D01*
X894780Y444893D01*
X894761Y445006D01*
X894732Y445102D01*
X894713Y445187D01*
X894685Y445263D01*
X894666Y445330D01*
X894656Y445377D01*
X894637Y445415D01*
X894628Y445434D01*
Y445443D01*
X894523Y445681D01*
X894409Y445900D01*
X894286Y446080D01*
X894162Y446241D01*
X894048Y446365D01*
X893963Y446460D01*
X893925Y446488D01*
X893896Y446517D01*
X893887Y446536D01*
X893877D01*
X893725Y446650D01*
X893564Y446745D01*
X893412Y446830D01*
X893260Y446887D01*
X893136Y446935D01*
X893032Y446963D01*
X892994Y446982D01*
X892965D01*
X892946Y446992D01*
X892937D01*
X892775Y447020D01*
X892595Y447049D01*
X892405Y447068D01*
X892224Y447077D01*
X892053Y447087D01*
D02*
G37*
G36*
X885964Y447201D02*
X885841D01*
X885613Y447191D01*
X885394Y447163D01*
X885195Y447134D01*
X885014Y447096D01*
X884872Y447049D01*
X884815Y447030D01*
X884767Y447020D01*
X884729Y447001D01*
X884701Y446992D01*
X884682Y446982D01*
X884672D01*
X884482Y446897D01*
X884321Y446792D01*
X884188Y446678D01*
X884074Y446574D01*
X883979Y446479D01*
X883912Y446403D01*
X883874Y446355D01*
X883865Y446346D01*
Y446336D01*
X883779Y446175D01*
X883713Y446023D01*
X883665Y445871D01*
X883637Y445728D01*
X883618Y445605D01*
X883599Y445519D01*
Y445481D01*
Y445453D01*
Y445443D01*
Y445434D01*
X883608Y445272D01*
X883637Y445121D01*
X883665Y444978D01*
X883713Y444864D01*
X883751Y444769D01*
X883779Y444693D01*
X883808Y444646D01*
X883817Y444627D01*
X883912Y444503D01*
X884017Y444389D01*
X884131Y444285D01*
X884245Y444199D01*
X884349Y444132D01*
X884425Y444085D01*
X884482Y444047D01*
X884492Y444038D01*
X884501D01*
X884577Y443999D01*
X884653Y443961D01*
X884843Y443895D01*
X885043Y443829D01*
X885252Y443772D01*
X885442Y443715D01*
X885518Y443696D01*
X885594Y443677D01*
X885651Y443658D01*
X885698Y443648D01*
X885727Y443639D01*
X885736D01*
X885898Y443601D01*
X886040Y443563D01*
X886173Y443534D01*
X886287Y443506D01*
X886392Y443477D01*
X886487Y443449D01*
X886562Y443420D01*
X886638Y443401D01*
X886695Y443382D01*
X886752Y443373D01*
X886819Y443344D01*
X886867Y443335D01*
X886876Y443325D01*
X887019Y443268D01*
X887142Y443202D01*
X887237Y443135D01*
X887322Y443078D01*
X887380Y443021D01*
X887427Y442983D01*
X887446Y442955D01*
X887456Y442945D01*
X887513Y442860D01*
X887551Y442774D01*
X887589Y442689D01*
X887607Y442603D01*
X887617Y442527D01*
X887626Y442470D01*
Y442432D01*
Y442423D01*
X887617Y442318D01*
X887598Y442214D01*
X887570Y442119D01*
X887532Y442033D01*
X887494Y441967D01*
X887465Y441919D01*
X887446Y441881D01*
X887437Y441872D01*
X887361Y441786D01*
X887275Y441710D01*
X887180Y441644D01*
X887094Y441587D01*
X887009Y441539D01*
X886943Y441511D01*
X886905Y441492D01*
X886886Y441482D01*
X886743Y441435D01*
X886600Y441397D01*
X886458Y441378D01*
X886325Y441359D01*
X886211Y441349D01*
X886126Y441340D01*
X886040D01*
X885841Y441349D01*
X885660Y441368D01*
X885489Y441397D01*
X885347Y441435D01*
X885233Y441473D01*
X885138Y441501D01*
X885081Y441520D01*
X885071Y441530D01*
X885062D01*
X884910Y441606D01*
X884777Y441691D01*
X884663Y441767D01*
X884577Y441853D01*
X884501Y441919D01*
X884454Y441976D01*
X884425Y442014D01*
X884416Y442024D01*
X884349Y442147D01*
X884292Y442280D01*
X884245Y442413D01*
X884207Y442537D01*
X884188Y442651D01*
X884169Y442746D01*
X884159Y442803D01*
Y442812D01*
Y442822D01*
X883361Y442755D01*
X883380Y442518D01*
X883418Y442299D01*
X883475Y442109D01*
X883532Y441938D01*
X883599Y441796D01*
X883627Y441739D01*
X883656Y441691D01*
X883675Y441644D01*
X883694Y441615D01*
X883703Y441606D01*
Y441596D01*
X883836Y441416D01*
X883988Y441264D01*
X884140Y441131D01*
X884292Y441026D01*
X884425Y440941D01*
X884530Y440884D01*
X884568Y440865D01*
X884596Y440846D01*
X884615Y440836D01*
X884625D01*
X884853Y440751D01*
X885100Y440694D01*
X885347Y440646D01*
X885575Y440618D01*
X885679Y440608D01*
X885774Y440599D01*
X885860D01*
X885936Y440589D01*
X886078D01*
X886325Y440599D01*
X886562Y440627D01*
X886762Y440665D01*
X886952Y440713D01*
X887094Y440760D01*
X887161Y440779D01*
X887208Y440798D01*
X887246Y440817D01*
X887275Y440827D01*
X887294Y440836D01*
X887303D01*
X887503Y440941D01*
X887664Y441045D01*
X887816Y441169D01*
X887931Y441273D01*
X888026Y441378D01*
X888092Y441454D01*
X888139Y441511D01*
X888149Y441520D01*
Y441530D01*
X888244Y441701D01*
X888320Y441872D01*
X888367Y442033D01*
X888406Y442185D01*
X888425Y442309D01*
X888444Y442413D01*
Y442451D01*
Y442480D01*
Y442489D01*
Y442499D01*
X888434Y442689D01*
X888406Y442860D01*
X888358Y443012D01*
X888310Y443145D01*
X888263Y443249D01*
X888215Y443335D01*
X888187Y443382D01*
X888177Y443401D01*
X888064Y443544D01*
X887940Y443677D01*
X887797Y443781D01*
X887664Y443876D01*
X887541Y443952D01*
X887446Y444009D01*
X887408Y444028D01*
X887380Y444047D01*
X887361Y444057D01*
X887351D01*
X887275Y444085D01*
X887180Y444123D01*
X887076Y444161D01*
X886971Y444189D01*
X886733Y444256D01*
X886506Y444323D01*
X886287Y444370D01*
X886192Y444398D01*
X886107Y444417D01*
X886031Y444436D01*
X885983Y444446D01*
X885945Y444455D01*
X885936D01*
X885755Y444503D01*
X885584Y444541D01*
X885432Y444589D01*
X885299Y444627D01*
X885185Y444664D01*
X885081Y444712D01*
X884986Y444740D01*
X884910Y444779D01*
X884843Y444807D01*
X884796Y444836D01*
X884748Y444864D01*
X884720Y444883D01*
X884672Y444911D01*
X884663Y444921D01*
X884577Y445006D01*
X884520Y445102D01*
X884473Y445196D01*
X884444Y445282D01*
X884425Y445358D01*
X884416Y445424D01*
Y445462D01*
Y445481D01*
X884435Y445624D01*
X884473Y445757D01*
X884530Y445871D01*
X884596Y445975D01*
X884653Y446051D01*
X884710Y446118D01*
X884748Y446156D01*
X884767Y446166D01*
X884834Y446213D01*
X884919Y446260D01*
X885090Y446327D01*
X885271Y446384D01*
X885451Y446412D01*
X885622Y446431D01*
X885689Y446441D01*
X885755Y446450D01*
X885879D01*
X886135Y446441D01*
X886363Y446403D01*
X886562Y446355D01*
X886714Y446298D01*
X886838Y446232D01*
X886933Y446185D01*
X886981Y446147D01*
X887000Y446137D01*
X887132Y446013D01*
X887227Y445871D01*
X887303Y445719D01*
X887370Y445577D01*
X887408Y445443D01*
X887427Y445330D01*
X887437Y445291D01*
X887446Y445263D01*
Y445244D01*
Y445234D01*
X888253Y445291D01*
X888234Y445491D01*
X888187Y445681D01*
X888139Y445852D01*
X888083Y446004D01*
X888026Y446118D01*
X887978Y446213D01*
X887940Y446270D01*
X887931Y446289D01*
X887816Y446450D01*
X887683Y446583D01*
X887541Y446697D01*
X887408Y446792D01*
X887284Y446868D01*
X887189Y446925D01*
X887151Y446944D01*
X887123Y446954D01*
X887104Y446963D01*
X887094D01*
X886886Y447039D01*
X886667Y447096D01*
X886458Y447144D01*
X886268Y447172D01*
X886097Y447191D01*
X886021D01*
X885964Y447201D01*
D02*
G37*
G36*
X898375Y439267D02*
X898280D01*
X897967Y439248D01*
X897682Y439210D01*
X897416Y439143D01*
X897302Y439105D01*
X897188Y439077D01*
X897093Y439039D01*
X896998Y439001D01*
X896922Y438972D01*
X896855Y438934D01*
X896798Y438915D01*
X896760Y438896D01*
X896741Y438877D01*
X896732D01*
X896485Y438716D01*
X896266Y438535D01*
X896076Y438345D01*
X895924Y438165D01*
X895810Y438003D01*
X895763Y437927D01*
X895715Y437870D01*
X895687Y437813D01*
X895668Y437775D01*
X895649Y437756D01*
Y437747D01*
X895525Y437462D01*
X895430Y437167D01*
X895364Y436873D01*
X895316Y436598D01*
X895297Y436474D01*
X895288Y436360D01*
X895278Y436265D01*
Y436180D01*
X895269Y436104D01*
Y436056D01*
Y436018D01*
Y436008D01*
X895288Y435667D01*
X895326Y435353D01*
X895373Y435059D01*
X895402Y434925D01*
X895440Y434802D01*
X895468Y434688D01*
X895497Y434593D01*
X895525Y434498D01*
X895554Y434431D01*
X895573Y434365D01*
X895592Y434327D01*
X895601Y434299D01*
Y434289D01*
X895744Y434004D01*
X895896Y433767D01*
X896067Y433558D01*
X896228Y433387D01*
X896371Y433244D01*
X896428Y433197D01*
X896485Y433149D01*
X896532Y433121D01*
X896561Y433092D01*
X896580Y433083D01*
X896589Y433073D01*
X896713Y432997D01*
X896846Y432940D01*
X897121Y432836D01*
X897406Y432760D01*
X897672Y432712D01*
X897796Y432693D01*
X897910Y432674D01*
X898014Y432665D01*
X898100D01*
X898176Y432655D01*
X898271D01*
X898451Y432665D01*
X898632Y432674D01*
X898793Y432703D01*
X898955Y432741D01*
X899107Y432779D01*
X899240Y432826D01*
X899373Y432874D01*
X899487Y432931D01*
X899601Y432978D01*
X899686Y433026D01*
X899772Y433073D01*
X899838Y433111D01*
X899895Y433149D01*
X899933Y433178D01*
X899952Y433187D01*
X899962Y433197D01*
X900085Y433301D01*
X900199Y433425D01*
X900304Y433548D01*
X900408Y433681D01*
X900570Y433938D01*
X900703Y434194D01*
X900760Y434318D01*
X900798Y434422D01*
X900836Y434526D01*
X900874Y434612D01*
X900893Y434688D01*
X900912Y434735D01*
X900921Y434773D01*
Y434783D01*
X900076Y435001D01*
X900000Y434716D01*
X899895Y434469D01*
X899781Y434260D01*
X899667Y434090D01*
X899563Y433957D01*
X899525Y433909D01*
X899477Y433862D01*
X899449Y433833D01*
X899420Y433805D01*
X899411Y433795D01*
X899401Y433786D01*
X899306Y433710D01*
X899211Y433653D01*
X899002Y433548D01*
X898803Y433482D01*
X898622Y433425D01*
X898451Y433396D01*
X898385Y433387D01*
X898318D01*
X898271Y433377D01*
X898204D01*
X897986Y433387D01*
X897786Y433425D01*
X897596Y433472D01*
X897435Y433529D01*
X897302Y433577D01*
X897197Y433624D01*
X897159Y433643D01*
X897131Y433662D01*
X897121Y433672D01*
X897112D01*
X896941Y433795D01*
X896789Y433947D01*
X896665Y434090D01*
X896561Y434241D01*
X896485Y434375D01*
X896428Y434488D01*
X896409Y434526D01*
X896390Y434555D01*
X896380Y434574D01*
Y434584D01*
X896304Y434821D01*
X896247Y435059D01*
X896200Y435305D01*
X896171Y435524D01*
X896162Y435629D01*
X896152Y435714D01*
Y435799D01*
X896143Y435876D01*
Y435933D01*
Y435970D01*
Y435999D01*
Y436008D01*
X896152Y436246D01*
X896171Y436465D01*
X896209Y436673D01*
X896247Y436863D01*
X896276Y437015D01*
X896295Y437082D01*
X896314Y437129D01*
X896323Y437177D01*
X896333Y437205D01*
X896342Y437224D01*
Y437234D01*
X896428Y437443D01*
X896532Y437633D01*
X896646Y437794D01*
X896760Y437937D01*
X896865Y438041D01*
X896960Y438117D01*
X897017Y438165D01*
X897026Y438184D01*
X897036D01*
X897235Y438307D01*
X897435Y438393D01*
X897644Y438459D01*
X897843Y438497D01*
X898014Y438526D01*
X898081Y438535D01*
X898147D01*
X898195Y438545D01*
X898271D01*
X898499Y438535D01*
X898708Y438497D01*
X898888Y438440D01*
X899040Y438383D01*
X899164Y438326D01*
X899249Y438269D01*
X899306Y438231D01*
X899325Y438222D01*
X899477Y438089D01*
X899610Y437927D01*
X899724Y437756D01*
X899810Y437595D01*
X899886Y437443D01*
X899914Y437376D01*
X899943Y437319D01*
X899962Y437272D01*
X899971Y437234D01*
X899981Y437215D01*
Y437205D01*
X900817Y437405D01*
X900760Y437566D01*
X900703Y437718D01*
X900636Y437861D01*
X900560Y437994D01*
X900484Y438117D01*
X900408Y438222D01*
X900332Y438326D01*
X900256Y438421D01*
X900180Y438497D01*
X900114Y438573D01*
X900057Y438630D01*
X900000Y438687D01*
X899962Y438725D01*
X899924Y438754D01*
X899905Y438763D01*
X899895Y438773D01*
X899772Y438858D01*
X899639Y438934D01*
X899506Y439001D01*
X899373Y439058D01*
X899097Y439143D01*
X898850Y439210D01*
X898727Y439229D01*
X898622Y439238D01*
X898527Y439248D01*
X898442Y439257D01*
X898375Y439267D01*
D02*
G37*
G36*
X906545Y439153D02*
X901482D01*
Y438402D01*
X903591D01*
Y432760D01*
X904436D01*
Y438402D01*
X906545D01*
Y439153D01*
D02*
G37*
G36*
X347456Y410590D02*
X328914D01*
Y384966D01*
X348065D01*
Y387974D01*
X332303D01*
Y396731D01*
X346505D01*
Y399739D01*
X332303D01*
Y407582D01*
X347456D01*
Y410590D01*
D02*
G37*
G36*
X255703Y119559D02*
X254432D01*
Y115605D01*
X249450D01*
Y119559D01*
X248180D01*
Y109952D01*
X249450D01*
Y114478D01*
X254432D01*
Y109952D01*
X255703D01*
Y119559D01*
D02*
G37*
G36*
X272267Y162654D02*
X272153D01*
X272077Y162635D01*
X271887Y162616D01*
X271620Y162559D01*
X271335Y162483D01*
X271030Y162350D01*
X270726Y162159D01*
X270441Y161912D01*
X270403Y161874D01*
X270326Y161779D01*
X270212Y161627D01*
X270079Y161418D01*
X269946Y161151D01*
X269832Y160847D01*
X269756Y160485D01*
X269718Y160086D01*
Y160048D01*
Y159972D01*
X269737Y159838D01*
X269756Y159667D01*
X269794Y159477D01*
X269851Y159268D01*
X269927Y159020D01*
X270022Y158792D01*
X270041Y158773D01*
X270079Y158697D01*
X270155Y158583D01*
X270269Y158431D01*
X270403Y158278D01*
X270555Y158126D01*
X270745Y157955D01*
X270973Y157822D01*
X271011Y157803D01*
X271087Y157765D01*
X271202Y157708D01*
X271373Y157651D01*
X271582Y157593D01*
X271810Y157536D01*
X272058Y157498D01*
X272324Y157479D01*
X272438D01*
X272514Y157498D01*
X272724Y157517D01*
X272990Y157575D01*
X273275Y157651D01*
X273599Y157784D01*
X273903Y157955D01*
X274188Y158202D01*
X274227Y158240D01*
X274303Y158336D01*
X274417Y158488D01*
X274569Y158697D01*
X274702Y158963D01*
X274816Y159287D01*
X274892Y159629D01*
X274930Y160029D01*
Y160048D01*
Y160086D01*
Y160143D01*
X274911Y160219D01*
X274892Y160428D01*
X274835Y160695D01*
X274740Y160999D01*
X274607Y161303D01*
X274417Y161627D01*
X274170Y161912D01*
X274131Y161950D01*
X274036Y162026D01*
X273865Y162140D01*
X273656Y162293D01*
X273370Y162426D01*
X273047Y162540D01*
X272686Y162616D01*
X272267Y162654D01*
D02*
G37*
G36*
X272305Y167943D02*
X272153D01*
X271982Y167905D01*
X271772Y167867D01*
X271544Y167791D01*
X271278Y167696D01*
X271030Y167543D01*
X270802Y167353D01*
X270783Y167334D01*
X270707Y167258D01*
X270631Y167125D01*
X270517Y166973D01*
X270422Y166763D01*
X270326Y166535D01*
X270250Y166269D01*
X270231Y165983D01*
Y165964D01*
Y165945D01*
X270250Y165831D01*
X270269Y165660D01*
X270308Y165451D01*
X270365Y165222D01*
X270479Y164975D01*
X270612Y164728D01*
X270802Y164499D01*
X270821Y164480D01*
X270916Y164404D01*
X271030Y164328D01*
X271202Y164214D01*
X271430Y164119D01*
X271677Y164024D01*
X271982Y163948D01*
X272324Y163929D01*
X272362D01*
X272476Y163948D01*
X272647Y163967D01*
X272857Y164005D01*
X273085Y164062D01*
X273332Y164176D01*
X273580Y164309D01*
X273808Y164499D01*
X273827Y164519D01*
X273903Y164595D01*
X273998Y164728D01*
X274112Y164880D01*
X274207Y165089D01*
X274303Y165317D01*
X274379Y165603D01*
X274398Y165888D01*
Y165907D01*
Y165926D01*
Y166040D01*
X274360Y166193D01*
X274322Y166402D01*
X274246Y166630D01*
X274151Y166877D01*
X273998Y167125D01*
X273789Y167353D01*
X273770Y167372D01*
X273675Y167448D01*
X273561Y167543D01*
X273389Y167658D01*
X273161Y167753D01*
X272914Y167848D01*
X272628Y167924D01*
X272305Y167943D01*
D02*
G37*
G36*
X323130Y163301D02*
X323035D01*
X322959Y163282D01*
X322749Y163263D01*
X322502Y163206D01*
X322217Y163111D01*
X321912Y162978D01*
X321608Y162787D01*
X321323Y162521D01*
X321285Y162483D01*
X321208Y162388D01*
X321094Y162216D01*
X320961Y161988D01*
X320809Y161703D01*
X320695Y161360D01*
X320619Y160980D01*
X320581Y160542D01*
Y160504D01*
Y160409D01*
X320600Y160238D01*
X320619Y160048D01*
X320657Y159800D01*
X320733Y159534D01*
X320809Y159268D01*
X320923Y158982D01*
X320942Y158944D01*
X320980Y158868D01*
X321056Y158735D01*
X321171Y158564D01*
X321304Y158373D01*
X321475Y158202D01*
X321665Y158012D01*
X321874Y157860D01*
X321912Y157841D01*
X321988Y157803D01*
X322103Y157746D01*
X322274Y157670D01*
X322464Y157593D01*
X322692Y157536D01*
X322940Y157498D01*
X323187Y157479D01*
X323282D01*
X323358Y157498D01*
X323549Y157517D01*
X323777Y157575D01*
X324043Y157670D01*
X324329Y157822D01*
X324633Y158012D01*
X324899Y158278D01*
X324937Y158316D01*
X325013Y158431D01*
X325128Y158602D01*
X325261Y158849D01*
X325394Y159153D01*
X325508Y159534D01*
X325584Y159953D01*
X325622Y160447D01*
Y160466D01*
Y160504D01*
Y160580D01*
X325603Y160657D01*
Y160771D01*
X325584Y160904D01*
X325527Y161208D01*
X325451Y161532D01*
X325318Y161874D01*
X325147Y162216D01*
X324918Y162521D01*
X324880Y162559D01*
X324785Y162635D01*
X324633Y162768D01*
X324424Y162920D01*
X324176Y163054D01*
X323872Y163187D01*
X323511Y163263D01*
X323130Y163301D01*
D02*
G37*
G36*
X242741Y119731D02*
X242598D01*
X242127Y119702D01*
X241699Y119645D01*
X241299Y119545D01*
X241128Y119488D01*
X240957Y119445D01*
X240814Y119388D01*
X240671Y119331D01*
X240557Y119288D01*
X240457Y119231D01*
X240372Y119202D01*
X240315Y119174D01*
X240286Y119145D01*
X240272D01*
X239900Y118903D01*
X239572Y118631D01*
X239287Y118346D01*
X239058Y118075D01*
X238887Y117832D01*
X238816Y117718D01*
X238744Y117632D01*
X238701Y117547D01*
X238673Y117490D01*
X238644Y117461D01*
Y117447D01*
X238459Y117018D01*
X238316Y116576D01*
X238216Y116133D01*
X238145Y115719D01*
X238116Y115534D01*
X238102Y115363D01*
X238088Y115220D01*
Y115091D01*
X238073Y114977D01*
Y114906D01*
Y114849D01*
Y114834D01*
X238102Y114320D01*
X238159Y113849D01*
X238230Y113407D01*
X238273Y113207D01*
X238330Y113021D01*
X238373Y112850D01*
X238416Y112708D01*
X238459Y112565D01*
X238502Y112465D01*
X238530Y112365D01*
X238559Y112308D01*
X238573Y112265D01*
Y112251D01*
X238787Y111823D01*
X239015Y111466D01*
X239272Y111152D01*
X239515Y110895D01*
X239729Y110681D01*
X239815Y110609D01*
X239900Y110538D01*
X239972Y110495D01*
X240015Y110452D01*
X240043Y110438D01*
X240058Y110423D01*
X240243Y110309D01*
X240443Y110224D01*
X240857Y110067D01*
X241285Y109952D01*
X241685Y109881D01*
X241870Y109853D01*
X242042Y109824D01*
X242199Y109810D01*
X242327D01*
X242441Y109795D01*
X242584D01*
X242855Y109810D01*
X243127Y109824D01*
X243369Y109867D01*
X243612Y109924D01*
X243840Y109981D01*
X244040Y110052D01*
X244240Y110124D01*
X244411Y110209D01*
X244583Y110281D01*
X244711Y110352D01*
X244840Y110423D01*
X244939Y110481D01*
X245025Y110538D01*
X245082Y110581D01*
X245111Y110595D01*
X245125Y110609D01*
X245311Y110766D01*
X245482Y110952D01*
X245639Y111137D01*
X245796Y111337D01*
X246039Y111722D01*
X246238Y112108D01*
X246324Y112294D01*
X246381Y112451D01*
X246438Y112608D01*
X246495Y112736D01*
X246524Y112850D01*
X246553Y112922D01*
X246567Y112979D01*
Y112993D01*
X245296Y113321D01*
X245182Y112893D01*
X245025Y112522D01*
X244854Y112208D01*
X244683Y111951D01*
X244526Y111751D01*
X244468Y111680D01*
X244397Y111608D01*
X244354Y111566D01*
X244311Y111523D01*
X244297Y111508D01*
X244283Y111494D01*
X244140Y111380D01*
X243997Y111294D01*
X243683Y111137D01*
X243384Y111037D01*
X243112Y110952D01*
X242855Y110909D01*
X242755Y110895D01*
X242656D01*
X242584Y110880D01*
X242484D01*
X242156Y110895D01*
X241856Y110952D01*
X241571Y111023D01*
X241328Y111109D01*
X241128Y111180D01*
X240971Y111251D01*
X240914Y111280D01*
X240871Y111309D01*
X240857Y111323D01*
X240843D01*
X240586Y111508D01*
X240357Y111737D01*
X240172Y111951D01*
X240015Y112179D01*
X239900Y112379D01*
X239815Y112550D01*
X239786Y112608D01*
X239758Y112650D01*
X239743Y112679D01*
Y112693D01*
X239629Y113050D01*
X239544Y113407D01*
X239472Y113778D01*
X239429Y114106D01*
X239415Y114263D01*
X239401Y114392D01*
Y114520D01*
X239387Y114635D01*
Y114720D01*
Y114777D01*
Y114820D01*
Y114834D01*
X239401Y115191D01*
X239429Y115520D01*
X239487Y115834D01*
X239544Y116119D01*
X239586Y116348D01*
X239615Y116447D01*
X239643Y116519D01*
X239658Y116590D01*
X239672Y116633D01*
X239686Y116662D01*
Y116676D01*
X239815Y116990D01*
X239972Y117275D01*
X240143Y117518D01*
X240315Y117732D01*
X240471Y117889D01*
X240614Y118003D01*
X240700Y118075D01*
X240714Y118103D01*
X240728D01*
X241028Y118289D01*
X241328Y118417D01*
X241642Y118517D01*
X241942Y118574D01*
X242199Y118617D01*
X242299Y118631D01*
X242399D01*
X242470Y118646D01*
X242584D01*
X242927Y118631D01*
X243241Y118574D01*
X243512Y118489D01*
X243740Y118403D01*
X243926Y118317D01*
X244055Y118232D01*
X244140Y118175D01*
X244169Y118160D01*
X244397Y117961D01*
X244597Y117718D01*
X244768Y117461D01*
X244897Y117218D01*
X245011Y116990D01*
X245054Y116890D01*
X245096Y116804D01*
X245125Y116733D01*
X245139Y116676D01*
X245154Y116647D01*
Y116633D01*
X246410Y116933D01*
X246324Y117176D01*
X246238Y117404D01*
X246139Y117618D01*
X246024Y117818D01*
X245910Y118003D01*
X245796Y118160D01*
X245682Y118317D01*
X245568Y118460D01*
X245453Y118574D01*
X245354Y118689D01*
X245268Y118774D01*
X245182Y118860D01*
X245125Y118917D01*
X245068Y118960D01*
X245039Y118974D01*
X245025Y118988D01*
X244840Y119117D01*
X244640Y119231D01*
X244440Y119331D01*
X244240Y119417D01*
X243826Y119545D01*
X243455Y119645D01*
X243269Y119674D01*
X243112Y119688D01*
X242970Y119702D01*
X242841Y119716D01*
X242741Y119731D01*
D02*
G37*
G36*
X374821Y166545D02*
X370787Y160818D01*
X374821D01*
Y166545D01*
D02*
G37*
G36*
X664836Y1095929D02*
X661863D01*
Y1089536D01*
X662709D01*
Y1092376D01*
X663801D01*
X663896Y1092366D01*
X663972D01*
X664038Y1092357D01*
X664086Y1092347D01*
X664124D01*
X664143Y1092338D01*
X664153D01*
X664295Y1092290D01*
X664418Y1092233D01*
X664475Y1092205D01*
X664513Y1092186D01*
X664532Y1092176D01*
X664542Y1092167D01*
X664618Y1092110D01*
X664694Y1092053D01*
X664827Y1091910D01*
X664884Y1091844D01*
X664931Y1091787D01*
X664960Y1091749D01*
X664969Y1091739D01*
X665064Y1091616D01*
X665169Y1091473D01*
X665273Y1091331D01*
X665368Y1091188D01*
X665454Y1091056D01*
X665520Y1090951D01*
X665549Y1090913D01*
X665568Y1090884D01*
X665587Y1090865D01*
Y1090856D01*
X666432Y1089536D01*
X667487D01*
X666375Y1091274D01*
X666252Y1091454D01*
X666128Y1091616D01*
X666014Y1091758D01*
X665910Y1091882D01*
X665815Y1091986D01*
X665748Y1092062D01*
X665701Y1092100D01*
X665682Y1092119D01*
X665606Y1092176D01*
X665530Y1092243D01*
X665359Y1092338D01*
X665283Y1092385D01*
X665226Y1092414D01*
X665188Y1092433D01*
X665169Y1092442D01*
X665340Y1092471D01*
X665492Y1092499D01*
X665634Y1092547D01*
X665767Y1092585D01*
X665891Y1092632D01*
X666005Y1092680D01*
X666100Y1092737D01*
X666195Y1092784D01*
X666271Y1092832D01*
X666337Y1092879D01*
X666394Y1092917D01*
X666442Y1092955D01*
X666480Y1092984D01*
X666508Y1093012D01*
X666518Y1093022D01*
X666527Y1093031D01*
X666603Y1093117D01*
X666679Y1093212D01*
X666784Y1093411D01*
X666869Y1093601D01*
X666917Y1093782D01*
X666955Y1093943D01*
X666964Y1094010D01*
Y1094067D01*
X666974Y1094114D01*
Y1094152D01*
Y1094171D01*
Y1094181D01*
X666964Y1094371D01*
X666936Y1094551D01*
X666888Y1094713D01*
X666841Y1094855D01*
X666784Y1094979D01*
X666746Y1095064D01*
X666708Y1095121D01*
X666698Y1095140D01*
X666594Y1095292D01*
X666480Y1095416D01*
X666356Y1095520D01*
X666242Y1095606D01*
X666138Y1095672D01*
X666062Y1095720D01*
X666005Y1095739D01*
X665995Y1095748D01*
X665986D01*
X665900Y1095777D01*
X665805Y1095805D01*
X665596Y1095853D01*
X665387Y1095881D01*
X665178Y1095910D01*
X664988Y1095919D01*
X664903D01*
X664836Y1095929D01*
D02*
G37*
G36*
X661065D02*
X660210D01*
X659213Y1091815D01*
X659146Y1091530D01*
X659080Y1091264D01*
X659023Y1091027D01*
X658975Y1090827D01*
X658956Y1090742D01*
X658937Y1090657D01*
X658928Y1090590D01*
X658909Y1090533D01*
X658899Y1090486D01*
Y1090457D01*
X658890Y1090438D01*
Y1090428D01*
X658823Y1090827D01*
X658747Y1091226D01*
X658662Y1091606D01*
X658614Y1091787D01*
X658576Y1091958D01*
X658538Y1092110D01*
X658500Y1092252D01*
X658472Y1092376D01*
X658443Y1092480D01*
X658415Y1092575D01*
X658405Y1092632D01*
X658386Y1092680D01*
Y1092689D01*
X657474Y1095929D01*
X656458D01*
X655242Y1091606D01*
X655232Y1091568D01*
X655213Y1091511D01*
X655194Y1091435D01*
X655175Y1091350D01*
X655128Y1091160D01*
X655080Y1090960D01*
X655033Y1090761D01*
X655004Y1090666D01*
X654985Y1090590D01*
X654966Y1090524D01*
X654957Y1090476D01*
X654947Y1090438D01*
Y1090428D01*
X654900Y1090666D01*
X654852Y1090903D01*
X654814Y1091122D01*
X654767Y1091321D01*
X654748Y1091407D01*
X654729Y1091492D01*
X654710Y1091559D01*
X654700Y1091616D01*
X654691Y1091663D01*
X654681Y1091701D01*
X654672Y1091720D01*
Y1091730D01*
X653712Y1095929D01*
X652838D01*
X654520Y1089536D01*
X655403D01*
X656743Y1094399D01*
X656781Y1094523D01*
X656809Y1094646D01*
X656847Y1094779D01*
X656876Y1094893D01*
X656904Y1094998D01*
X656923Y1095074D01*
X656933Y1095131D01*
X656942Y1095150D01*
X656952Y1095121D01*
X656961Y1095083D01*
X656990Y1094979D01*
X657028Y1094855D01*
X657066Y1094722D01*
X657094Y1094599D01*
X657123Y1094494D01*
X657132Y1094456D01*
X657142Y1094428D01*
X657151Y1094409D01*
Y1094399D01*
X658491Y1089536D01*
X659308D01*
X661065Y1095929D01*
D02*
G37*
G36*
X460804Y410590D02*
X442262D01*
Y384966D01*
X461414D01*
Y387974D01*
X445651D01*
Y396731D01*
X459852D01*
Y399739D01*
X445651D01*
Y407582D01*
X460804D01*
Y410590D01*
D02*
G37*
G36*
X501925D02*
X490008D01*
Y384966D01*
X493396D01*
Y396350D01*
X497775D01*
X498156Y396312D01*
X498460D01*
X498727Y396274D01*
X498917Y396236D01*
X499069D01*
X499146Y396198D01*
X499184D01*
X499755Y396008D01*
X500250Y395779D01*
X500478Y395665D01*
X500630Y395589D01*
X500707Y395551D01*
X500745Y395513D01*
X501049Y395284D01*
X501354Y395056D01*
X501887Y394485D01*
X502115Y394218D01*
X502306Y393990D01*
X502420Y393837D01*
X502458Y393799D01*
X502839Y393304D01*
X503258Y392733D01*
X503676Y392162D01*
X504057Y391591D01*
X504400Y391058D01*
X504666Y390639D01*
X504781Y390487D01*
X504857Y390373D01*
X504933Y390297D01*
Y390258D01*
X508321Y384966D01*
X512548D01*
X508093Y391934D01*
X507598Y392657D01*
X507103Y393304D01*
X506646Y393876D01*
X506227Y394370D01*
X505847Y394789D01*
X505580Y395094D01*
X505390Y395246D01*
X505314Y395322D01*
X505009Y395551D01*
X504704Y395817D01*
X504019Y396198D01*
X503714Y396388D01*
X503486Y396503D01*
X503334Y396579D01*
X503258Y396617D01*
X503943Y396731D01*
X504552Y396845D01*
X505123Y397036D01*
X505656Y397188D01*
X506151Y397378D01*
X506608Y397569D01*
X506989Y397797D01*
X507370Y397988D01*
X507674Y398178D01*
X507941Y398368D01*
X508169Y398521D01*
X508360Y398673D01*
X508512Y398787D01*
X508626Y398901D01*
X508664Y398939D01*
X508702Y398978D01*
X509007Y399320D01*
X509311Y399701D01*
X509730Y400500D01*
X510073Y401262D01*
X510263Y401985D01*
X510416Y402633D01*
X510454Y402899D01*
Y403128D01*
X510492Y403318D01*
Y403470D01*
Y403546D01*
Y403585D01*
X510454Y404346D01*
X510340Y405069D01*
X510149Y405717D01*
X509959Y406288D01*
X509730Y406783D01*
X509578Y407125D01*
X509426Y407354D01*
X509388Y407430D01*
X508969Y408039D01*
X508512Y408534D01*
X508017Y408953D01*
X507560Y409296D01*
X507141Y409562D01*
X506837Y409753D01*
X506608Y409829D01*
X506570Y409867D01*
X506532D01*
X506189Y409981D01*
X505809Y410095D01*
X504971Y410286D01*
X504133Y410400D01*
X503296Y410514D01*
X502534Y410552D01*
X502192D01*
X501925Y410590D01*
D02*
G37*
G36*
X484677D02*
X466135D01*
Y384966D01*
X485286D01*
Y387974D01*
X469524D01*
Y396731D01*
X483725D01*
Y399739D01*
X469524D01*
Y407582D01*
X484677D01*
Y410590D01*
D02*
G37*
G36*
X650093Y1095929D02*
X647471D01*
Y1089536D01*
X648317D01*
Y1092138D01*
X649951D01*
X650198Y1092148D01*
X650416Y1092167D01*
X650625Y1092186D01*
X650815Y1092224D01*
X650986Y1092271D01*
X651138Y1092319D01*
X651271Y1092366D01*
X651395Y1092423D01*
X651499Y1092471D01*
X651584Y1092518D01*
X651661Y1092566D01*
X651718Y1092613D01*
X651765Y1092651D01*
X651794Y1092670D01*
X651813Y1092689D01*
X651822Y1092699D01*
X651917Y1092803D01*
X651993Y1092917D01*
X652069Y1093031D01*
X652126Y1093155D01*
X652221Y1093383D01*
X652278Y1093601D01*
X652297Y1093696D01*
X652316Y1093791D01*
X652326Y1093867D01*
X652335Y1093943D01*
X652345Y1094000D01*
Y1094038D01*
Y1094067D01*
Y1094076D01*
X652335Y1094247D01*
X652316Y1094418D01*
X652278Y1094561D01*
X652250Y1094694D01*
X652212Y1094798D01*
X652173Y1094884D01*
X652154Y1094931D01*
X652145Y1094950D01*
X652069Y1095093D01*
X651983Y1095216D01*
X651898Y1095321D01*
X651822Y1095406D01*
X651746Y1095482D01*
X651689Y1095530D01*
X651651Y1095558D01*
X651632Y1095568D01*
X651508Y1095644D01*
X651376Y1095710D01*
X651243Y1095758D01*
X651119Y1095796D01*
X651014Y1095824D01*
X650919Y1095843D01*
X650863Y1095862D01*
X650844D01*
X650711Y1095881D01*
X650549Y1095900D01*
X650387Y1095910D01*
X650236Y1095919D01*
X650093Y1095929D01*
D02*
G37*
G36*
X882786Y439153D02*
X878160D01*
Y432760D01*
X882938D01*
Y433510D01*
X879006D01*
Y435695D01*
X882549D01*
Y436446D01*
X879006D01*
Y438402D01*
X882786D01*
Y439153D01*
D02*
G37*
G36*
X888686D02*
X883622D01*
Y438402D01*
X885731D01*
Y432760D01*
X886577D01*
Y438402D01*
X888686D01*
Y439153D01*
D02*
G37*
G36*
X894195D02*
X889569D01*
Y432760D01*
X894348D01*
Y433510D01*
X890415D01*
Y435695D01*
X893958D01*
Y436446D01*
X890415D01*
Y438402D01*
X894195D01*
Y439153D01*
D02*
G37*
G36*
X410394Y410590D02*
X407005D01*
Y384966D01*
X410394D01*
Y410590D01*
D02*
G37*
G36*
X874151Y439153D02*
X871700D01*
Y432760D01*
X873999D01*
X874208Y432769D01*
X874408Y432779D01*
X874579Y432798D01*
X874731Y432817D01*
X874854Y432836D01*
X874949Y432845D01*
X874978Y432855D01*
X875006Y432864D01*
X875025D01*
X875187Y432912D01*
X875329Y432959D01*
X875462Y433007D01*
X875576Y433064D01*
X875662Y433102D01*
X875728Y433140D01*
X875776Y433168D01*
X875785Y433178D01*
X875899Y433263D01*
X876013Y433358D01*
X876118Y433463D01*
X876203Y433558D01*
X876270Y433634D01*
X876327Y433710D01*
X876365Y433748D01*
X876374Y433767D01*
X876469Y433909D01*
X876555Y434071D01*
X876631Y434223D01*
X876697Y434375D01*
X876745Y434498D01*
X876783Y434603D01*
X876792Y434641D01*
X876802Y434669D01*
X876811Y434688D01*
Y434697D01*
X876868Y434916D01*
X876906Y435135D01*
X876944Y435353D01*
X876963Y435552D01*
X876973Y435733D01*
Y435799D01*
X876982Y435866D01*
Y435923D01*
Y435961D01*
Y435980D01*
Y435989D01*
X876973Y436303D01*
X876944Y436588D01*
X876897Y436844D01*
X876878Y436958D01*
X876859Y437072D01*
X876830Y437167D01*
X876811Y437253D01*
X876783Y437329D01*
X876764Y437395D01*
X876754Y437443D01*
X876735Y437481D01*
X876726Y437500D01*
Y437509D01*
X876621Y437747D01*
X876507Y437965D01*
X876384Y438146D01*
X876260Y438307D01*
X876146Y438431D01*
X876061Y438526D01*
X876023Y438554D01*
X875994Y438583D01*
X875985Y438602D01*
X875975D01*
X875823Y438716D01*
X875662Y438811D01*
X875510Y438896D01*
X875358Y438953D01*
X875234Y439001D01*
X875130Y439029D01*
X875092Y439048D01*
X875063D01*
X875044Y439058D01*
X875035D01*
X874873Y439086D01*
X874693Y439115D01*
X874503Y439134D01*
X874322Y439143D01*
X874151Y439153D01*
D02*
G37*
%LPD*%
G36*
X502496Y407735D02*
X503334Y407582D01*
X504057Y407392D01*
X504628Y407202D01*
X505085Y406973D01*
X505390Y406783D01*
X505580Y406631D01*
X505656Y406592D01*
X506113Y406135D01*
X506418Y405640D01*
X506646Y405107D01*
X506837Y404651D01*
X506913Y404232D01*
X506951Y403889D01*
X506989Y403661D01*
Y403623D01*
Y403585D01*
X506951Y403128D01*
X506875Y402709D01*
X506760Y402290D01*
X506646Y401947D01*
X506532Y401681D01*
X506418Y401452D01*
X506342Y401300D01*
X506304Y401262D01*
X506037Y400919D01*
X505694Y400577D01*
X505352Y400348D01*
X505047Y400120D01*
X504743Y399967D01*
X504514Y399815D01*
X504362Y399777D01*
X504286Y399739D01*
X503753Y399587D01*
X503181Y399472D01*
X502572Y399396D01*
X502001Y399358D01*
X501468Y399320D01*
X501049Y399282D01*
X493396D01*
Y407773D01*
X501506D01*
X502496Y407735D01*
D02*
G37*
G36*
X650312Y1095169D02*
X650444Y1095159D01*
X650549Y1095150D01*
X650635Y1095140D01*
X650692Y1095131D01*
X650720Y1095121D01*
X650730D01*
X650844Y1095074D01*
X650957Y1095026D01*
X651043Y1094960D01*
X651119Y1094893D01*
X651186Y1094836D01*
X651224Y1094789D01*
X651252Y1094751D01*
X651262Y1094741D01*
X651328Y1094627D01*
X651385Y1094513D01*
X651423Y1094399D01*
X651442Y1094285D01*
X651461Y1094190D01*
X651470Y1094114D01*
Y1094067D01*
Y1094057D01*
Y1094048D01*
X651451Y1093858D01*
X651413Y1093687D01*
X651357Y1093535D01*
X651300Y1093411D01*
X651233Y1093316D01*
X651176Y1093250D01*
X651138Y1093212D01*
X651119Y1093193D01*
X651052Y1093136D01*
X650967Y1093088D01*
X650796Y1093022D01*
X650606Y1092965D01*
X650416Y1092927D01*
X650236Y1092908D01*
X650160Y1092898D01*
X650093D01*
X650036Y1092889D01*
X648317D01*
Y1095178D01*
X650141D01*
X650312Y1095169D01*
D02*
G37*
G36*
X614224Y226658D02*
X614433Y226619D01*
X614614Y226572D01*
X614756Y226525D01*
X614870Y226467D01*
X614946Y226420D01*
X614994Y226382D01*
X615013Y226373D01*
X615126Y226259D01*
X615202Y226135D01*
X615260Y226002D01*
X615307Y225888D01*
X615326Y225784D01*
X615336Y225698D01*
X615345Y225641D01*
Y225632D01*
Y225622D01*
X615336Y225508D01*
X615317Y225404D01*
X615288Y225299D01*
X615260Y225214D01*
X615231Y225147D01*
X615202Y225090D01*
X615183Y225052D01*
X615174Y225043D01*
X615107Y224957D01*
X615022Y224872D01*
X614936Y224815D01*
X614860Y224758D01*
X614785Y224720D01*
X614728Y224682D01*
X614690Y224672D01*
X614671Y224663D01*
X614538Y224625D01*
X614395Y224596D01*
X614243Y224577D01*
X614101Y224568D01*
X613968Y224558D01*
X613863Y224549D01*
X611954D01*
Y226667D01*
X613977D01*
X614224Y226658D01*
D02*
G37*
G36*
X607774D02*
X607983Y226619D01*
X608163Y226572D01*
X608306Y226525D01*
X608420Y226467D01*
X608496Y226420D01*
X608543Y226382D01*
X608562Y226373D01*
X608676Y226259D01*
X608752Y226135D01*
X608809Y226002D01*
X608857Y225888D01*
X608876Y225784D01*
X608885Y225698D01*
X608895Y225641D01*
Y225632D01*
Y225622D01*
X608885Y225508D01*
X608866Y225404D01*
X608838Y225299D01*
X608809Y225214D01*
X608781Y225147D01*
X608752Y225090D01*
X608733Y225052D01*
X608724Y225043D01*
X608657Y224957D01*
X608572Y224872D01*
X608486Y224815D01*
X608410Y224758D01*
X608334Y224720D01*
X608277Y224682D01*
X608239Y224672D01*
X608220Y224663D01*
X608087Y224625D01*
X607945Y224596D01*
X607793Y224577D01*
X607650Y224568D01*
X607517Y224558D01*
X607413Y224549D01*
X605503D01*
Y226667D01*
X607527D01*
X607774Y226658D01*
D02*
G37*
G36*
X892053Y446327D02*
X892272Y446317D01*
X892462Y446298D01*
X892614Y446270D01*
X892728Y446241D01*
X892813Y446222D01*
X892861Y446213D01*
X892880Y446203D01*
X893051Y446118D01*
X893203Y446013D01*
X893336Y445890D01*
X893450Y445766D01*
X893545Y445653D01*
X893621Y445558D01*
X893640Y445519D01*
X893659Y445500D01*
X893678Y445481D01*
Y445472D01*
X893735Y445368D01*
X893792Y445253D01*
X893868Y445006D01*
X893925Y444750D01*
X893972Y444503D01*
X893982Y444389D01*
X893991Y444285D01*
X894001Y444180D01*
Y444095D01*
X894010Y444028D01*
Y443980D01*
Y443942D01*
Y443933D01*
X894001Y443677D01*
X893982Y443439D01*
X893953Y443230D01*
X893925Y443050D01*
X893896Y442898D01*
X893877Y442841D01*
X893868Y442793D01*
X893858Y442755D01*
X893849Y442727D01*
X893839Y442708D01*
Y442698D01*
X893773Y442518D01*
X893697Y442356D01*
X893621Y442223D01*
X893545Y442109D01*
X893478Y442014D01*
X893421Y441948D01*
X893383Y441910D01*
X893374Y441891D01*
X893288Y441815D01*
X893193Y441748D01*
X893098Y441691D01*
X893003Y441644D01*
X892918Y441606D01*
X892851Y441577D01*
X892813Y441568D01*
X892794Y441558D01*
X892652Y441520D01*
X892490Y441492D01*
X892319Y441473D01*
X892167Y441463D01*
X892025Y441454D01*
X891911Y441444D01*
X890448D01*
Y446336D01*
X891920D01*
X892053Y446327D01*
D02*
G37*
G36*
X874151Y438393D02*
X874370Y438383D01*
X874560Y438364D01*
X874712Y438336D01*
X874826Y438307D01*
X874911Y438288D01*
X874959Y438279D01*
X874978Y438269D01*
X875149Y438184D01*
X875301Y438079D01*
X875434Y437956D01*
X875548Y437832D01*
X875643Y437718D01*
X875719Y437623D01*
X875738Y437585D01*
X875757Y437566D01*
X875776Y437547D01*
Y437538D01*
X875833Y437433D01*
X875890Y437319D01*
X875966Y437072D01*
X876023Y436816D01*
X876070Y436569D01*
X876080Y436455D01*
X876089Y436351D01*
X876099Y436246D01*
Y436161D01*
X876108Y436094D01*
Y436046D01*
Y436008D01*
Y435999D01*
X876099Y435742D01*
X876080Y435505D01*
X876051Y435296D01*
X876023Y435116D01*
X875994Y434963D01*
X875975Y434907D01*
X875966Y434859D01*
X875956Y434821D01*
X875947Y434793D01*
X875937Y434773D01*
Y434764D01*
X875871Y434584D01*
X875795Y434422D01*
X875719Y434289D01*
X875643Y434175D01*
X875576Y434080D01*
X875519Y434014D01*
X875481Y433976D01*
X875472Y433957D01*
X875386Y433881D01*
X875291Y433814D01*
X875196Y433757D01*
X875101Y433710D01*
X875016Y433672D01*
X874949Y433643D01*
X874911Y433634D01*
X874892Y433624D01*
X874750Y433586D01*
X874588Y433558D01*
X874417Y433539D01*
X874265Y433529D01*
X874123Y433520D01*
X874009Y433510D01*
X872546D01*
Y438402D01*
X874018D01*
X874151Y438393D01*
D02*
G37*
G36*
X664979Y1095216D02*
X665188Y1095178D01*
X665368Y1095131D01*
X665511Y1095083D01*
X665625Y1095026D01*
X665701Y1094979D01*
X665748Y1094941D01*
X665767Y1094931D01*
X665881Y1094817D01*
X665957Y1094694D01*
X666014Y1094561D01*
X666062Y1094447D01*
X666081Y1094342D01*
X666090Y1094257D01*
X666100Y1094200D01*
Y1094190D01*
Y1094181D01*
X666090Y1094067D01*
X666071Y1093962D01*
X666043Y1093858D01*
X666014Y1093772D01*
X665986Y1093706D01*
X665957Y1093649D01*
X665938Y1093611D01*
X665929Y1093601D01*
X665862Y1093516D01*
X665777Y1093430D01*
X665691Y1093373D01*
X665615Y1093316D01*
X665539Y1093278D01*
X665482Y1093240D01*
X665444Y1093231D01*
X665425Y1093221D01*
X665292Y1093183D01*
X665150Y1093155D01*
X664998Y1093136D01*
X664855Y1093126D01*
X664722Y1093117D01*
X664618Y1093107D01*
X662709D01*
Y1095226D01*
X664732D01*
X664979Y1095216D01*
D02*
G37*
G36*
X555126Y226491D02*
X555193Y226263D01*
X555269Y226045D01*
X555345Y225836D01*
X555411Y225646D01*
X555440Y225560D01*
X555468Y225494D01*
X555487Y225437D01*
X555506Y225399D01*
X555516Y225370D01*
Y225361D01*
X556181Y223603D01*
X554015D01*
X554708Y225475D01*
X554794Y225703D01*
X554860Y225921D01*
X554917Y226130D01*
X554974Y226311D01*
X555012Y226472D01*
X555022Y226539D01*
X555041Y226596D01*
X555050Y226643D01*
Y226672D01*
X555060Y226691D01*
Y226700D01*
X555126Y226491D01*
D02*
G37*
G36*
X441044Y439489D02*
X441881Y439337D01*
X442605Y439146D01*
X443176Y438956D01*
X443633Y438727D01*
X443937Y438537D01*
X444128Y438385D01*
X444204Y438347D01*
X444661Y437890D01*
X444965Y437395D01*
X445194Y436862D01*
X445384Y436405D01*
X445460Y435986D01*
X445498Y435643D01*
X445536Y435415D01*
Y435377D01*
Y435339D01*
X445498Y434882D01*
X445422Y434463D01*
X445308Y434044D01*
X445194Y433702D01*
X445080Y433435D01*
X444965Y433206D01*
X444889Y433054D01*
X444851Y433016D01*
X444585Y432673D01*
X444242Y432331D01*
X443899Y432102D01*
X443595Y431874D01*
X443290Y431722D01*
X443062Y431569D01*
X442909Y431531D01*
X442833Y431493D01*
X442300Y431341D01*
X441729Y431227D01*
X441120Y431151D01*
X440549Y431112D01*
X440016Y431074D01*
X439597Y431036D01*
X431944D01*
Y439527D01*
X440054D01*
X441044Y439489D01*
D02*
G37*
G36*
X388615Y439299D02*
X389491Y439260D01*
X390252Y439184D01*
X390861Y439070D01*
X391318Y438956D01*
X391661Y438880D01*
X391851Y438842D01*
X391927Y438803D01*
X392613Y438461D01*
X393222Y438042D01*
X393755Y437547D01*
X394212Y437052D01*
X394593Y436595D01*
X394897Y436214D01*
X394973Y436062D01*
X395050Y435986D01*
X395126Y435910D01*
Y435872D01*
X395354Y435453D01*
X395583Y434996D01*
X395887Y434006D01*
X396116Y432978D01*
X396306Y431988D01*
X396344Y431531D01*
X396382Y431112D01*
X396420Y430694D01*
Y430351D01*
X396458Y430084D01*
Y429894D01*
Y429742D01*
Y429704D01*
X396420Y428676D01*
X396344Y427724D01*
X396230Y426886D01*
X396116Y426163D01*
X396001Y425554D01*
X395925Y425325D01*
X395887Y425135D01*
X395849Y424982D01*
X395811Y424868D01*
X395773Y424792D01*
Y424754D01*
X395507Y424030D01*
X395202Y423383D01*
X394897Y422850D01*
X394593Y422393D01*
X394326Y422013D01*
X394098Y421746D01*
X393945Y421594D01*
X393907Y421518D01*
X393565Y421213D01*
X393184Y420947D01*
X392803Y420718D01*
X392422Y420528D01*
X392080Y420375D01*
X391813Y420261D01*
X391661Y420223D01*
X391585Y420185D01*
X391014Y420033D01*
X390366Y419919D01*
X389681Y419842D01*
X389072Y419804D01*
X388501Y419766D01*
X388044Y419728D01*
X382180D01*
Y439337D01*
X388082D01*
X388615Y439299D01*
D02*
G37*
G36*
X339803Y428485D02*
X340451Y428409D01*
X340984Y428333D01*
X341403Y428257D01*
X341707Y428181D01*
X341859Y428143D01*
X341936Y428105D01*
X342392Y427914D01*
X342811Y427686D01*
X343154Y427457D01*
X343459Y427191D01*
X343687Y426962D01*
X343839Y426810D01*
X343954Y426658D01*
X343992Y426620D01*
X344258Y426201D01*
X344448Y425782D01*
X344563Y425363D01*
X344677Y424982D01*
X344715Y424640D01*
X344753Y424373D01*
Y424221D01*
Y424145D01*
X344715Y423688D01*
X344677Y423269D01*
X344601Y422888D01*
X344487Y422584D01*
X344372Y422317D01*
X344296Y422089D01*
X344258Y421974D01*
X344220Y421936D01*
X344030Y421632D01*
X343801Y421327D01*
X343611Y421099D01*
X343382Y420908D01*
X343192Y420718D01*
X343078Y420604D01*
X342963Y420566D01*
X342925Y420528D01*
X342621Y420375D01*
X342316Y420223D01*
X341669Y419995D01*
X341403Y419919D01*
X341174Y419880D01*
X341022Y419842D01*
X340984D01*
X340679Y419804D01*
X340336Y419766D01*
X339575Y419728D01*
X332303D01*
Y428561D01*
X339080D01*
X339803Y428485D01*
D02*
G37*
G36*
X903231Y792956D02*
X903440Y792918D01*
X903620Y792871D01*
X903763Y792823D01*
X903877Y792766D01*
X903953Y792719D01*
X904000Y792681D01*
X904019Y792671D01*
X904133Y792557D01*
X904209Y792434D01*
X904266Y792301D01*
X904314Y792187D01*
X904333Y792082D01*
X904342Y791997D01*
X904352Y791940D01*
Y791930D01*
Y791921D01*
X904342Y791807D01*
X904323Y791702D01*
X904295Y791598D01*
X904266Y791512D01*
X904238Y791446D01*
X904209Y791389D01*
X904190Y791351D01*
X904181Y791341D01*
X904114Y791256D01*
X904029Y791170D01*
X903943Y791113D01*
X903867Y791056D01*
X903791Y791018D01*
X903734Y790980D01*
X903696Y790971D01*
X903677Y790961D01*
X903544Y790923D01*
X903402Y790895D01*
X903250Y790876D01*
X903107Y790866D01*
X902974Y790857D01*
X902870Y790847D01*
X900960D01*
Y792966D01*
X902984D01*
X903231Y792956D01*
D02*
G37*
G36*
X888564Y792909D02*
X888697Y792899D01*
X888801Y792890D01*
X888886Y792880D01*
X888943Y792871D01*
X888972Y792861D01*
X888981D01*
X889096Y792814D01*
X889210Y792766D01*
X889295Y792700D01*
X889371Y792633D01*
X889437Y792576D01*
X889475Y792529D01*
X889504Y792491D01*
X889513Y792481D01*
X889580Y792367D01*
X889637Y792253D01*
X889675Y792139D01*
X889694Y792025D01*
X889713Y791930D01*
X889723Y791854D01*
Y791807D01*
Y791797D01*
Y791788D01*
X889704Y791598D01*
X889666Y791427D01*
X889609Y791275D01*
X889551Y791151D01*
X889485Y791056D01*
X889428Y790990D01*
X889390Y790952D01*
X889371Y790933D01*
X889305Y790876D01*
X889219Y790828D01*
X889048Y790762D01*
X888858Y790705D01*
X888668Y790667D01*
X888488Y790648D01*
X888412Y790638D01*
X888345D01*
X888288Y790629D01*
X886569D01*
Y792918D01*
X888393D01*
X888564Y792909D01*
D02*
G37*
G36*
X339156Y439260D02*
X339841Y439222D01*
X340374Y439146D01*
X340755Y439070D01*
X341022Y439032D01*
X341212Y438956D01*
X341250D01*
X341669Y438803D01*
X342012Y438613D01*
X342316Y438385D01*
X342545Y438156D01*
X342735Y437966D01*
X342887Y437775D01*
X342963Y437661D01*
X343002Y437623D01*
X343230Y437242D01*
X343382Y436862D01*
X343497Y436481D01*
X343573Y436138D01*
X343611Y435834D01*
X343649Y435605D01*
Y435453D01*
Y435377D01*
X343611Y434882D01*
X343535Y434425D01*
X343420Y434044D01*
X343306Y433740D01*
X343192Y433473D01*
X343078Y433245D01*
X343002Y433130D01*
X342963Y433092D01*
X342697Y432788D01*
X342392Y432521D01*
X342050Y432293D01*
X341745Y432140D01*
X341479Y431988D01*
X341250Y431912D01*
X341098Y431874D01*
X341022Y431836D01*
X340603Y431760D01*
X340108Y431684D01*
X339575Y431646D01*
X339080Y431607D01*
X338585Y431569D01*
X332303D01*
Y439337D01*
X338357D01*
X339156Y439260D01*
D02*
G37*
D34*
X612653Y88293D02*
X618653D01*
X612653Y66293D02*
X618653D01*
X612653D02*
Y88293D01*
X618653Y66293D02*
Y88293D01*
X522957Y1017672D02*
X527957D01*
X522957Y987672D02*
X527957D01*
X522957D02*
Y1017672D01*
X527957Y987672D02*
Y1017672D01*
X79719Y415830D02*
X111719D01*
X79719Y465830D02*
X111719D01*
Y415830D02*
Y465830D01*
X79719Y415830D02*
Y465830D01*
X216938Y1099430D02*
X221438D01*
Y1094930D02*
Y1099430D01*
X186938D02*
X191438D01*
X186938Y1094930D02*
Y1099430D01*
Y1064930D02*
Y1069430D01*
Y1064930D02*
X191438D01*
X216938D02*
X221438D01*
Y1069430D01*
X810199Y372495D02*
Y374245D01*
X816949D01*
X832449D02*
X839199D01*
Y372495D02*
Y374245D01*
Y340245D02*
Y341995D01*
X832449Y340245D02*
X839199D01*
X810199D02*
Y341995D01*
Y340245D02*
X816949D01*
X885659Y115945D02*
Y242945D01*
X936459D01*
X885659Y115945D02*
X917409D01*
X904709D02*
X931559D01*
X936459Y120845D01*
Y242945D01*
X942555Y286453D02*
Y411347D01*
X939179Y283077D02*
X942555Y286453D01*
X915377Y283077D02*
X939179D01*
X915377Y411347D02*
X942555D01*
X915377Y283077D02*
Y411347D01*
X575921Y52909D02*
X648819D01*
X653899Y47829D01*
Y28525D02*
Y47829D01*
X575921Y28525D02*
Y52909D01*
Y28525D02*
X653899D01*
X681067Y1138936D02*
X728311D01*
X681067Y1112012D02*
Y1138936D01*
X728311D02*
X733137Y1134110D01*
Y1112012D02*
Y1134110D01*
X681067Y1112012D02*
X733137D01*
X232806Y29203D02*
X488584D01*
X232806D02*
Y56127D01*
X488584Y29203D02*
Y52497D01*
X484954Y56127D02*
X488584Y52497D01*
X232806Y56127D02*
X484954D01*
X188939Y415830D02*
Y465830D01*
X220939Y415830D02*
Y465830D01*
X188939D02*
X220939D01*
X188939Y415830D02*
X220939D01*
X706628Y53841D02*
X779526D01*
X784606Y48761D01*
Y29457D02*
Y48761D01*
X706628Y29457D02*
Y53841D01*
Y29457D02*
X784606D01*
X733986Y1022604D02*
Y1069848D01*
X707062D02*
X733986D01*
X729160Y1017778D02*
X733986Y1022604D01*
X707062Y1017778D02*
X729160D01*
X707062D02*
Y1069848D01*
X750110Y1138936D02*
X797354D01*
X750110Y1112012D02*
Y1138936D01*
X797354D02*
X802180Y1134110D01*
Y1112012D02*
Y1134110D01*
X750110Y1112012D02*
X802180D01*
D35*
X611339Y518300D02*
Y1184288D01*
X103339Y518300D02*
X611339D01*
X103339Y1184288D02*
X611339D01*
X103339Y518300D02*
Y1184288D01*
X998220Y989261D02*
Y1073081D01*
X850900D02*
X998220D01*
X850900Y1046411D02*
Y1073081D01*
Y1046411D02*
X864870D01*
Y989261D02*
Y1046411D01*
Y989261D02*
X998220D01*
X801370Y993071D02*
Y1069271D01*
X775970Y993071D02*
X801370D01*
X775970Y1069271D02*
X801370D01*
X775970Y993071D02*
Y1069271D01*
X994726Y821418D02*
Y927118D01*
X904726D02*
X994726D01*
X904726Y821418D02*
Y927118D01*
Y821418D02*
X994726D01*
X710049Y750470D02*
X1000049D01*
Y465470D02*
Y750470D01*
X710049Y465470D02*
X1000049D01*
X710049D02*
Y750470D01*
X317246Y449792D02*
X588938D01*
Y361950D02*
Y449792D01*
X317246Y361950D02*
X588938D01*
X317246D02*
Y449792D01*
X424069Y255270D02*
Y265427D01*
X429148Y270505D01*
X434226Y265427D01*
Y255270D01*
Y262887D01*
X424069D01*
X382669Y267966D02*
X385208Y270505D01*
X390286D01*
X392826Y267966D01*
Y257809D01*
X390286Y255270D01*
X385208D01*
X382669Y257809D01*
Y267966D01*
X397904Y255270D02*
X402982D01*
X400443D01*
Y270505D01*
X397904Y267966D01*
X883412Y845657D02*
X896741D01*
X883666Y897727D02*
X896995D01*
X890331Y904391D02*
Y891062D01*
D38*
X421230Y1087804D02*
Y1109804D01*
X465230D01*
Y1087804D02*
Y1109804D01*
X421230Y1087804D02*
X465230D01*
X196126Y1045121D02*
X235750D01*
X196126Y1025817D02*
Y1045121D01*
Y1025817D02*
X235750D01*
Y1045121D01*
X760730Y953770D02*
X870204D01*
X760730Y904748D02*
Y953770D01*
Y904748D02*
X870204D01*
Y953770D01*
X409852Y244348D02*
Y298704D01*
X408836D02*
X409852D01*
X373276Y280670D02*
X448460D01*
X373276Y298704D02*
X448460D01*
X373276Y244348D02*
Y315468D01*
Y244348D02*
X448460D01*
Y315468D01*
X373276D02*
X448460D01*
X155370Y1074830D02*
X177370D01*
Y1030830D02*
Y1074830D01*
X155370Y1030830D02*
X177370D01*
X155370D02*
Y1074830D01*
X453566Y980672D02*
X475566D01*
X453566D02*
Y1024672D01*
X475566D01*
Y980672D02*
Y1024672D01*
X261366Y152400D02*
X460248D01*
X437134Y56134D02*
Y172720D01*
X411734Y56134D02*
Y172720D01*
X386334Y56388D02*
Y172974D01*
X360680Y55880D02*
Y172466D01*
X335280Y56388D02*
Y172974D01*
X309435Y56134D02*
Y172720D01*
X284480Y56388D02*
Y172974D01*
X460248Y56896D02*
Y172974D01*
X261112D02*
X460248D01*
X908906Y425450D02*
X948690D01*
Y454406D01*
X908906D02*
X948690D01*
X672592Y1106678D02*
X709168D01*
Y1078738D02*
Y1106678D01*
X672592Y1078738D02*
X709168D01*
X547116Y237998D02*
Y273812D01*
X575898D01*
Y237998D02*
Y273812D01*
X593344Y239014D02*
Y274066D01*
X622046D01*
Y239014D02*
Y274066D01*
X910844Y776478D02*
X947420D01*
Y804418D01*
X910844D02*
X947420D01*
X418972Y285980D02*
Y293977D01*
X422971D01*
X424304Y292645D01*
Y289979D01*
X422971Y288646D01*
X418972D01*
X421638D02*
X424304Y285980D01*
X432301Y293977D02*
X426970D01*
Y285980D01*
X432301D01*
X426970Y289979D02*
X429636D01*
X434967Y293977D02*
Y288646D01*
X437633Y285980D01*
X440299Y288646D01*
Y293977D01*
X396206Y302959D02*
Y310956D01*
X400205D01*
X401538Y309624D01*
Y306958D01*
X400205Y305625D01*
X396206D01*
X404204Y310956D02*
Y309624D01*
X406870Y306958D01*
X409535Y309624D01*
Y310956D01*
X406870Y306958D02*
Y302959D01*
X417533Y309624D02*
X416200Y310956D01*
X413534D01*
X412201Y309624D01*
Y304292D01*
X413534Y302959D01*
X416200D01*
X417533Y304292D01*
X424197Y310956D02*
X421532D01*
X420199Y309624D01*
Y304292D01*
X421532Y302959D01*
X424197D01*
X425530Y304292D01*
Y309624D01*
X424197Y310956D01*
X194792Y403802D02*
X189460D01*
Y395805D01*
X194792D01*
X189460Y399803D02*
X192126D01*
X202789Y403802D02*
X197457D01*
Y395805D01*
X202789D01*
X197457Y399803D02*
X200123D01*
X205455Y395805D02*
Y403802D01*
X209454D01*
X210786Y402469D01*
Y399803D01*
X209454Y398470D01*
X205455D01*
X213452Y395805D02*
Y403802D01*
X217451D01*
X218784Y402469D01*
Y399803D01*
X217451Y398470D01*
X213452D01*
X216118D02*
X218784Y395805D01*
X225448Y403802D02*
X222783D01*
X221450Y402469D01*
Y397138D01*
X222783Y395805D01*
X225448D01*
X226781Y397138D01*
Y402469D01*
X225448Y403802D01*
X229447Y395805D02*
Y403802D01*
X232113Y401136D01*
X234779Y403802D01*
Y395805D01*
X189460Y390605D02*
X192126D01*
X190793D01*
Y382608D01*
X189460D01*
X192126D01*
X201456D02*
X196124D01*
X201456Y387939D01*
Y389272D01*
X200123Y390605D01*
X197457D01*
X196124Y389272D01*
X209454D02*
X208121Y390605D01*
X205455D01*
X204122Y389272D01*
Y383941D01*
X205455Y382608D01*
X208121D01*
X209454Y383941D01*
X212119Y382608D02*
X214785D01*
X213452D01*
Y390605D01*
X212119Y389272D01*
X218784Y387939D02*
X220117D01*
Y386607D01*
X218784D01*
Y387939D01*
Y383941D02*
X220117D01*
Y382608D01*
X218784D01*
Y383941D01*
X225448Y389272D02*
X226781Y390605D01*
X229447D01*
X230780Y389272D01*
Y383941D01*
X229447Y382608D01*
X226781D01*
X225448Y383941D01*
Y389272D01*
X233446Y387939D02*
X238777Y382608D01*
X236112Y385274D01*
X238777Y387939D01*
X233446Y382608D01*
X246775Y390605D02*
X241443D01*
Y386607D01*
X244109Y387939D01*
X245442D01*
X246775Y386607D01*
Y383941D01*
X245442Y382608D01*
X242776D01*
X241443Y383941D01*
X249441Y389272D02*
X250774Y390605D01*
X253439D01*
X254772Y389272D01*
Y383941D01*
X253439Y382608D01*
X250774D01*
X249441Y383941D01*
Y389272D01*
X80240Y395805D02*
Y403802D01*
X84239D01*
X85572Y402469D01*
Y399803D01*
X84239Y398470D01*
X80240D01*
X82906D02*
X85572Y395805D01*
X88237Y403802D02*
X93569D01*
X90903D01*
Y395805D01*
X101566Y402469D02*
X100233Y403802D01*
X97568D01*
X96235Y402469D01*
Y397138D01*
X97568Y395805D01*
X100233D01*
X101566Y397138D01*
X80240Y390605D02*
X82906D01*
X81573D01*
Y382608D01*
X80240D01*
X82906D01*
X92236D02*
X86904D01*
X92236Y387939D01*
Y389272D01*
X90903Y390605D01*
X88237D01*
X86904Y389272D01*
X100233D02*
X98901Y390605D01*
X96235D01*
X94902Y389272D01*
Y383941D01*
X96235Y382608D01*
X98901D01*
X100233Y383941D01*
X102899Y382608D02*
X105565D01*
X104232D01*
Y390605D01*
X102899Y389272D01*
X109564Y387939D02*
X110897D01*
Y386607D01*
X109564D01*
Y387939D01*
Y383941D02*
X110897D01*
Y382608D01*
X109564D01*
Y383941D01*
X116228Y389272D02*
X117561Y390605D01*
X120227D01*
X121560Y389272D01*
Y383941D01*
X120227Y382608D01*
X117561D01*
X116228Y383941D01*
Y389272D01*
X124226Y387939D02*
X129557Y382608D01*
X126892Y385274D01*
X129557Y387939D01*
X124226Y382608D01*
X132223Y390605D02*
Y382608D01*
X136222D01*
X137555Y383941D01*
Y389272D01*
X136222Y390605D01*
X132223D01*
X140221Y389272D02*
X141554Y390605D01*
X144219D01*
X145552Y389272D01*
Y383941D01*
X144219Y382608D01*
X141554D01*
X140221Y383941D01*
Y389272D01*
X760321Y877439D02*
X765653D01*
X762987D01*
Y869442D01*
X768318D02*
Y877439D01*
X772317D01*
X773650Y876106D01*
Y873441D01*
X772317Y872108D01*
X768318D01*
X776316Y869442D02*
Y877439D01*
X778982Y874774D01*
X781647Y877439D01*
Y869442D01*
X784313Y876106D02*
X785646Y877439D01*
X788312D01*
X789645Y876106D01*
Y874774D01*
X788312Y873441D01*
X786979D01*
X788312D01*
X789645Y872108D01*
Y870775D01*
X788312Y869442D01*
X785646D01*
X784313Y870775D01*
X365541Y986151D02*
Y978154D01*
X370872D01*
X378870D02*
X373538D01*
X378870Y983486D01*
Y984818D01*
X377537Y986151D01*
X374871D01*
X373538Y984818D01*
X613156Y102993D02*
X615822D01*
X614489D01*
Y94996D01*
X613156D01*
X615822D01*
X625152Y101660D02*
X623819Y102993D01*
X621153D01*
X619821Y101660D01*
Y96329D01*
X621153Y94996D01*
X623819D01*
X625152Y96329D01*
X631817Y94996D02*
Y102993D01*
X627818Y98995D01*
X633150D01*
X526542Y982341D02*
X529208D01*
X527875D01*
Y974344D01*
X526542D01*
X529208D01*
X538538Y981009D02*
X537205Y982341D01*
X534539D01*
X533206Y981009D01*
Y975677D01*
X534539Y974344D01*
X537205D01*
X538538Y975677D01*
X546536Y982341D02*
X543870Y981009D01*
X541204Y978343D01*
Y975677D01*
X542537Y974344D01*
X545203D01*
X546536Y975677D01*
Y977010D01*
X545203Y978343D01*
X541204D01*
X85090Y481961D02*
X87756D01*
X86423D01*
Y473964D01*
X85090D01*
X87756D01*
X97086Y480629D02*
X95753Y481961D01*
X93087D01*
X91755Y480629D01*
Y475297D01*
X93087Y473964D01*
X95753D01*
X97086Y475297D01*
X105084Y473964D02*
X99752D01*
X105084Y479296D01*
Y480629D01*
X103751Y481961D01*
X101085D01*
X99752Y480629D01*
X33909Y366189D02*
Y358192D01*
X37908D01*
X39241Y359525D01*
Y360858D01*
X37908Y362191D01*
X33909D01*
X37908D01*
X39241Y363524D01*
Y364856D01*
X37908Y366189D01*
X33909D01*
X41907Y358192D02*
Y363524D01*
X44573Y366189D01*
X47238Y363524D01*
Y358192D01*
Y362191D01*
X41907D01*
X49904Y366189D02*
X55236D01*
X52570D01*
Y358192D01*
X57902D02*
X60567D01*
X59234D01*
Y366189D01*
X57902Y364856D01*
X193802Y1116707D02*
X196468D01*
X195135D01*
Y1108710D01*
X193802D01*
X196468D01*
X205798Y1115375D02*
X204465Y1116707D01*
X201799D01*
X200466Y1115375D01*
Y1110043D01*
X201799Y1108710D01*
X204465D01*
X205798Y1110043D01*
X213796Y1116707D02*
X208464D01*
Y1112709D01*
X211130Y1114042D01*
X212463D01*
X213796Y1112709D01*
Y1110043D01*
X212463Y1108710D01*
X209797D01*
X208464Y1110043D01*
X816184Y390267D02*
X818850D01*
X817517D01*
Y382270D01*
X816184D01*
X818850D01*
X828180Y388935D02*
X826847Y390267D01*
X824182D01*
X822849Y388935D01*
Y383603D01*
X824182Y382270D01*
X826847D01*
X828180Y383603D01*
X830846Y388935D02*
X832179Y390267D01*
X834845D01*
X836178Y388935D01*
Y387602D01*
X834845Y386269D01*
X833512D01*
X834845D01*
X836178Y384936D01*
Y383603D01*
X834845Y382270D01*
X832179D01*
X830846Y383603D01*
X891411Y258493D02*
X888745D01*
X890078D01*
Y251829D01*
X888745Y250496D01*
X887412D01*
X886079Y251829D01*
X898075Y250496D02*
Y258493D01*
X894077Y254495D01*
X899408D01*
X902079Y409190D02*
X899413D01*
X900746D01*
Y402526D01*
X899413Y401193D01*
X898080D01*
X896747Y402526D01*
X910076Y401193D02*
X904744D01*
X910076Y406525D01*
Y407858D01*
X908743Y409190D01*
X906077D01*
X904744Y407858D01*
X562354Y45335D02*
X559688D01*
X561021D01*
Y38671D01*
X559688Y37338D01*
X558355D01*
X557022Y38671D01*
X570351Y45335D02*
X565019D01*
Y41337D01*
X567685Y42670D01*
X569018D01*
X570351Y41337D01*
Y38671D01*
X569018Y37338D01*
X566352D01*
X565019Y38671D01*
X686941Y1154605D02*
X684275D01*
X685608D01*
Y1147941D01*
X684275Y1146608D01*
X682942D01*
X681609Y1147941D01*
X689607Y1146608D02*
X692272D01*
X690940D01*
Y1154605D01*
X689607Y1153272D01*
X696271D02*
X697604Y1154605D01*
X700270D01*
X701603Y1153272D01*
Y1147941D01*
X700270Y1146608D01*
X697604D01*
X696271Y1147941D01*
Y1153272D01*
X476502Y73201D02*
X473836D01*
X475169D01*
Y66537D01*
X473836Y65204D01*
X472503D01*
X471170Y66537D01*
X479167Y65204D02*
X481833D01*
X480500D01*
Y73201D01*
X479167Y71869D01*
X291188Y1092577D02*
Y1084580D01*
X296520D01*
X299186D02*
X301851D01*
X300518D01*
Y1092577D01*
X299186Y1091245D01*
X116330Y1176143D02*
X113664D01*
X114997D01*
Y1169479D01*
X113664Y1168146D01*
X112331D01*
X110998Y1169479D01*
X124327Y1176143D02*
X121661Y1174810D01*
X118995Y1172145D01*
Y1169479D01*
X120328Y1168146D01*
X122994D01*
X124327Y1169479D01*
Y1170812D01*
X122994Y1172145D01*
X118995D01*
X151851Y904757D02*
X149185D01*
X150518D01*
Y898093D01*
X149185Y896760D01*
X147852D01*
X146519Y898093D01*
X154517Y903424D02*
X155850Y904757D01*
X158515D01*
X159848Y903424D01*
Y902091D01*
X158515Y900759D01*
X157183D01*
X158515D01*
X159848Y899426D01*
Y898093D01*
X158515Y896760D01*
X155850D01*
X154517Y898093D01*
X128991Y904757D02*
X126325D01*
X127658D01*
Y898093D01*
X126325Y896760D01*
X124992D01*
X123659Y898093D01*
X131657Y896760D02*
X134323D01*
X132990D01*
Y904757D01*
X131657Y903424D01*
X558251Y904757D02*
X555585D01*
X556918D01*
Y898093D01*
X555585Y896760D01*
X554252D01*
X552919Y898093D01*
X564915Y896760D02*
Y904757D01*
X560917Y900759D01*
X566248D01*
X583651Y904757D02*
X580985D01*
X582318D01*
Y898093D01*
X580985Y896760D01*
X579652D01*
X578319Y898093D01*
X591648Y896760D02*
X586317D01*
X591648Y902091D01*
Y903424D01*
X590315Y904757D01*
X587650D01*
X586317Y903424D01*
X715772Y937383D02*
Y929386D01*
X719771D01*
X721104Y930719D01*
Y936050D01*
X719771Y937383D01*
X715772D01*
X723769Y929386D02*
X726435D01*
X725102D01*
Y937383D01*
X723769Y936050D01*
X845310Y1013837D02*
X842644D01*
X843977D01*
Y1007173D01*
X842644Y1005840D01*
X841311D01*
X839978Y1007173D01*
X847975D02*
X849308Y1005840D01*
X851974D01*
X853307Y1007173D01*
Y1012505D01*
X851974Y1013837D01*
X849308D01*
X847975Y1012505D01*
Y1011172D01*
X849308Y1009839D01*
X853307D01*
X448562Y1120454D02*
X447229Y1121787D01*
X444563D01*
X443230Y1120454D01*
Y1115123D01*
X444563Y1113790D01*
X447229D01*
X448562Y1115123D01*
X451227Y1113790D02*
X453893D01*
X452560D01*
Y1121787D01*
X451227Y1120454D01*
X461891Y1113790D02*
Y1121787D01*
X457892Y1117789D01*
X463224D01*
X204142Y1018312D02*
X202809Y1019645D01*
X200143D01*
X198811Y1018312D01*
Y1012980D01*
X200143Y1011647D01*
X202809D01*
X204142Y1012980D01*
X206808Y1018312D02*
X208141Y1019645D01*
X210807D01*
X212140Y1018312D01*
Y1016979D01*
X210807Y1015646D01*
X212140Y1014313D01*
Y1012980D01*
X210807Y1011647D01*
X208141D01*
X206808Y1012980D01*
Y1014313D01*
X208141Y1015646D01*
X206808Y1016979D01*
Y1018312D01*
X208141Y1015646D02*
X210807D01*
X488382Y1045716D02*
X487049Y1044383D01*
Y1041717D01*
X488382Y1040384D01*
X493713D01*
X495046Y1041717D01*
Y1044383D01*
X493713Y1045716D01*
X495046Y1048381D02*
Y1051047D01*
Y1049714D01*
X487049D01*
X488382Y1048381D01*
Y1055046D02*
X487049Y1056379D01*
Y1059045D01*
X488382Y1060378D01*
X489714D01*
X491047Y1059045D01*
Y1057712D01*
Y1059045D01*
X492380Y1060378D01*
X493713D01*
X495046Y1059045D01*
Y1056379D01*
X493713Y1055046D01*
X770507Y1091805D02*
X769174Y1093137D01*
X766508D01*
X765175Y1091805D01*
Y1090472D01*
X766508Y1089139D01*
X769174D01*
X770507Y1087806D01*
Y1086473D01*
X769174Y1085140D01*
X766508D01*
X765175Y1086473D01*
X773173Y1085140D02*
X775838D01*
X774506D01*
Y1093137D01*
X773173Y1091805D01*
X910207Y943023D02*
X907541D01*
X908874D01*
Y936359D01*
X907541Y935026D01*
X906208D01*
X904875Y936359D01*
X912873Y935026D02*
X915538D01*
X914206D01*
Y943023D01*
X912873Y941691D01*
X919537Y935026D02*
X922203D01*
X920870D01*
Y943023D01*
X919537Y941691D01*
X718564Y763585D02*
X717231Y764917D01*
X714565D01*
X713232Y763585D01*
Y762252D01*
X714565Y760919D01*
X717231D01*
X718564Y759586D01*
Y758253D01*
X717231Y756920D01*
X714565D01*
X713232Y758253D01*
X721229Y764917D02*
Y756920D01*
X725228D01*
X726561Y758253D01*
Y763585D01*
X725228Y764917D01*
X721229D01*
X729227Y756920D02*
X731893D01*
X730560D01*
Y764917D01*
X729227Y763585D01*
X766697Y969185D02*
X761365D01*
Y965187D01*
X764031D01*
X761365D01*
Y961188D01*
X769363D02*
X772029D01*
X770696D01*
Y969185D01*
X769363Y967852D01*
X381658Y294255D02*
Y288924D01*
X384324Y286258D01*
X386990Y288924D01*
Y294255D01*
X394987D02*
X389656D01*
Y286258D01*
X394987D01*
X389656Y290257D02*
X392322D01*
X397653Y286258D02*
Y294255D01*
X401652D01*
X402985Y292922D01*
Y290257D01*
X401652Y288924D01*
X397653D01*
X400319D02*
X402985Y286258D01*
X777113Y84380D02*
Y92377D01*
X781112D01*
X782445Y91045D01*
Y88379D01*
X781112Y87046D01*
X777113D01*
X779779D02*
X782445Y84380D01*
X790442D02*
X785111D01*
X790442Y89712D01*
Y91045D01*
X789109Y92377D01*
X786444D01*
X785111Y91045D01*
X793108D02*
X794441Y92377D01*
X797107D01*
X798440Y91045D01*
Y85713D01*
X797107Y84380D01*
X794441D01*
X793108Y85713D01*
Y91045D01*
X740722Y92377D02*
Y84380D01*
X746054D01*
X754052Y92377D02*
X748720D01*
Y84380D01*
X754052D01*
X748720Y88379D02*
X751386D01*
X756717Y92377D02*
Y84380D01*
X760716D01*
X762049Y85713D01*
Y91045D01*
X760716Y92377D01*
X756717D01*
X764715Y85713D02*
X766048Y84380D01*
X768713D01*
X770046Y85713D01*
Y91045D01*
X768713Y92377D01*
X766048D01*
X764715Y91045D01*
Y89712D01*
X766048Y88379D01*
X770046D01*
X251331Y495768D02*
X249998Y497101D01*
X247332D01*
X245999Y495768D01*
Y490437D01*
X247332Y489104D01*
X249998D01*
X251331Y490437D01*
X253997Y489104D02*
X256663D01*
X255330D01*
Y497101D01*
X253997Y495768D01*
X48678Y482573D02*
X47345Y483906D01*
X44679D01*
X43346Y482573D01*
Y477241D01*
X44679Y475908D01*
X47345D01*
X48678Y477241D01*
X56675Y475908D02*
X51343D01*
X56675Y481240D01*
Y482573D01*
X55342Y483906D01*
X52676D01*
X51343Y482573D01*
X792478Y407985D02*
X791145Y409317D01*
X788479D01*
X787146Y407985D01*
Y402653D01*
X788479Y401320D01*
X791145D01*
X792478Y402653D01*
X795143Y407985D02*
X796476Y409317D01*
X799142D01*
X800475Y407985D01*
Y406652D01*
X799142Y405319D01*
X797809D01*
X799142D01*
X800475Y403986D01*
Y402653D01*
X799142Y401320D01*
X796476D01*
X795143Y402653D01*
X866556Y330072D02*
X865223Y328739D01*
Y326073D01*
X866556Y324740D01*
X871888D01*
X873221Y326073D01*
Y328739D01*
X871888Y330072D01*
X873221Y336736D02*
X865223D01*
X869222Y332738D01*
Y338069D01*
X628140Y600770D02*
X626807Y602103D01*
X624141D01*
X622808Y600770D01*
Y595439D01*
X624141Y594106D01*
X626807D01*
X628140Y595439D01*
X636137Y602103D02*
X630805D01*
Y598105D01*
X633471Y599438D01*
X634804D01*
X636137Y598105D01*
Y595439D01*
X634804Y594106D01*
X632138D01*
X630805Y595439D01*
X573911Y103490D02*
X572578Y104823D01*
X569912D01*
X568579Y103490D01*
Y98159D01*
X569912Y96826D01*
X572578D01*
X573911Y98159D01*
X581908Y104823D02*
X579243Y103490D01*
X576577Y100825D01*
Y98159D01*
X577910Y96826D01*
X580575D01*
X581908Y98159D01*
Y99492D01*
X580575Y100825D01*
X576577D01*
X649222Y90294D02*
X647889Y91627D01*
X645223D01*
X643890Y90294D01*
Y84963D01*
X645223Y83630D01*
X647889D01*
X649222Y84963D01*
X651887Y91627D02*
X657219D01*
Y90294D01*
X651887Y84963D01*
Y83630D01*
X143703Y1038350D02*
X142371Y1037017D01*
Y1034351D01*
X143703Y1033018D01*
X149035D01*
X150368Y1034351D01*
Y1037017D01*
X149035Y1038350D01*
Y1041015D02*
X150368Y1042348D01*
Y1045014D01*
X149035Y1046347D01*
X143703D01*
X142371Y1045014D01*
Y1042348D01*
X143703Y1041015D01*
X145036D01*
X146369Y1042348D01*
Y1046347D01*
X168908Y1138488D02*
X167575Y1139821D01*
X164909D01*
X163576Y1138488D01*
Y1133157D01*
X164909Y1131824D01*
X167575D01*
X168908Y1133157D01*
X171573Y1131824D02*
X174239D01*
X172906D01*
Y1139821D01*
X171573Y1138488D01*
X178238D02*
X179571Y1139821D01*
X182237D01*
X183570Y1138488D01*
Y1133157D01*
X182237Y1131824D01*
X179571D01*
X178238Y1133157D01*
Y1138488D01*
X534356Y1063698D02*
X533023Y1062365D01*
Y1059699D01*
X534356Y1058366D01*
X539687D01*
X541020Y1059699D01*
Y1062365D01*
X539687Y1063698D01*
X541020Y1066363D02*
Y1069029D01*
Y1067696D01*
X533023D01*
X534356Y1066363D01*
X541020Y1073028D02*
Y1075694D01*
Y1074361D01*
X533023D01*
X534356Y1073028D01*
X460292Y1045525D02*
X458959Y1046857D01*
X456293D01*
X454960Y1045525D01*
Y1040193D01*
X456293Y1038860D01*
X458959D01*
X460292Y1040193D01*
X462957Y1038860D02*
X465623D01*
X464290D01*
Y1046857D01*
X462957Y1045525D01*
X474954Y1038860D02*
X469622D01*
X474954Y1044192D01*
Y1045525D01*
X473621Y1046857D01*
X470955D01*
X469622Y1045525D01*
X195580Y481707D02*
X198246D01*
X196913D01*
Y473710D01*
X195580D01*
X198246D01*
X207576Y480374D02*
X206243Y481707D01*
X203577D01*
X202244Y480374D01*
Y475043D01*
X203577Y473710D01*
X206243D01*
X207576Y475043D01*
X210242Y473710D02*
X212908D01*
X211575D01*
Y481707D01*
X210242Y480374D01*
X712341Y69517D02*
X709675D01*
X711008D01*
Y62853D01*
X709675Y61520D01*
X708342D01*
X707009Y62853D01*
X715007Y68184D02*
X716340Y69517D01*
X719005D01*
X720338Y68184D01*
Y66852D01*
X719005Y65519D01*
X717673D01*
X719005D01*
X720338Y64186D01*
Y62853D01*
X719005Y61520D01*
X716340D01*
X715007Y62853D01*
X692402Y1044825D02*
X689736D01*
X691069D01*
Y1038161D01*
X689736Y1036828D01*
X688403D01*
X687070Y1038161D01*
X695067Y1044825D02*
X700399D01*
Y1043493D01*
X695067Y1038161D01*
Y1036828D01*
X756029Y1154605D02*
X753363D01*
X754696D01*
Y1147941D01*
X753363Y1146608D01*
X752030D01*
X750697Y1147941D01*
X758695Y1153272D02*
X760028Y1154605D01*
X762693D01*
X764026Y1153272D01*
Y1151940D01*
X762693Y1150607D01*
X764026Y1149274D01*
Y1147941D01*
X762693Y1146608D01*
X760028D01*
X758695Y1147941D01*
Y1149274D01*
X760028Y1150607D01*
X758695Y1151940D01*
Y1153272D01*
X760028Y1150607D02*
X762693D01*
X123321Y1084780D02*
Y1082114D01*
Y1083447D01*
X129985D01*
X131318Y1082114D01*
Y1080781D01*
X129985Y1079448D01*
X131318Y1087446D02*
X123321D01*
Y1091444D01*
X124654Y1092777D01*
X127319D01*
X128652Y1091444D01*
Y1087446D01*
X131318Y1095443D02*
Y1098109D01*
Y1096776D01*
X123321D01*
X124654Y1095443D01*
X310011Y1017014D02*
Y1014348D01*
Y1015681D01*
X316675D01*
X318008Y1014348D01*
Y1013015D01*
X316675Y1011682D01*
X318008Y1019679D02*
X310011D01*
Y1023678D01*
X311343Y1025011D01*
X314009D01*
X315342Y1023678D01*
Y1019679D01*
X318008Y1033008D02*
Y1027677D01*
X312676Y1033008D01*
X311343D01*
X310011Y1031676D01*
Y1029010D01*
X311343Y1027677D01*
X509374Y928368D02*
Y925702D01*
Y927035D01*
X516038D01*
X517371Y925702D01*
Y924369D01*
X516038Y923036D01*
X517371Y931033D02*
X509374D01*
Y935032D01*
X510706Y936365D01*
X513372D01*
X514705Y935032D01*
Y931033D01*
X517371Y943030D02*
X509374D01*
X513372Y939031D01*
Y944362D01*
X371219Y1139619D02*
X368553D01*
X369886D01*
Y1132955D01*
X368553Y1131622D01*
X367220D01*
X365887Y1132955D01*
X373885Y1131622D02*
Y1139619D01*
X377883D01*
X379216Y1138287D01*
Y1135621D01*
X377883Y1134288D01*
X373885D01*
X381882Y1138287D02*
X383215Y1139619D01*
X385881D01*
X387214Y1138287D01*
Y1136954D01*
X385881Y1135621D01*
X384548D01*
X385881D01*
X387214Y1134288D01*
Y1132955D01*
X385881Y1131622D01*
X383215D01*
X381882Y1132955D01*
X279400Y987929D02*
Y979932D01*
X284732D01*
X292729Y987929D02*
X287397D01*
Y979932D01*
X292729D01*
X287397Y983931D02*
X290063D01*
X295395Y987929D02*
Y979932D01*
X299394D01*
X300726Y981265D01*
Y986597D01*
X299394Y987929D01*
X295395D01*
X303392Y979932D02*
X306058D01*
X304725D01*
Y987929D01*
X303392Y986597D01*
X310057D02*
X311390Y987929D01*
X314056D01*
X315388Y986597D01*
Y985264D01*
X314056Y983931D01*
X312723D01*
X314056D01*
X315388Y982598D01*
Y981265D01*
X314056Y979932D01*
X311390D01*
X310057Y981265D01*
X330585Y1006094D02*
X338582D01*
Y1011426D01*
X330585Y1019423D02*
Y1014091D01*
X338582D01*
Y1019423D01*
X334583Y1014091D02*
Y1016757D01*
X330585Y1022089D02*
X338582D01*
Y1026088D01*
X337249Y1027420D01*
X331917D01*
X330585Y1026088D01*
Y1022089D01*
X338582Y1030086D02*
Y1032752D01*
Y1031419D01*
X330585D01*
X331917Y1030086D01*
X330585Y1042082D02*
X331917Y1039417D01*
X334583Y1036751D01*
X337249D01*
X338582Y1038084D01*
Y1040750D01*
X337249Y1042082D01*
X335916D01*
X334583Y1040750D01*
Y1036751D01*
X620372Y670052D02*
Y678049D01*
X624371D01*
X625704Y676717D01*
Y674051D01*
X624371Y672718D01*
X620372D01*
X623038D02*
X625704Y670052D01*
X628369Y671385D02*
X629702Y670052D01*
X632368D01*
X633701Y671385D01*
Y676717D01*
X632368Y678049D01*
X629702D01*
X628369Y676717D01*
Y675384D01*
X629702Y674051D01*
X633701D01*
X805942Y125761D02*
Y133759D01*
X809941D01*
X811274Y132426D01*
Y129760D01*
X809941Y128427D01*
X805942D01*
X808608D02*
X811274Y125761D01*
X813939D02*
X816605D01*
X815272D01*
Y133759D01*
X813939Y132426D01*
X820604D02*
X821937Y133759D01*
X824603D01*
X825936Y132426D01*
Y127094D01*
X824603Y125761D01*
X821937D01*
X820604Y127094D01*
Y132426D01*
X966222Y110236D02*
Y118233D01*
X970221D01*
X971554Y116901D01*
Y114235D01*
X970221Y112902D01*
X966222D01*
X968888D02*
X971554Y110236D01*
X974220D02*
X976886D01*
X975553D01*
Y118233D01*
X974220Y116901D01*
X980884Y110236D02*
X983550D01*
X982217D01*
Y118233D01*
X980884Y116901D01*
X964692Y137645D02*
Y145643D01*
X968691D01*
X970024Y144310D01*
Y141644D01*
X968691Y140311D01*
X964692D01*
X967358D02*
X970024Y137645D01*
X972689D02*
X975355D01*
X974022D01*
Y145643D01*
X972689Y144310D01*
X984686Y137645D02*
X979354D01*
X984686Y142977D01*
Y144310D01*
X983353Y145643D01*
X980687D01*
X979354Y144310D01*
X965023Y162814D02*
Y170811D01*
X969022D01*
X970355Y169478D01*
Y166813D01*
X969022Y165480D01*
X965023D01*
X967689D02*
X970355Y162814D01*
X973021D02*
X975687D01*
X974354D01*
Y170811D01*
X973021Y169478D01*
X979685D02*
X981018Y170811D01*
X983684D01*
X985017Y169478D01*
Y168146D01*
X983684Y166813D01*
X982351D01*
X983684D01*
X985017Y165480D01*
Y164147D01*
X983684Y162814D01*
X981018D01*
X979685Y164147D01*
X964692Y187960D02*
Y195957D01*
X968691D01*
X970024Y194625D01*
Y191959D01*
X968691Y190626D01*
X964692D01*
X967358D02*
X970024Y187960D01*
X972689D02*
X975355D01*
X974022D01*
Y195957D01*
X972689Y194625D01*
X983353Y187960D02*
Y195957D01*
X979354Y191959D01*
X984686D01*
X806196Y150055D02*
Y158053D01*
X810195D01*
X811528Y156720D01*
Y154054D01*
X810195Y152721D01*
X806196D01*
X808862D02*
X811528Y150055D01*
X814193D02*
X816859D01*
X815526D01*
Y158053D01*
X814193Y156720D01*
X826190Y158053D02*
X820858D01*
Y154054D01*
X823524Y155387D01*
X824857D01*
X826190Y154054D01*
Y151388D01*
X824857Y150055D01*
X822191D01*
X820858Y151388D01*
X805484Y175768D02*
Y183765D01*
X809483D01*
X810816Y182432D01*
Y179767D01*
X809483Y178434D01*
X805484D01*
X808150D02*
X810816Y175768D01*
X813482D02*
X816148D01*
X814815D01*
Y183765D01*
X813482Y182432D01*
X825478Y183765D02*
X822812Y182432D01*
X820146Y179767D01*
Y177101D01*
X821479Y175768D01*
X824145D01*
X825478Y177101D01*
Y178434D01*
X824145Y179767D01*
X820146D01*
X617474Y643990D02*
Y651988D01*
X621473D01*
X622806Y650655D01*
Y647989D01*
X621473Y646656D01*
X617474D01*
X620140D02*
X622806Y643990D01*
X625471D02*
X628137D01*
X626804D01*
Y651988D01*
X625471Y650655D01*
X632136Y651988D02*
X637468D01*
Y650655D01*
X632136Y645323D01*
Y643990D01*
X620522Y568960D02*
Y576957D01*
X624521D01*
X625854Y575625D01*
Y572959D01*
X624521Y571626D01*
X620522D01*
X623188D02*
X625854Y568960D01*
X628519D02*
X631185D01*
X629852D01*
Y576957D01*
X628519Y575625D01*
X635184D02*
X636517Y576957D01*
X639183D01*
X640516Y575625D01*
Y574292D01*
X639183Y572959D01*
X640516Y571626D01*
Y570293D01*
X639183Y568960D01*
X636517D01*
X635184Y570293D01*
Y571626D01*
X636517Y572959D01*
X635184Y574292D01*
Y575625D01*
X636517Y572959D02*
X639183D01*
X620776Y519684D02*
Y527681D01*
X624775D01*
X626108Y526348D01*
Y523683D01*
X624775Y522350D01*
X620776D01*
X623442D02*
X626108Y519684D01*
X628773D02*
X631439D01*
X630106D01*
Y527681D01*
X628773Y526348D01*
X635438Y521017D02*
X636771Y519684D01*
X639437D01*
X640770Y521017D01*
Y526348D01*
X639437Y527681D01*
X636771D01*
X635438Y526348D01*
Y525016D01*
X636771Y523683D01*
X640770D01*
X181864Y528814D02*
Y536811D01*
X185863D01*
X187196Y535478D01*
Y532813D01*
X185863Y531480D01*
X181864D01*
X184530D02*
X187196Y528814D01*
X195193D02*
X189861D01*
X195193Y534146D01*
Y535478D01*
X193860Y536811D01*
X191194D01*
X189861Y535478D01*
X197859Y528814D02*
X200525D01*
X199192D01*
Y536811D01*
X197859Y535478D01*
X143256Y548386D02*
Y556383D01*
X147255D01*
X148588Y555051D01*
Y552385D01*
X147255Y551052D01*
X143256D01*
X145922D02*
X148588Y548386D01*
X156585D02*
X151253D01*
X156585Y553718D01*
Y555051D01*
X155252Y556383D01*
X152586D01*
X151253Y555051D01*
X164582Y548386D02*
X159251D01*
X164582Y553718D01*
Y555051D01*
X163250Y556383D01*
X160584D01*
X159251Y555051D01*
X250444Y980186D02*
Y988183D01*
X254443D01*
X255776Y986851D01*
Y984185D01*
X254443Y982852D01*
X250444D01*
X253110D02*
X255776Y980186D01*
X263773D02*
X258441D01*
X263773Y985518D01*
Y986851D01*
X262440Y988183D01*
X259774D01*
X258441Y986851D01*
X271770Y988183D02*
X269105Y986851D01*
X266439Y984185D01*
Y981519D01*
X267772Y980186D01*
X270438D01*
X271770Y981519D01*
Y982852D01*
X270438Y984185D01*
X266439D01*
X253746Y1098804D02*
Y1106801D01*
X257745D01*
X259078Y1105469D01*
Y1102803D01*
X257745Y1101470D01*
X253746D01*
X256412D02*
X259078Y1098804D01*
X267075D02*
X261743D01*
X267075Y1104136D01*
Y1105469D01*
X265742Y1106801D01*
X263076D01*
X261743Y1105469D01*
X269741Y1106801D02*
X275072D01*
Y1105469D01*
X269741Y1100137D01*
Y1098804D01*
X338582Y1052576D02*
X330585D01*
Y1056575D01*
X331917Y1057908D01*
X334583D01*
X335916Y1056575D01*
Y1052576D01*
Y1055242D02*
X338582Y1057908D01*
X331917Y1060573D02*
X330585Y1061906D01*
Y1064572D01*
X331917Y1065905D01*
X333250D01*
X334583Y1064572D01*
Y1063239D01*
Y1064572D01*
X335916Y1065905D01*
X337249D01*
X338582Y1064572D01*
Y1061906D01*
X337249Y1060573D01*
X331917Y1068571D02*
X330585Y1069904D01*
Y1072570D01*
X331917Y1073902D01*
X337249D01*
X338582Y1072570D01*
Y1069904D01*
X337249Y1068571D01*
X331917D01*
X594614Y1060820D02*
X586617D01*
Y1064819D01*
X587949Y1066152D01*
X590615D01*
X591948Y1064819D01*
Y1060820D01*
Y1063486D02*
X594614Y1066152D01*
X587949Y1068818D02*
X586617Y1070150D01*
Y1072816D01*
X587949Y1074149D01*
X589282D01*
X590615Y1072816D01*
Y1071483D01*
Y1072816D01*
X591948Y1074149D01*
X593281D01*
X594614Y1072816D01*
Y1070150D01*
X593281Y1068818D01*
X594614Y1076815D02*
Y1079481D01*
Y1078148D01*
X586617D01*
X587949Y1076815D01*
X251460Y1154299D02*
X256792D01*
X254126D01*
Y1146302D01*
X259457D02*
Y1154299D01*
X263456D01*
X264789Y1152967D01*
Y1150301D01*
X263456Y1148968D01*
X259457D01*
X267455Y1146302D02*
Y1154299D01*
X270121Y1151634D01*
X272786Y1154299D01*
Y1146302D01*
X275452D02*
X278118D01*
X276785D01*
Y1154299D01*
X275452Y1152967D01*
X292780Y1146302D02*
X290114Y1148968D01*
Y1151634D01*
X292780Y1154299D01*
X296779Y1152967D02*
X298112Y1154299D01*
X300777D01*
X302110Y1152967D01*
Y1151634D01*
X300777Y1150301D01*
X299445D01*
X300777D01*
X302110Y1148968D01*
Y1147635D01*
X300777Y1146302D01*
X298112D01*
X296779Y1147635D01*
X304776Y1146302D02*
Y1147635D01*
X306109D01*
Y1146302D01*
X304776D01*
X311441Y1152967D02*
X312774Y1154299D01*
X315439D01*
X316772Y1152967D01*
Y1151634D01*
X315439Y1150301D01*
X314107D01*
X315439D01*
X316772Y1148968D01*
Y1147635D01*
X315439Y1146302D01*
X312774D01*
X311441Y1147635D01*
X319438Y1154299D02*
Y1148968D01*
X322104Y1146302D01*
X324770Y1148968D01*
Y1154299D01*
X327435Y1146302D02*
X330101Y1148968D01*
Y1151634D01*
X327435Y1154299D01*
X809752Y1166491D02*
X815084D01*
X812418D01*
Y1158494D01*
X817749D02*
Y1166491D01*
X821748D01*
X823081Y1165158D01*
Y1162493D01*
X821748Y1161160D01*
X817749D01*
X825747Y1158494D02*
Y1166491D01*
X828413Y1163826D01*
X831078Y1166491D01*
Y1158494D01*
X839076D02*
X833744D01*
X839076Y1163826D01*
Y1165158D01*
X837743Y1166491D01*
X835077D01*
X833744Y1165158D01*
X852405Y1158494D02*
X849739Y1161160D01*
Y1163826D01*
X852405Y1166491D01*
X856404Y1158494D02*
X859069D01*
X857737D01*
Y1166491D01*
X856404Y1165158D01*
X868400Y1158494D02*
X863068D01*
X868400Y1163826D01*
Y1165158D01*
X867067Y1166491D01*
X864401D01*
X863068Y1165158D01*
X871066Y1166491D02*
Y1161160D01*
X873731Y1158494D01*
X876397Y1161160D01*
Y1166491D01*
X879063Y1158494D02*
X881729Y1161160D01*
Y1163826D01*
X879063Y1166491D01*
X412750Y1139821D02*
X418082D01*
X415416D01*
Y1131824D01*
X420747D02*
Y1139821D01*
X424746D01*
X426079Y1138488D01*
Y1135823D01*
X424746Y1134490D01*
X420747D01*
X428745Y1131824D02*
Y1139821D01*
X431411Y1137156D01*
X434076Y1139821D01*
Y1131824D01*
X440741D02*
Y1139821D01*
X436742Y1135823D01*
X442074D01*
X455403Y1131824D02*
X452737Y1134490D01*
Y1137156D01*
X455403Y1139821D01*
X464733D02*
X459402D01*
Y1135823D01*
X462067Y1137156D01*
X463400D01*
X464733Y1135823D01*
Y1133157D01*
X463400Y1131824D01*
X460734D01*
X459402Y1133157D01*
X467399Y1139821D02*
Y1134490D01*
X470065Y1131824D01*
X472731Y1134490D01*
Y1139821D01*
X475396Y1131824D02*
X478062Y1134490D01*
Y1137156D01*
X475396Y1139821D01*
X573278Y999236D02*
Y1007233D01*
X577277D01*
X578610Y1005900D01*
Y1003235D01*
X577277Y1001902D01*
X573278D01*
X575944D02*
X578610Y999236D01*
X581275Y1005900D02*
X582608Y1007233D01*
X585274D01*
X586607Y1005900D01*
Y1004568D01*
X585274Y1003235D01*
X583941D01*
X585274D01*
X586607Y1001902D01*
Y1000569D01*
X585274Y999236D01*
X582608D01*
X581275Y1000569D01*
X594604Y999236D02*
X589273D01*
X594604Y1004568D01*
Y1005900D01*
X593272Y1007233D01*
X590606D01*
X589273Y1005900D01*
X578358Y1059688D02*
X570361D01*
Y1063687D01*
X571693Y1065020D01*
X574359D01*
X575692Y1063687D01*
Y1059688D01*
Y1062354D02*
X578358Y1065020D01*
X571693Y1067685D02*
X570361Y1069018D01*
Y1071684D01*
X571693Y1073017D01*
X573026D01*
X574359Y1071684D01*
Y1070351D01*
Y1071684D01*
X575692Y1073017D01*
X577025D01*
X578358Y1071684D01*
Y1069018D01*
X577025Y1067685D01*
X571693Y1075683D02*
X570361Y1077016D01*
Y1079682D01*
X571693Y1081014D01*
X573026D01*
X574359Y1079682D01*
Y1078349D01*
Y1079682D01*
X575692Y1081014D01*
X577025D01*
X578358Y1079682D01*
Y1077016D01*
X577025Y1075683D01*
X947805Y308102D02*
X955802D01*
X953136D01*
X947805Y313434D01*
X951803Y309435D01*
X955802Y313434D01*
X947805Y316099D02*
X949137D01*
X951803Y318765D01*
X949137Y321431D01*
X947805D01*
X951803Y318765D02*
X955802D01*
X951803Y324097D02*
Y329428D01*
X949137Y332094D02*
X947805Y333427D01*
Y336093D01*
X949137Y337426D01*
X954469D01*
X955802Y336093D01*
Y333427D01*
X954469Y332094D01*
X949137D01*
X955802Y344090D02*
X947805D01*
X951803Y340092D01*
Y345423D01*
X949137Y348089D02*
X947805Y349422D01*
Y352088D01*
X949137Y353421D01*
X954469D01*
X955802Y352088D01*
Y349422D01*
X954469Y348089D01*
X949137D01*
X947805Y364084D02*
Y366750D01*
Y365417D01*
X955802D01*
Y364084D01*
Y366750D01*
Y370748D02*
X950470Y376080D01*
X947805Y384077D02*
Y378746D01*
X951803D01*
Y381412D01*
Y378746D01*
X955802D01*
X951738Y143256D02*
X946406D01*
X943741Y145922D01*
X946406Y148588D01*
X951738D01*
X947739D01*
Y143256D01*
X943741Y151253D02*
X950405D01*
X951738Y152586D01*
Y155252D01*
X950405Y156585D01*
X943741D01*
Y159251D02*
X951738D01*
Y163250D01*
X950405Y164582D01*
X945073D01*
X943741Y163250D01*
Y159251D01*
Y167248D02*
Y169914D01*
Y168581D01*
X951738D01*
Y167248D01*
Y169914D01*
X943741Y177911D02*
Y175246D01*
X945073Y173913D01*
X950405D01*
X951738Y175246D01*
Y177911D01*
X950405Y179244D01*
X945073D01*
X943741Y177911D01*
Y189908D02*
Y192573D01*
Y191241D01*
X951738D01*
Y189908D01*
Y192573D01*
Y196572D02*
X946406Y201904D01*
X943741Y209901D02*
Y204570D01*
X947739D01*
Y207235D01*
Y204570D01*
X951738D01*
X708152Y12954D02*
Y20951D01*
X710818Y18286D01*
X713484Y20951D01*
Y12954D01*
X720148Y20951D02*
X717482D01*
X716149Y19619D01*
Y14287D01*
X717482Y12954D01*
X720148D01*
X721481Y14287D01*
Y19619D01*
X720148Y20951D01*
X724147D02*
X729478D01*
X726813D01*
Y12954D01*
X732144Y20951D02*
X734810D01*
X733477D01*
Y12954D01*
X732144D01*
X734810D01*
X742807Y20951D02*
X740142D01*
X738809Y19619D01*
Y14287D01*
X740142Y12954D01*
X742807D01*
X744140Y14287D01*
Y19619D01*
X742807Y20951D01*
X746806Y12954D02*
Y20951D01*
X752138Y12954D01*
Y20951D01*
X762801D02*
X765467D01*
X764134D01*
Y12954D01*
X762801D01*
X765467D01*
X769466D02*
X774797Y18286D01*
X782795Y20951D02*
X777463D01*
Y16953D01*
X780129D01*
X777463D01*
Y12954D01*
X573532Y20951D02*
Y12954D01*
X577531D01*
X578864Y14287D01*
Y19619D01*
X577531Y20951D01*
X573532D01*
X581529D02*
X584195D01*
X582862D01*
Y12954D01*
X581529D01*
X584195D01*
X593526Y19619D02*
X592193Y20951D01*
X589527D01*
X588194Y19619D01*
Y18286D01*
X589527Y16953D01*
X592193D01*
X593526Y15620D01*
Y14287D01*
X592193Y12954D01*
X589527D01*
X588194Y14287D01*
X596191Y12954D02*
Y20951D01*
X600190D01*
X601523Y19619D01*
Y16953D01*
X600190Y15620D01*
X596191D01*
X604189Y20951D02*
Y12954D01*
X609520D01*
X612186D02*
Y18286D01*
X614852Y20951D01*
X617518Y18286D01*
Y12954D01*
Y16953D01*
X612186D01*
X620184Y20951D02*
Y19619D01*
X622849Y16953D01*
X625515Y19619D01*
Y20951D01*
X622849Y16953D02*
Y12954D01*
X636179Y20951D02*
X638844D01*
X637511D01*
Y12954D01*
X636179D01*
X638844D01*
X642843D02*
X648175Y18286D01*
X656172Y20951D02*
X650840D01*
Y16953D01*
X653506D01*
X650840D01*
Y12954D01*
X242235Y18348D02*
X243568Y19681D01*
X246233D01*
X247566Y18348D01*
Y17016D01*
X246233Y15683D01*
X247566Y14350D01*
Y13017D01*
X246233Y11684D01*
X243568D01*
X242235Y13017D01*
Y14350D01*
X243568Y15683D01*
X242235Y17016D01*
Y18348D01*
X243568Y15683D02*
X246233D01*
X255564Y18348D02*
X254231Y19681D01*
X251565D01*
X250232Y18348D01*
Y13017D01*
X251565Y11684D01*
X254231D01*
X255564Y13017D01*
X258230Y19681D02*
Y11684D01*
Y15683D01*
X263561D01*
Y19681D01*
Y11684D01*
X274224D02*
Y19681D01*
X278223D01*
X279556Y18348D01*
Y15683D01*
X278223Y14350D01*
X274224D01*
X276890D02*
X279556Y11684D01*
X287553Y19681D02*
X282222D01*
Y11684D01*
X287553D01*
X282222Y15683D02*
X284888D01*
X290219Y19681D02*
Y11684D01*
X295551D01*
X298217D02*
Y17016D01*
X300882Y19681D01*
X303548Y17016D01*
Y11684D01*
Y15683D01*
X298217D01*
X306214Y19681D02*
X308880D01*
X307547D01*
Y11684D01*
X306214D01*
X308880D01*
X318210Y18348D02*
X316877Y19681D01*
X314212D01*
X312879Y18348D01*
Y17016D01*
X314212Y15683D01*
X316877D01*
X318210Y14350D01*
Y13017D01*
X316877Y11684D01*
X314212D01*
X312879Y13017D01*
X328873Y19681D02*
X331539D01*
X330206D01*
Y11684D01*
X328873D01*
X331539D01*
X335538D02*
X340870Y17016D01*
X348867Y19681D02*
X343535D01*
Y15683D01*
X346201D01*
X343535D01*
Y11684D01*
X14902Y941385D02*
X13569Y942717D01*
X10904D01*
X9571Y941385D01*
Y936053D01*
X10904Y934720D01*
X13569D01*
X14902Y936053D01*
Y938719D01*
X12236D01*
X17568Y934720D02*
Y942717D01*
X22900Y934720D01*
Y942717D01*
X25566D02*
Y934720D01*
X29564D01*
X30897Y936053D01*
Y941385D01*
X29564Y942717D01*
X25566D01*
X329414Y370847D02*
Y376179D01*
X330747D01*
X332080Y374846D01*
Y370847D01*
Y374846D01*
X333413Y376179D01*
X334746Y374846D01*
Y370847D01*
X338744Y376179D02*
X341410D01*
X342743Y374846D01*
Y370847D01*
X338744D01*
X337411Y372180D01*
X338744Y373513D01*
X342743D01*
X346742Y377512D02*
Y376179D01*
X345409D01*
X348075D01*
X346742D01*
Y372180D01*
X348075Y370847D01*
X352073Y378845D02*
Y370847D01*
Y374846D01*
X353406Y376179D01*
X356072D01*
X357405Y374846D01*
Y370847D01*
X360071D02*
X362737D01*
X361404D01*
Y376179D01*
X360071D01*
X368068D02*
X370734D01*
X372067Y374846D01*
Y370847D01*
X368068D01*
X366735Y372180D01*
X368068Y373513D01*
X372067D01*
X374733Y370847D02*
X378731D01*
X380064Y372180D01*
X378731Y373513D01*
X376066D01*
X374733Y374846D01*
X376066Y376179D01*
X380064D01*
X382730Y370847D02*
Y372180D01*
X384063D01*
Y370847D01*
X382730D01*
X389395Y378845D02*
Y370847D01*
X393393D01*
X394726Y372180D01*
Y373513D01*
Y374846D01*
X393393Y376179D01*
X389395D01*
X397392D02*
Y372180D01*
X398725Y370847D01*
X402724D01*
Y376179D01*
X410721Y378845D02*
Y370847D01*
X406722D01*
X405390Y372180D01*
Y374846D01*
X406722Y376179D01*
X410721D01*
X417386Y370847D02*
X414720D01*
X413387Y372180D01*
Y374846D01*
X414720Y376179D01*
X417386D01*
X418718Y374846D01*
Y373513D01*
X413387D01*
X421384Y376179D02*
Y370847D01*
Y373513D01*
X422717Y374846D01*
X424050Y376179D01*
X425383D01*
X433381Y373513D02*
Y374846D01*
X432048D01*
Y373513D01*
X433381D01*
X434713Y374846D01*
Y377512D01*
X433381Y378845D01*
X430715D01*
X429382Y377512D01*
Y372180D01*
X430715Y370847D01*
X434713D01*
X440045Y368181D02*
X441378D01*
X442711Y369514D01*
Y376179D01*
X438712D01*
X437379Y374846D01*
Y372180D01*
X438712Y370847D01*
X442711D01*
X445377D02*
Y376179D01*
X446710D01*
X448042Y374846D01*
Y370847D01*
Y374846D01*
X449375Y376179D01*
X450708Y374846D01*
Y370847D01*
X454707Y376179D02*
X457373D01*
X458706Y374846D01*
Y370847D01*
X454707D01*
X453374Y372180D01*
X454707Y373513D01*
X458706D01*
X461371Y370847D02*
X464037D01*
X462704D01*
Y376179D01*
X461371D01*
X468036Y370847D02*
X470702D01*
X469369D01*
Y378845D01*
X468036D01*
X474701Y370847D02*
Y372180D01*
X476033D01*
Y370847D01*
X474701D01*
X486697Y376179D02*
X482698D01*
X481365Y374846D01*
Y372180D01*
X482698Y370847D01*
X486697D01*
X490695D02*
X493361D01*
X494694Y372180D01*
Y374846D01*
X493361Y376179D01*
X490695D01*
X489362Y374846D01*
Y372180D01*
X490695Y370847D01*
X497360D02*
Y376179D01*
X498693D01*
X500026Y374846D01*
Y370847D01*
Y374846D01*
X501359Y376179D01*
X502691Y374846D01*
Y370847D01*
D40*
X92719Y455830D02*
G03*
X92719Y455830I-3000J0D01*
G01*
X201939D02*
G03*
X201939Y455830I-3000J0D01*
G01*
D73*
X606153Y91543D02*
G03*
X606153Y91543I-1250J0D01*
G01*
X514957Y1020672D02*
G03*
X514957Y1020672I-1250J0D01*
G01*
X69719Y468380D02*
G03*
X69719Y468380I-1250J0D01*
G01*
X229188Y1066430D02*
G03*
X229188Y1066430I-1250J0D01*
G01*
X804949Y372745D02*
G03*
X804949Y372745I-1250J0D01*
G01*
X178939Y468380D02*
G03*
X178939Y468380I-1250J0D01*
G01*
D74*
X260882Y195190D02*
G03*
X260882Y351190I-78000J78000D01*
G01*
X436212Y1003128D02*
X441212D01*
Y1008128D01*
X362712Y1082294D02*
X367712D01*
X362712Y1077294D02*
Y1082294D01*
X441212Y1076532D02*
Y1081532D01*
X436212D02*
X441212D01*
X363474Y1003636D02*
X368474D01*
X363474D02*
Y1008636D01*
X32790Y195190D02*
X260882D01*
X32790Y351190D02*
X260882D01*
X32790Y195190D02*
Y351190D01*
X978794Y784459D02*
Y796459D01*
X950794Y784459D02*
X978794D01*
X950794Y796459D02*
X978794D01*
X950794Y784459D02*
Y796459D01*
X613531Y242824D02*
Y270794D01*
X601181D02*
X613531D01*
X601181Y244094D02*
Y270794D01*
X602451Y242824D02*
X613531D01*
X601181Y244094D02*
X602451Y242824D01*
X943448Y784109D02*
Y796459D01*
X916748D02*
X943448D01*
X915448Y795159D02*
X916748Y796459D01*
X915448Y784109D02*
X943448D01*
X915448D02*
Y795159D01*
X242062Y1079909D02*
X247062D01*
X242062Y1074909D02*
Y1079909D01*
X286846Y1023603D02*
X291846D01*
Y1028603D01*
X241794Y1024283D02*
Y1029283D01*
Y1024283D02*
X246794D01*
X286846Y1079909D02*
X291846D01*
Y1074909D02*
Y1079909D01*
X707570Y945896D02*
X733224D01*
X707570Y1009142D02*
X709856Y1011428D01*
X707570Y945896D02*
Y1009142D01*
X709856Y1011428D02*
X731192D01*
X733224Y1009396D01*
Y945896D02*
Y1009396D01*
X496728Y988538D02*
Y1016538D01*
X484728Y988538D02*
X496728D01*
X484728Y1016538D02*
X496728D01*
X484728Y988538D02*
Y1016538D01*
X776009Y65226D02*
X804009D01*
Y77226D01*
X776009D02*
X804009D01*
X776009Y65226D02*
Y77226D01*
X739618D02*
X767618D01*
X739618Y64876D02*
Y77226D01*
Y64876D02*
X766318D01*
X767618Y66176D02*
Y77226D01*
X766318Y64876D02*
X767618Y66176D01*
X256952Y453970D02*
Y481970D01*
X244952Y453970D02*
X256952D01*
X244952Y481970D02*
X256952D01*
X244952Y453970D02*
Y481970D01*
X42260Y440914D02*
Y468914D01*
X54260D01*
X42260Y440914D02*
X54260D01*
Y468914D01*
X799750Y367563D02*
Y395563D01*
X787750Y367563D02*
X799750D01*
X787750Y395563D02*
X799750D01*
X787750Y367563D02*
Y395563D01*
X859099Y317470D02*
Y345470D01*
X847099Y317470D02*
X859099D01*
X847099Y345470D02*
X859099D01*
X847099Y317470D02*
Y345470D01*
X645130Y603720D02*
X673130D01*
Y591720D02*
Y603720D01*
X645130Y591720D02*
Y603720D01*
Y591720D02*
X673130D01*
X567575Y77630D02*
X595575D01*
X567575D02*
Y89630D01*
X595575Y77630D02*
Y89630D01*
X567575D02*
X595575D01*
X637510Y67660D02*
X665510D01*
X637510D02*
Y79660D01*
X665510Y67660D02*
Y79660D01*
X637510D02*
X665510D01*
X166438Y1099930D02*
Y1127930D01*
X178438D01*
X166438Y1099930D02*
X178438D01*
Y1127930D01*
X543207Y1025622D02*
Y1053622D01*
X531207Y1025622D02*
X543207D01*
X531207Y1053622D02*
X543207D01*
X531207Y1025622D02*
Y1053622D01*
X136240Y1102874D02*
X148240D01*
Y1074874D02*
Y1102874D01*
X136240Y1074874D02*
X148240D01*
X136240D02*
Y1102874D01*
X293720Y1008858D02*
X305720D01*
X293720D02*
Y1036858D01*
X305720D01*
Y1008858D02*
Y1036858D01*
X506572Y952216D02*
X518572D01*
X506572D02*
Y980216D01*
X518572D01*
Y952216D02*
Y980216D01*
X364840Y1124488D02*
X376840D01*
Y1096488D02*
Y1124488D01*
X364840Y1096488D02*
X376840D01*
X364840D02*
Y1124488D01*
X443118Y111245D02*
X444418Y109945D01*
X455468D01*
X443118Y111245D02*
Y137945D01*
X455468D01*
Y109945D02*
Y137945D01*
X341867Y111245D02*
X343167Y109945D01*
X354217D01*
X341867Y111245D02*
Y137945D01*
X354217D01*
Y109945D02*
Y137945D01*
X418067Y111245D02*
X419367Y109945D01*
X430417D01*
X418067Y111245D02*
Y137945D01*
X430417D01*
Y109945D02*
Y137945D01*
X316467Y111245D02*
X317767Y109945D01*
X328817D01*
X316467Y111245D02*
Y137945D01*
X328817D01*
Y109945D02*
Y137945D01*
X392667Y111245D02*
X393967Y109945D01*
X405017D01*
X392667Y111245D02*
Y137945D01*
X405017D01*
Y109945D02*
Y137945D01*
X291067Y111245D02*
X292367Y109945D01*
X303417D01*
X291067Y111245D02*
Y137945D01*
X303417D01*
Y109945D02*
Y137945D01*
X367267Y111245D02*
X368567Y109945D01*
X379617D01*
X367267Y111245D02*
Y137945D01*
X379617D01*
Y109945D02*
Y137945D01*
X265667Y111245D02*
X266967Y109945D01*
X278017D01*
X265667Y111245D02*
Y137945D01*
X278017D01*
Y109945D02*
Y137945D01*
X305287Y991860D02*
X306587Y993160D01*
Y1004210D01*
X278587Y991860D02*
X305287D01*
X278587D02*
Y1004210D01*
X306587D01*
X677706Y1097998D02*
X679006Y1099297D01*
X677706Y1086947D02*
Y1097998D01*
X679006Y1099297D02*
X705705D01*
Y1086947D02*
Y1099297D01*
X677706Y1086947D02*
X705705D01*
X343916Y1018424D02*
X345216Y1017124D01*
X356266D01*
X343916Y1018424D02*
Y1045124D01*
X356266D01*
Y1017124D02*
Y1045124D01*
X443467Y102385D02*
X455467D01*
Y74385D02*
Y102385D01*
X443467Y74385D02*
X455467D01*
X443467D02*
Y102385D01*
X341867D02*
X353867D01*
Y74385D02*
Y102385D01*
X341867Y74385D02*
X353867D01*
X341867D02*
Y102385D01*
X418067D02*
X430067D01*
Y74385D02*
Y102385D01*
X418067Y74385D02*
X430067D01*
X418067D02*
Y102385D01*
X316467D02*
X328467D01*
Y74385D02*
Y102385D01*
X316467Y74385D02*
X328467D01*
X316467D02*
Y102385D01*
X392667Y101884D02*
X404667D01*
Y73884D02*
Y101884D01*
X392667Y73884D02*
X404667D01*
X392667D02*
Y101884D01*
X291067Y102385D02*
X303067D01*
Y74385D02*
Y102385D01*
X291067Y74385D02*
X303067D01*
X291067D02*
Y102385D01*
X367267D02*
X379267D01*
Y74385D02*
Y102385D01*
X367267Y74385D02*
X379267D01*
X367267D02*
Y102385D01*
X265667D02*
X277667D01*
Y74385D02*
Y102385D01*
X265667Y74385D02*
X277667D01*
X265667D02*
Y102385D01*
X645130Y666720D02*
Y678720D01*
X673130D01*
Y666720D02*
Y678720D01*
X645130Y666720D02*
X673130D01*
X832289Y122645D02*
Y134645D01*
X860289D01*
Y122645D02*
Y134645D01*
X832289Y122645D02*
X860289D01*
X960598D02*
Y134645D01*
X988598D01*
Y122645D02*
Y134645D01*
X960598Y122645D02*
X988598D01*
X960598Y148178D02*
Y160178D01*
X988598D01*
Y148178D02*
Y160178D01*
X960598Y148178D02*
X988598D01*
X960598Y173324D02*
Y185324D01*
X988598D01*
Y173324D02*
Y185324D01*
X960598Y173324D02*
X988598D01*
X960598Y198470D02*
Y210470D01*
X988598D01*
Y198470D02*
Y210470D01*
X960598Y198470D02*
X988598D01*
X860289Y148046D02*
Y160046D01*
X832289Y148046D02*
X860289D01*
X832289D02*
Y160046D01*
X860289D01*
Y173446D02*
Y185446D01*
X832289Y173446D02*
X860289D01*
X832289D02*
Y185446D01*
X860289D01*
X673130Y641720D02*
Y653720D01*
X645130Y641720D02*
X673130D01*
X645130D02*
Y653720D01*
X673130D01*
Y566770D02*
Y578770D01*
X645130Y566770D02*
X673130D01*
X645130D02*
Y578770D01*
X673130D01*
Y517240D02*
Y529240D01*
X645130Y517240D02*
X673130D01*
X645130D02*
Y529240D01*
X673130D01*
X163860Y526892D02*
Y538892D01*
X135860Y526892D02*
X163860D01*
X135860D02*
Y538892D01*
X163860D01*
X106905Y547213D02*
Y559213D01*
X134905D01*
Y547213D02*
Y559213D01*
X106905Y547213D02*
X134905D01*
X247091Y992220D02*
Y1004220D01*
X275091D01*
Y992220D02*
Y1004220D01*
X247091Y992220D02*
X275091D01*
X276890Y1083758D02*
Y1095758D01*
X248890Y1083758D02*
X276890D01*
X248890D02*
Y1095758D01*
X276890D01*
X739996Y1087298D02*
Y1099297D01*
X711996Y1087298D02*
X739996D01*
X711996D02*
Y1099297D01*
X739996D01*
X344108Y1049001D02*
X356108D01*
X344108D02*
Y1077001D01*
X356108Y1049001D02*
Y1077001D01*
X344108D02*
X356108D01*
X584550Y1026384D02*
X596550D01*
X584550D02*
Y1054384D01*
X596550Y1026384D02*
Y1054384D01*
X584550D02*
X596550D01*
X568676Y1012540D02*
X596676D01*
Y1024540D01*
X568676D02*
X596676D01*
X568676Y1012540D02*
Y1024540D01*
X568710Y1026384D02*
Y1054384D01*
Y1026384D02*
X580709D01*
Y1054384D01*
X568710D02*
X580709D01*
X915068Y444978D02*
X916368Y446278D01*
X915068Y433928D02*
Y444978D01*
Y433928D02*
X943068D01*
X916368Y446278D02*
X943068D01*
Y433928D02*
Y446278D01*
X567520Y242824D02*
Y270823D01*
X555170D02*
X567520D01*
X555170Y244124D02*
Y270823D01*
X556470Y242824D02*
X567520D01*
X555170Y244124D02*
X556470Y242824D01*
X613531Y277179D02*
Y305179D01*
X601531Y277179D02*
X613531D01*
X601531Y305179D02*
X613531D01*
X601531Y277179D02*
Y305179D01*
X987074Y433674D02*
Y445674D01*
X959074Y433674D02*
X987074D01*
X959074Y445674D02*
X987074D01*
X959074Y433674D02*
Y445674D01*
X567170Y277179D02*
Y305179D01*
X555170Y277179D02*
X567170D01*
X555170Y305179D02*
X567170D01*
X555170Y277179D02*
Y305179D01*
D75*
X116167Y628795D02*
X165951D01*
X116167D02*
Y890415D01*
X165697D01*
X166205Y629303D02*
Y889907D01*
X141567Y861205D02*
X165697D01*
X141567D02*
Y890415D01*
X573367Y861205D02*
Y890415D01*
Y861205D02*
X597497D01*
X598005Y629303D02*
Y889907D01*
X547967Y890415D02*
X597497D01*
X547967Y628795D02*
Y890415D01*
Y628795D02*
X597751D01*
M02*
