G04 Layer_Physical_Order=4*
G04 Layer_Color=16711680*
%FSLAX44Y44*%
%MOMM*%
G71*
G01*
G75*
%ADD34C,0.2000*%
%ADD35C,0.2540*%
%ADD38C,0.1500*%
%ADD39C,0.8000*%
%ADD41R,8.7377X14.6434*%
%ADD53C,1.6000*%
%ADD54R,1.6000X1.6000*%
%ADD55R,1.6000X1.6000*%
%ADD56C,2.0000*%
%ADD57R,2.0000X2.0000*%
%ADD58C,1.8000*%
%ADD59C,1.5240*%
%ADD60C,2.5000*%
%ADD61C,1.5000*%
%ADD62C,7.0000*%
%ADD63C,0.6000*%
G36*
X957115Y1199491D02*
X964086Y1197974D01*
X970770Y1195481D01*
X977032Y1192062D01*
X982743Y1187787D01*
X987787Y1182743D01*
X992062Y1177032D01*
X995481Y1170770D01*
X997974Y1164087D01*
X999491Y1157115D01*
X999999Y1150000D01*
Y50000D01*
X999491Y42884D01*
X997974Y35913D01*
X995481Y29229D01*
X992062Y22968D01*
X987787Y17257D01*
X982743Y12212D01*
X977032Y7937D01*
X970770Y4518D01*
X964086Y2025D01*
X957115Y509D01*
X949999Y-0D01*
X49999D01*
X42884Y509D01*
X35913Y2025D01*
X29229Y4518D01*
X22968Y7937D01*
X17256Y12212D01*
X12212Y17257D01*
X7937Y22968D01*
X4518Y29229D01*
X2025Y35913D01*
X508Y42884D01*
X-0Y50000D01*
Y1150000D01*
X508Y1157115D01*
X2025Y1164087D01*
X4518Y1170770D01*
X7937Y1177032D01*
X12212Y1182743D01*
X17256Y1187787D01*
X22968Y1192062D01*
X29229Y1195481D01*
X35913Y1197974D01*
X42884Y1199491D01*
X49999Y1200000D01*
X949999D01*
X957115Y1199491D01*
D02*
G37*
%LPC*%
G36*
X560667Y656400D02*
X557795Y656022D01*
X555120Y654913D01*
X552822Y653150D01*
X551059Y650852D01*
X549950Y648176D01*
X549572Y645305D01*
X549950Y642433D01*
X551059Y639757D01*
X552822Y637460D01*
X555120Y635696D01*
X557795Y634588D01*
X559386Y634379D01*
Y317563D01*
X558287Y316828D01*
X557402Y315505D01*
X557092Y313944D01*
X557402Y312383D01*
X558287Y311060D01*
X559610Y310176D01*
X561170Y309866D01*
X562731Y310176D01*
X564054Y311060D01*
X564938Y312383D01*
X565249Y313944D01*
X564938Y315505D01*
X564054Y316828D01*
X562955Y317563D01*
Y634511D01*
X563539Y634588D01*
X566214Y635696D01*
X568512Y637460D01*
X570275Y639757D01*
X571384Y642433D01*
X571762Y645305D01*
X571384Y648176D01*
X570275Y650852D01*
X568512Y653150D01*
X566214Y654913D01*
X563539Y656022D01*
X560667Y656400D01*
D02*
G37*
G36*
X928839Y330763D02*
X926490Y330454D01*
X924301Y329547D01*
X922420Y328104D01*
X921407Y326783D01*
X912056D01*
X910105Y326395D01*
X908451Y325290D01*
X897587Y314426D01*
X896482Y312773D01*
X896094Y310822D01*
Y277208D01*
X896482Y275257D01*
X897587Y273603D01*
X918661Y252529D01*
Y237678D01*
X917340Y236664D01*
X916327Y235343D01*
X905792D01*
X904778Y236664D01*
X902898Y238107D01*
X900709Y239014D01*
X898359Y239323D01*
X896010Y239014D01*
X893820Y238107D01*
X891940Y236664D01*
X890498Y234784D01*
X889591Y232595D01*
X889282Y230245D01*
X889499Y228594D01*
X875235Y214331D01*
X874130Y212677D01*
X873742Y210726D01*
Y58674D01*
X874130Y56723D01*
X875235Y55069D01*
X876889Y53964D01*
X878840Y53576D01*
X880791Y53964D01*
X882445Y55069D01*
X883550Y56723D01*
X883938Y58674D01*
Y208614D01*
X896709Y221385D01*
X898359Y221168D01*
X900709Y221477D01*
X902898Y222384D01*
X904778Y223826D01*
X905792Y225147D01*
X916327D01*
X917340Y223826D01*
X919221Y222384D01*
X921410Y221477D01*
X923759Y221168D01*
X926109Y221477D01*
X928298Y222384D01*
X930178Y223826D01*
X931621Y225706D01*
X932528Y227896D01*
X932837Y230245D01*
X932528Y232595D01*
X931621Y234784D01*
X930178Y236664D01*
X928857Y237678D01*
Y254640D01*
X928469Y256591D01*
X927364Y258245D01*
X906290Y279319D01*
Y308710D01*
X914167Y316587D01*
X921407D01*
X922420Y315266D01*
X924301Y313824D01*
X926490Y312917D01*
X928839Y312608D01*
X931189Y312917D01*
X933378Y313824D01*
X935258Y315266D01*
X936701Y317146D01*
X937608Y319336D01*
X937917Y321685D01*
X937608Y324035D01*
X936701Y326224D01*
X935258Y328104D01*
X933378Y329547D01*
X931189Y330454D01*
X928839Y330763D01*
D02*
G37*
G36*
X939379Y306825D02*
X930109D01*
Y297555D01*
X939379D01*
Y306825D01*
D02*
G37*
G36*
Y295015D02*
X930109D01*
Y285745D01*
X939379D01*
Y295015D01*
D02*
G37*
G36*
X927569Y306825D02*
X918299D01*
Y297555D01*
X927569D01*
Y306825D01*
D02*
G37*
G36*
X928839Y406963D02*
X926490Y406654D01*
X924301Y405747D01*
X922420Y404304D01*
X920978Y402424D01*
X920071Y400235D01*
X919762Y397885D01*
X920071Y395536D01*
X920978Y393346D01*
X922420Y391466D01*
X924301Y390024D01*
X926490Y389117D01*
X928839Y388808D01*
X931189Y389117D01*
X933378Y390024D01*
X935258Y391466D01*
X936701Y393346D01*
X937608Y395536D01*
X937917Y397885D01*
X937608Y400235D01*
X936701Y402424D01*
X935258Y404304D01*
X933378Y405747D01*
X931189Y406654D01*
X928839Y406963D01*
D02*
G37*
G36*
X586067Y808800D02*
X583195Y808422D01*
X580519Y807313D01*
X578222Y805550D01*
X576459Y803252D01*
X575350Y800576D01*
X574972Y797705D01*
X575350Y794833D01*
X576459Y792157D01*
X578222Y789860D01*
X580519Y788096D01*
X583195Y786988D01*
X586067Y786610D01*
X588938Y786988D01*
X591614Y788096D01*
X593912Y789860D01*
X595675Y792157D01*
X596784Y794833D01*
X596893Y795666D01*
X607848D01*
X614254Y789260D01*
Y449472D01*
X613410Y448908D01*
X612526Y447585D01*
X612215Y446024D01*
X612526Y444463D01*
X613410Y443140D01*
X614733Y442256D01*
X616294Y441946D01*
X617854Y442256D01*
X619178Y443140D01*
X620062Y444463D01*
X620372Y446024D01*
X620062Y447585D01*
X619178Y448908D01*
X618333Y449472D01*
Y789146D01*
X618342Y789160D01*
X618497Y789940D01*
X618342Y790720D01*
X617900Y791382D01*
X610135Y799147D01*
X609473Y799589D01*
X608693Y799744D01*
X596893D01*
X596784Y800576D01*
X595675Y803252D01*
X593912Y805550D01*
X591614Y807313D01*
X588938Y808422D01*
X586067Y808800D01*
D02*
G37*
G36*
X781375Y377641D02*
X779814Y377331D01*
X778491Y376447D01*
X777607Y375124D01*
X777297Y373563D01*
X777607Y372002D01*
X778491Y370679D01*
X779814Y369795D01*
X781375Y369485D01*
X782936Y369795D01*
X784259Y370679D01*
X785143Y372002D01*
X785453Y373563D01*
X785143Y375124D01*
X784259Y376447D01*
X782936Y377331D01*
X781375Y377641D01*
D02*
G37*
G36*
X928839Y356163D02*
X926490Y355854D01*
X924301Y354947D01*
X922420Y353504D01*
X920978Y351624D01*
X920071Y349435D01*
X919762Y347085D01*
X920071Y344736D01*
X920978Y342546D01*
X922420Y340666D01*
X924301Y339224D01*
X926490Y338317D01*
X928839Y338008D01*
X931189Y338317D01*
X933378Y339224D01*
X935258Y340666D01*
X936701Y342546D01*
X937608Y344736D01*
X937917Y347085D01*
X937608Y349435D01*
X936701Y351624D01*
X935258Y353504D01*
X933378Y354947D01*
X931189Y355854D01*
X928839Y356163D01*
D02*
G37*
G36*
Y381563D02*
X926490Y381254D01*
X924301Y380347D01*
X922420Y378904D01*
X920978Y377024D01*
X920071Y374835D01*
X919762Y372485D01*
X920071Y370136D01*
X920978Y367946D01*
X922420Y366066D01*
X924301Y364624D01*
X926490Y363717D01*
X928839Y363408D01*
X931189Y363717D01*
X933378Y364624D01*
X935258Y366066D01*
X936701Y367946D01*
X937608Y370136D01*
X937917Y372485D01*
X937608Y374835D01*
X936701Y377024D01*
X935258Y378904D01*
X933378Y380347D01*
X931189Y381254D01*
X928839Y381563D01*
D02*
G37*
G36*
X927569Y295015D02*
X918299D01*
Y285745D01*
X927569D01*
Y295015D01*
D02*
G37*
G36*
X898359Y188523D02*
X896010Y188214D01*
X893820Y187307D01*
X891940Y185864D01*
X890498Y183984D01*
X889591Y181795D01*
X889282Y179445D01*
X889591Y177096D01*
X890498Y174906D01*
X891940Y173026D01*
X893820Y171584D01*
X896010Y170677D01*
X898359Y170368D01*
X900709Y170677D01*
X902898Y171584D01*
X904778Y173026D01*
X906221Y174906D01*
X907128Y177096D01*
X907437Y179445D01*
X907128Y181795D01*
X906221Y183984D01*
X904778Y185864D01*
X902898Y187307D01*
X900709Y188214D01*
X898359Y188523D01*
D02*
G37*
G36*
X923759D02*
X921410Y188214D01*
X919221Y187307D01*
X917340Y185864D01*
X915898Y183984D01*
X914991Y181795D01*
X914682Y179445D01*
X914991Y177096D01*
X915898Y174906D01*
X917340Y173026D01*
X919221Y171584D01*
X921410Y170677D01*
X923759Y170368D01*
X926109Y170677D01*
X928298Y171584D01*
X930178Y173026D01*
X931621Y174906D01*
X932528Y177096D01*
X932837Y179445D01*
X932528Y181795D01*
X931621Y183984D01*
X930178Y185864D01*
X928298Y187307D01*
X926109Y188214D01*
X923759Y188523D01*
D02*
G37*
G36*
Y163123D02*
X921410Y162814D01*
X919221Y161907D01*
X917340Y160464D01*
X915898Y158584D01*
X914991Y156395D01*
X914682Y154045D01*
X914991Y151696D01*
X915898Y149506D01*
X917340Y147626D01*
X919221Y146184D01*
X921410Y145277D01*
X923759Y144968D01*
X926109Y145277D01*
X928298Y146184D01*
X930178Y147626D01*
X931621Y149506D01*
X932528Y151696D01*
X932837Y154045D01*
X932528Y156395D01*
X931621Y158584D01*
X930178Y160464D01*
X928298Y161907D01*
X926109Y162814D01*
X923759Y163123D01*
D02*
G37*
G36*
X272017Y150366D02*
X270457Y150055D01*
X269133Y149171D01*
X268249Y147848D01*
X267939Y146287D01*
X268249Y144727D01*
X269133Y143404D01*
X270457Y142520D01*
X272017Y142209D01*
X273578Y142520D01*
X274901Y143404D01*
X275785Y144727D01*
X276096Y146287D01*
X275785Y147848D01*
X274901Y149171D01*
X273578Y150055D01*
X272017Y150366D01*
D02*
G37*
G36*
X898359Y163123D02*
X896010Y162814D01*
X893820Y161907D01*
X891940Y160464D01*
X890498Y158584D01*
X889591Y156395D01*
X889282Y154045D01*
X889591Y151696D01*
X890498Y149506D01*
X891940Y147626D01*
X893820Y146184D01*
X896010Y145277D01*
X898359Y144968D01*
X900709Y145277D01*
X902898Y146184D01*
X904778Y147626D01*
X906221Y149506D01*
X907128Y151696D01*
X907437Y154045D01*
X907128Y156395D01*
X906221Y158584D01*
X904778Y160464D01*
X902898Y161907D01*
X900709Y162814D01*
X898359Y163123D01*
D02*
G37*
G36*
X897089Y215309D02*
X895608Y215114D01*
X893044Y214052D01*
X890842Y212362D01*
X889153Y210161D01*
X888091Y207597D01*
X887896Y206115D01*
X897089D01*
Y215309D01*
D02*
G37*
G36*
X899629D02*
Y206115D01*
X908823D01*
X908628Y207597D01*
X907566Y210161D01*
X905876Y212362D01*
X903675Y214052D01*
X901111Y215114D01*
X899629Y215309D01*
D02*
G37*
G36*
X923759Y213923D02*
X921410Y213614D01*
X919221Y212707D01*
X917340Y211264D01*
X915898Y209384D01*
X914991Y207195D01*
X914682Y204845D01*
X914991Y202496D01*
X915898Y200306D01*
X917340Y198426D01*
X919221Y196984D01*
X921410Y196077D01*
X923759Y195768D01*
X926109Y196077D01*
X928298Y196984D01*
X930178Y198426D01*
X931621Y200306D01*
X932528Y202496D01*
X932837Y204845D01*
X932528Y207195D01*
X931621Y209384D01*
X930178Y211264D01*
X928298Y212707D01*
X926109Y213614D01*
X923759Y213923D01*
D02*
G37*
G36*
X897089Y203575D02*
X887896D01*
X888091Y202094D01*
X889153Y199530D01*
X890842Y197328D01*
X893044Y195639D01*
X895608Y194576D01*
X897089Y194382D01*
Y203575D01*
D02*
G37*
G36*
X908823D02*
X899629D01*
Y194382D01*
X901111Y194576D01*
X903675Y195639D01*
X905876Y197328D01*
X907566Y199530D01*
X908628Y202094D01*
X908823Y203575D01*
D02*
G37*
G36*
X35942Y450992D02*
X34381Y450682D01*
X33058Y449798D01*
X32174Y448475D01*
X31863Y446914D01*
X32174Y445353D01*
X33058Y444030D01*
X34381Y443146D01*
X35942Y442835D01*
X37503Y443146D01*
X38826Y444030D01*
X39710Y445353D01*
X40020Y446914D01*
X39710Y448475D01*
X38826Y449798D01*
X37503Y450682D01*
X35942Y450992D01*
D02*
G37*
G36*
X560667Y681800D02*
X557795Y681422D01*
X555120Y680313D01*
X552822Y678550D01*
X551059Y676252D01*
X549950Y673577D01*
X549841Y672744D01*
X544975D01*
X544975Y672744D01*
X544194Y672589D01*
X543533Y672147D01*
X534196Y662810D01*
X533754Y662148D01*
X533599Y661368D01*
Y81074D01*
X533754Y80294D01*
X534196Y79632D01*
X542038Y71790D01*
X541840Y70793D01*
X542151Y69233D01*
X543035Y67909D01*
X544358Y67025D01*
X545919Y66715D01*
X547479Y67025D01*
X548803Y67909D01*
X549687Y69233D01*
X549997Y70793D01*
X549687Y72354D01*
X548803Y73677D01*
X547479Y74561D01*
X545919Y74872D01*
X544922Y74674D01*
X537677Y81919D01*
Y660523D01*
X545820Y668666D01*
X549841D01*
X549950Y667833D01*
X551059Y665157D01*
X552822Y662860D01*
X555120Y661096D01*
X557795Y659988D01*
X560667Y659610D01*
X563539Y659988D01*
X566214Y661096D01*
X568512Y662860D01*
X570275Y665157D01*
X571384Y667833D01*
X571762Y670705D01*
X571384Y673577D01*
X570275Y676252D01*
X568512Y678550D01*
X566214Y680313D01*
X563539Y681422D01*
X560667Y681800D01*
D02*
G37*
G36*
X651130Y688735D02*
X649569Y688424D01*
X648246Y687540D01*
X647362Y686217D01*
X647051Y684656D01*
X647362Y683095D01*
X648246Y681772D01*
X649569Y680888D01*
X651130Y680578D01*
X652691Y680888D01*
X654014Y681772D01*
X654898Y683095D01*
X655208Y684656D01*
X654898Y686217D01*
X654014Y687540D01*
X652691Y688424D01*
X651130Y688735D01*
D02*
G37*
G36*
X586067Y681800D02*
X583195Y681422D01*
X580519Y680313D01*
X578222Y678550D01*
X576459Y676252D01*
X575350Y673577D01*
X574972Y670705D01*
X575350Y667833D01*
X576459Y665157D01*
X578222Y662860D01*
X580519Y661096D01*
X583195Y659988D01*
X586067Y659610D01*
X588938Y659988D01*
X591614Y661096D01*
X593912Y662860D01*
X595675Y665157D01*
X596784Y667833D01*
X597162Y670705D01*
X596784Y673577D01*
X595675Y676252D01*
X593912Y678550D01*
X591614Y680313D01*
X588938Y681422D01*
X586067Y681800D01*
D02*
G37*
G36*
X154267Y707200D02*
X151395Y706822D01*
X148719Y705713D01*
X146421Y703950D01*
X144658Y701652D01*
X143550Y698976D01*
X143172Y696105D01*
X143550Y693233D01*
X144658Y690557D01*
X146421Y688260D01*
X148719Y686496D01*
X151395Y685388D01*
X154267Y685010D01*
X157138Y685388D01*
X159814Y686496D01*
X162112Y688260D01*
X163875Y690557D01*
X164984Y693233D01*
X165093Y694066D01*
X190677D01*
X236183Y648560D01*
X235985Y647564D01*
X236295Y646003D01*
X237179Y644680D01*
X238502Y643796D01*
X240063Y643485D01*
X241624Y643796D01*
X242947Y644680D01*
X243831Y646003D01*
X244141Y647564D01*
X243831Y649124D01*
X242947Y650447D01*
X241624Y651331D01*
X240063Y651642D01*
X239067Y651444D01*
X192964Y697547D01*
X192302Y697989D01*
X191522Y698144D01*
X165093D01*
X164984Y698976D01*
X163875Y701652D01*
X162112Y703950D01*
X159814Y705713D01*
X157138Y706822D01*
X154267Y707200D01*
D02*
G37*
G36*
X128867Y681800D02*
X125995Y681422D01*
X123319Y680313D01*
X121021Y678550D01*
X119258Y676252D01*
X118150Y673576D01*
X117772Y670705D01*
X118150Y667833D01*
X119258Y665157D01*
X121021Y662859D01*
X123319Y661096D01*
X125995Y659988D01*
X128867Y659610D01*
X131738Y659988D01*
X134414Y661096D01*
X136712Y662859D01*
X138475Y665157D01*
X139584Y667833D01*
X139962Y670705D01*
X139584Y673576D01*
X138475Y676252D01*
X136712Y678550D01*
X134414Y680313D01*
X131738Y681422D01*
X128867Y681800D01*
D02*
G37*
G36*
X586067Y732600D02*
X583195Y732222D01*
X580519Y731113D01*
X578222Y729350D01*
X576459Y727052D01*
X575350Y724377D01*
X574972Y721505D01*
X575350Y718633D01*
X576459Y715957D01*
X578222Y713660D01*
X580519Y711896D01*
X583195Y710788D01*
X586067Y710410D01*
X588938Y710788D01*
X591614Y711896D01*
X593912Y713660D01*
X595675Y715957D01*
X596784Y718633D01*
X597162Y721505D01*
X596784Y724377D01*
X595675Y727052D01*
X593912Y729350D01*
X591614Y731113D01*
X588938Y732222D01*
X586067Y732600D01*
D02*
G37*
G36*
X947049Y733543D02*
X944830Y733251D01*
X942763Y732394D01*
X940987Y731032D01*
X939625Y729257D01*
X938768Y727189D01*
X938476Y724970D01*
X938768Y722751D01*
X939625Y720683D01*
X940987Y718908D01*
X942763Y717545D01*
X944830Y716689D01*
X947049Y716396D01*
X949268Y716689D01*
X951336Y717545D01*
X953112Y718908D01*
X954474Y720683D01*
X955331Y722751D01*
X955623Y724970D01*
X955331Y727189D01*
X954474Y729257D01*
X953112Y731032D01*
X951336Y732394D01*
X949268Y733251D01*
X947049Y733543D01*
D02*
G37*
G36*
X586067Y707200D02*
X583195Y706822D01*
X580519Y705713D01*
X578222Y703950D01*
X576459Y701652D01*
X575350Y698977D01*
X574972Y696105D01*
X575350Y693233D01*
X576459Y690557D01*
X578222Y688260D01*
X580519Y686496D01*
X583195Y685388D01*
X586067Y685010D01*
X588938Y685388D01*
X591614Y686496D01*
X593912Y688260D01*
X595675Y690557D01*
X596784Y693233D01*
X597162Y696105D01*
X596784Y698977D01*
X595675Y701652D01*
X593912Y703950D01*
X591614Y705713D01*
X588938Y706822D01*
X586067Y707200D01*
D02*
G37*
G36*
X128867Y707200D02*
X125995Y706822D01*
X123319Y705713D01*
X121021Y703950D01*
X119258Y701652D01*
X118150Y698976D01*
X117772Y696105D01*
X118150Y693233D01*
X119258Y690557D01*
X121021Y688260D01*
X123319Y686496D01*
X125995Y685388D01*
X128867Y685010D01*
X131738Y685388D01*
X134414Y686496D01*
X136712Y688260D01*
X138475Y690557D01*
X139584Y693233D01*
X139962Y696105D01*
X139584Y698976D01*
X138475Y701652D01*
X136712Y703950D01*
X134414Y705713D01*
X131738Y706822D01*
X128867Y707200D01*
D02*
G37*
G36*
X560667Y707200D02*
X557795Y706822D01*
X555120Y705713D01*
X552822Y703950D01*
X551059Y701652D01*
X549950Y698977D01*
X549572Y696105D01*
X549950Y693233D01*
X551059Y690557D01*
X552822Y688260D01*
X555120Y686496D01*
X557795Y685388D01*
X560667Y685010D01*
X563539Y685388D01*
X566214Y686496D01*
X568512Y688260D01*
X570275Y690557D01*
X571384Y693233D01*
X571762Y696105D01*
X571384Y698977D01*
X570275Y701652D01*
X568512Y703950D01*
X566214Y705713D01*
X563539Y706822D01*
X560667Y707200D01*
D02*
G37*
G36*
X586067Y656400D02*
X583195Y656022D01*
X580519Y654913D01*
X578222Y653150D01*
X576459Y650852D01*
X575350Y648176D01*
X574972Y645305D01*
X575350Y642433D01*
X576459Y639757D01*
X578222Y637460D01*
X580519Y635696D01*
X583195Y634588D01*
X586067Y634210D01*
X588938Y634588D01*
X591614Y635696D01*
X593912Y637460D01*
X595675Y639757D01*
X596784Y642433D01*
X597162Y645305D01*
X596784Y648176D01*
X595675Y650852D01*
X593912Y653150D01*
X591614Y654913D01*
X588938Y656022D01*
X586067Y656400D01*
D02*
G37*
G36*
X169291Y536971D02*
X167731Y536660D01*
X166408Y535776D01*
X165524Y534453D01*
X165213Y532892D01*
X165524Y531331D01*
X166408Y530008D01*
X167731Y529124D01*
X169291Y528814D01*
X170852Y529124D01*
X172175Y530008D01*
X173059Y531331D01*
X173370Y532892D01*
X173059Y534453D01*
X172175Y535776D01*
X170852Y536660D01*
X169291Y536971D01*
D02*
G37*
G36*
X94996Y557290D02*
X93435Y556980D01*
X92112Y556096D01*
X91228Y554773D01*
X90918Y553212D01*
X91228Y551651D01*
X92112Y550328D01*
X93435Y549444D01*
X94996Y549134D01*
X96557Y549444D01*
X97880Y550328D01*
X98764Y551651D01*
X99074Y553212D01*
X98764Y554773D01*
X97880Y556096D01*
X96557Y556980D01*
X94996Y557290D01*
D02*
G37*
G36*
X947049Y491543D02*
X944830Y491251D01*
X942763Y490395D01*
X940987Y489032D01*
X939625Y487257D01*
X938768Y485189D01*
X938476Y482970D01*
X938768Y480751D01*
X939625Y478683D01*
X940987Y476908D01*
X942763Y475545D01*
X944830Y474689D01*
X947049Y474397D01*
X949268Y474689D01*
X951336Y475545D01*
X953112Y476908D01*
X954474Y478683D01*
X955331Y480751D01*
X955623Y482970D01*
X955331Y485189D01*
X954474Y487257D01*
X953112Y489032D01*
X951336Y490395D01*
X949268Y491251D01*
X947049Y491543D01*
D02*
G37*
G36*
X250952Y451372D02*
X249391Y451062D01*
X248068Y450178D01*
X247184Y448855D01*
X246874Y447294D01*
X247184Y445733D01*
X248068Y444410D01*
X249391Y443526D01*
X250952Y443216D01*
X252513Y443526D01*
X253836Y444410D01*
X254720Y445733D01*
X255030Y447294D01*
X254720Y448855D01*
X253836Y450178D01*
X252513Y451062D01*
X250952Y451372D01*
D02*
G37*
G36*
X469900Y847758D02*
X468339Y847448D01*
X467016Y846564D01*
X466132Y845240D01*
X465822Y843680D01*
X466132Y842119D01*
X467016Y840796D01*
X468116Y840061D01*
Y455993D01*
X467016Y455258D01*
X466132Y453935D01*
X465822Y452374D01*
X466132Y450813D01*
X467016Y449490D01*
X468339Y448606D01*
X469900Y448296D01*
X471461Y448606D01*
X472784Y449490D01*
X473668Y450813D01*
X473978Y452374D01*
X473668Y453935D01*
X472784Y455258D01*
X471684Y455993D01*
Y840061D01*
X472784Y840796D01*
X473668Y842119D01*
X473978Y843680D01*
X473668Y845240D01*
X472784Y846564D01*
X471461Y847448D01*
X469900Y847758D01*
D02*
G37*
G36*
X154267Y681800D02*
X151395Y681422D01*
X148719Y680313D01*
X146421Y678550D01*
X144658Y676252D01*
X143550Y673576D01*
X143172Y670705D01*
X143550Y667833D01*
X144658Y665157D01*
X146421Y662859D01*
X148719Y661096D01*
X151395Y659988D01*
X154267Y659610D01*
X157138Y659988D01*
X159814Y661096D01*
X162112Y662859D01*
X163875Y665157D01*
X164984Y667833D01*
X165093Y668666D01*
X201448D01*
X233356Y636758D01*
X233158Y635762D01*
X233468Y634201D01*
X234352Y632878D01*
X235675Y631994D01*
X237236Y631684D01*
X238797Y631994D01*
X240120Y632878D01*
X241004Y634201D01*
X241314Y635762D01*
X241004Y637323D01*
X240120Y638646D01*
X238797Y639530D01*
X237236Y639840D01*
X236240Y639642D01*
X203735Y672147D01*
X203074Y672589D01*
X202293Y672744D01*
X165093D01*
X164984Y673576D01*
X163875Y676252D01*
X162112Y678550D01*
X159814Y680313D01*
X157138Y681422D01*
X154267Y681800D01*
D02*
G37*
G36*
X128867Y656400D02*
X125995Y656022D01*
X123319Y654913D01*
X121021Y653150D01*
X119258Y650852D01*
X118150Y648176D01*
X117772Y645305D01*
X118150Y642433D01*
X119258Y639757D01*
X121021Y637459D01*
X123319Y635696D01*
X125995Y634588D01*
X128867Y634210D01*
X131738Y634588D01*
X134414Y635696D01*
X136712Y637459D01*
X138475Y639757D01*
X139584Y642433D01*
X139962Y645305D01*
X139584Y648176D01*
X138475Y650852D01*
X136712Y653150D01*
X134414Y654913D01*
X131738Y656022D01*
X128867Y656400D01*
D02*
G37*
G36*
X154267D02*
X151395Y656022D01*
X148719Y654913D01*
X146421Y653150D01*
X144658Y650852D01*
X143550Y648176D01*
X143172Y645305D01*
X143550Y642433D01*
X144658Y639757D01*
X146421Y637459D01*
X148719Y635696D01*
X151395Y634588D01*
X154267Y634210D01*
X157138Y634588D01*
X159814Y635696D01*
X162112Y637459D01*
X163875Y639757D01*
X164984Y642433D01*
X165093Y643266D01*
X211609D01*
X226498Y628376D01*
X226300Y627380D01*
X226610Y625819D01*
X227494Y624496D01*
X228817Y623612D01*
X230378Y623302D01*
X231939Y623612D01*
X233262Y624496D01*
X234146Y625819D01*
X234456Y627380D01*
X234146Y628941D01*
X233262Y630264D01*
X231939Y631148D01*
X230378Y631458D01*
X229382Y631260D01*
X213895Y646747D01*
X213234Y647189D01*
X212453Y647344D01*
X165093D01*
X164984Y648176D01*
X163875Y650852D01*
X162112Y653150D01*
X159814Y654913D01*
X157138Y656022D01*
X154267Y656400D01*
D02*
G37*
G36*
X916686Y635790D02*
X829056D01*
X828170Y635614D01*
X827419Y635113D01*
X826918Y634362D01*
X826741Y633476D01*
Y605790D01*
X826918Y604904D01*
X827419Y604153D01*
X828170Y603652D01*
X829056Y603475D01*
X916686D01*
X917572Y603652D01*
X918323Y604153D01*
X918824Y604904D01*
X919000Y605790D01*
Y633476D01*
X918824Y634362D01*
X918323Y635113D01*
X917572Y635614D01*
X916686Y635790D01*
D02*
G37*
G36*
X667130Y613042D02*
X665569Y612732D01*
X664246Y611848D01*
X663362Y610524D01*
X663051Y608964D01*
X663362Y607403D01*
X664246Y606080D01*
X665569Y605196D01*
X667130Y604885D01*
X668690Y605196D01*
X670014Y606080D01*
X670898Y607403D01*
X671208Y608964D01*
X670898Y610524D01*
X670014Y611848D01*
X668690Y612732D01*
X667130Y613042D01*
D02*
G37*
G36*
X297072Y51743D02*
X294722Y51433D01*
X292533Y50526D01*
X290653Y49084D01*
X289210Y47204D01*
X288303Y45015D01*
X287994Y42665D01*
X288303Y40315D01*
X289210Y38126D01*
X290653Y36246D01*
X292533Y34804D01*
X294722Y33897D01*
X297072Y33587D01*
X299421Y33897D01*
X301610Y34804D01*
X303490Y36246D01*
X304933Y38126D01*
X305840Y40315D01*
X306149Y42665D01*
X305840Y45015D01*
X304933Y47204D01*
X303490Y49084D01*
X301610Y50526D01*
X299421Y51433D01*
X297072Y51743D01*
D02*
G37*
G36*
X322472D02*
X320122Y51433D01*
X317933Y50526D01*
X316053Y49084D01*
X314610Y47204D01*
X313703Y45015D01*
X313394Y42665D01*
X313703Y40315D01*
X314610Y38126D01*
X316053Y36246D01*
X317933Y34804D01*
X320122Y33897D01*
X322472Y33587D01*
X324821Y33897D01*
X327010Y34804D01*
X328890Y36246D01*
X330333Y38126D01*
X331240Y40315D01*
X331549Y42665D01*
X331240Y45015D01*
X330333Y47204D01*
X328890Y49084D01*
X327010Y50526D01*
X324821Y51433D01*
X322472Y51743D01*
D02*
G37*
G36*
X271672D02*
X269322Y51433D01*
X267133Y50526D01*
X265253Y49084D01*
X263810Y47204D01*
X262903Y45015D01*
X262594Y42665D01*
X262903Y40315D01*
X263810Y38126D01*
X265253Y36246D01*
X267133Y34804D01*
X269322Y33897D01*
X271672Y33587D01*
X274021Y33897D01*
X276210Y34804D01*
X278090Y36246D01*
X279533Y38126D01*
X280440Y40315D01*
X280749Y42665D01*
X280440Y45015D01*
X279533Y47204D01*
X278090Y49084D01*
X276210Y50526D01*
X274021Y51433D01*
X271672Y51743D01*
D02*
G37*
G36*
X779890Y50395D02*
X761890D01*
Y32395D01*
X779890D01*
Y50395D01*
D02*
G37*
G36*
X246272Y51743D02*
X243922Y51433D01*
X241733Y50526D01*
X239853Y49084D01*
X238410Y47204D01*
X237503Y45015D01*
X237194Y42665D01*
X237503Y40315D01*
X238410Y38126D01*
X239853Y36246D01*
X241733Y34804D01*
X243922Y33897D01*
X246272Y33587D01*
X248621Y33897D01*
X250810Y34804D01*
X252690Y36246D01*
X254133Y38126D01*
X255040Y40315D01*
X255349Y42665D01*
X255040Y45015D01*
X254133Y47204D01*
X252690Y49084D01*
X250810Y50526D01*
X248621Y51433D01*
X246272Y51743D01*
D02*
G37*
G36*
X424068D02*
X421718Y51433D01*
X419529Y50526D01*
X417649Y49084D01*
X416206Y47204D01*
X415299Y45015D01*
X414990Y42665D01*
X415299Y40315D01*
X416206Y38126D01*
X417649Y36246D01*
X419529Y34804D01*
X421718Y33897D01*
X424068Y33587D01*
X426417Y33897D01*
X428606Y34804D01*
X430486Y36246D01*
X431929Y38126D01*
X432836Y40315D01*
X433145Y42665D01*
X432836Y45015D01*
X431929Y47204D01*
X430486Y49084D01*
X428606Y50526D01*
X426417Y51433D01*
X424068Y51743D01*
D02*
G37*
G36*
X449468D02*
X447118Y51433D01*
X444929Y50526D01*
X443049Y49084D01*
X441606Y47204D01*
X440699Y45015D01*
X440390Y42665D01*
X440699Y40315D01*
X441606Y38126D01*
X443049Y36246D01*
X444929Y34804D01*
X447118Y33897D01*
X449468Y33587D01*
X451817Y33897D01*
X454006Y34804D01*
X455886Y36246D01*
X457329Y38126D01*
X458236Y40315D01*
X458545Y42665D01*
X458236Y45015D01*
X457329Y47204D01*
X455886Y49084D01*
X454006Y50526D01*
X451817Y51433D01*
X449468Y51743D01*
D02*
G37*
G36*
X398668D02*
X396318Y51433D01*
X394129Y50526D01*
X392249Y49084D01*
X390806Y47204D01*
X389899Y45015D01*
X389590Y42665D01*
X389899Y40315D01*
X390806Y38126D01*
X392249Y36246D01*
X394129Y34804D01*
X396318Y33897D01*
X398668Y33587D01*
X401017Y33897D01*
X403206Y34804D01*
X405086Y36246D01*
X406529Y38126D01*
X407436Y40315D01*
X407745Y42665D01*
X407436Y45015D01*
X406529Y47204D01*
X405086Y49084D01*
X403206Y50526D01*
X401017Y51433D01*
X398668Y51743D01*
D02*
G37*
G36*
X347872D02*
X345522Y51433D01*
X343333Y50526D01*
X341453Y49084D01*
X340010Y47204D01*
X339103Y45015D01*
X338794Y42665D01*
X339103Y40315D01*
X340010Y38126D01*
X341453Y36246D01*
X343333Y34804D01*
X345522Y33897D01*
X347872Y33587D01*
X350221Y33897D01*
X352410Y34804D01*
X354290Y36246D01*
X355733Y38126D01*
X356640Y40315D01*
X356949Y42665D01*
X356640Y45015D01*
X355733Y47204D01*
X354290Y49084D01*
X352410Y50526D01*
X350221Y51433D01*
X347872Y51743D01*
D02*
G37*
G36*
X373268D02*
X370918Y51433D01*
X368729Y50526D01*
X366849Y49084D01*
X365406Y47204D01*
X364499Y45015D01*
X364190Y42665D01*
X364499Y40315D01*
X365406Y38126D01*
X366849Y36246D01*
X368729Y34804D01*
X370918Y33897D01*
X373268Y33587D01*
X375617Y33897D01*
X377806Y34804D01*
X379686Y36246D01*
X381129Y38126D01*
X382036Y40315D01*
X382345Y42665D01*
X382036Y45015D01*
X381129Y47204D01*
X379686Y49084D01*
X377806Y50526D01*
X375617Y51433D01*
X373268Y51743D01*
D02*
G37*
G36*
X745490Y50473D02*
X743140Y50163D01*
X740951Y49256D01*
X739071Y47814D01*
X737628Y45934D01*
X736722Y43744D01*
X736412Y41395D01*
X736722Y39046D01*
X737628Y36856D01*
X739071Y34976D01*
X740951Y33533D01*
X743140Y32627D01*
X745490Y32317D01*
X747840Y32627D01*
X750029Y33533D01*
X751909Y34976D01*
X753352Y36856D01*
X754258Y39046D01*
X754568Y41395D01*
X754258Y43744D01*
X753352Y45934D01*
X751909Y47814D01*
X750029Y49256D01*
X747840Y50163D01*
X745490Y50473D01*
D02*
G37*
G36*
X625247Y39193D02*
X616053D01*
Y29999D01*
X617534Y30195D01*
X620098Y31257D01*
X622300Y32946D01*
X623989Y35148D01*
X625051Y37712D01*
X625247Y39193D01*
D02*
G37*
G36*
X718820Y40125D02*
X709626D01*
X709821Y38644D01*
X710883Y36079D01*
X712573Y33878D01*
X714774Y32188D01*
X717338Y31126D01*
X718820Y30931D01*
Y40125D01*
D02*
G37*
G36*
X613513Y39193D02*
X604319D01*
X604514Y37712D01*
X605576Y35148D01*
X607266Y32946D01*
X609467Y31257D01*
X612031Y30195D01*
X613513Y29999D01*
Y39193D01*
D02*
G37*
G36*
X49999Y86111D02*
X44350Y85667D01*
X38840Y84344D01*
X33605Y82175D01*
X28774Y79215D01*
X24465Y75534D01*
X20785Y71226D01*
X17824Y66394D01*
X15656Y61159D01*
X14333Y55649D01*
X13888Y50000D01*
X14333Y44351D01*
X15656Y38841D01*
X17824Y33606D01*
X20785Y28774D01*
X24465Y24465D01*
X28774Y20785D01*
X33605Y17824D01*
X38840Y15656D01*
X44350Y14333D01*
X49999Y13888D01*
X55649Y14333D01*
X61158Y15656D01*
X66394Y17824D01*
X71225Y20785D01*
X75534Y24465D01*
X79214Y28774D01*
X82175Y33606D01*
X84343Y38841D01*
X85666Y44351D01*
X86111Y50000D01*
X85666Y55649D01*
X84343Y61159D01*
X82175Y66394D01*
X79214Y71226D01*
X75534Y75534D01*
X71225Y79215D01*
X66394Y82175D01*
X61158Y84344D01*
X55649Y85667D01*
X49999Y86111D01*
D02*
G37*
G36*
X949999D02*
X944351Y85667D01*
X938840Y84344D01*
X933605Y82175D01*
X928774Y79215D01*
X924465Y75534D01*
X920785Y71226D01*
X917824Y66394D01*
X915656Y61159D01*
X914333Y55649D01*
X913888Y50000D01*
X914333Y44351D01*
X915656Y38841D01*
X917824Y33606D01*
X920785Y28774D01*
X924465Y24465D01*
X928774Y20785D01*
X933605Y17824D01*
X938840Y15656D01*
X944351Y14333D01*
X949999Y13888D01*
X955649Y14333D01*
X961159Y15656D01*
X966394Y17824D01*
X971225Y20785D01*
X975534Y24465D01*
X979214Y28774D01*
X982175Y33606D01*
X984343Y38841D01*
X985666Y44351D01*
X986111Y50000D01*
X985666Y55649D01*
X984343Y61159D01*
X982175Y66394D01*
X979214Y71226D01*
X975534Y75534D01*
X971225Y79215D01*
X966394Y82175D01*
X961159Y84344D01*
X955649Y85667D01*
X949999Y86111D01*
D02*
G37*
G36*
X473598Y41395D02*
X464328D01*
Y32125D01*
X473598D01*
Y41395D01*
D02*
G37*
G36*
X485408D02*
X476138D01*
Y32125D01*
X485408D01*
Y41395D01*
D02*
G37*
G36*
X649183Y49463D02*
X631183D01*
Y31463D01*
X649183D01*
Y49463D01*
D02*
G37*
G36*
X730554Y40125D02*
X721360D01*
Y30931D01*
X722841Y31126D01*
X725406Y32188D01*
X727607Y33878D01*
X729297Y36079D01*
X730359Y38644D01*
X730554Y40125D01*
D02*
G37*
G36*
X589383Y49541D02*
X587033Y49232D01*
X584844Y48325D01*
X582964Y46882D01*
X581521Y45002D01*
X580615Y42813D01*
X580305Y40463D01*
X580615Y38114D01*
X581521Y35924D01*
X582964Y34044D01*
X584844Y32602D01*
X587033Y31695D01*
X589383Y31386D01*
X591732Y31695D01*
X593922Y32602D01*
X595802Y34044D01*
X597244Y35924D01*
X598151Y38114D01*
X598460Y40463D01*
X598151Y42813D01*
X597244Y45002D01*
X595802Y46882D01*
X593922Y48325D01*
X591732Y49232D01*
X589383Y49541D01*
D02*
G37*
G36*
X613513Y50927D02*
X612031Y50732D01*
X609467Y49670D01*
X607266Y47980D01*
X605576Y45779D01*
X604514Y43215D01*
X604319Y41733D01*
X613513D01*
Y50927D01*
D02*
G37*
G36*
X399017Y148554D02*
X397457Y148244D01*
X396133Y147360D01*
X395249Y146037D01*
X394939Y144476D01*
X395249Y142915D01*
X396133Y141592D01*
X397457Y140708D01*
X399017Y140398D01*
X400578Y140708D01*
X401901Y141592D01*
X402785Y142915D01*
X403096Y144476D01*
X402785Y146037D01*
X401901Y147360D01*
X400578Y148244D01*
X399017Y148554D01*
D02*
G37*
G36*
X373617Y148825D02*
X372057Y148515D01*
X370733Y147631D01*
X369850Y146307D01*
X369539Y144747D01*
X369850Y143186D01*
X370733Y141863D01*
X372057Y140979D01*
X373617Y140668D01*
X375178Y140979D01*
X376501Y141863D01*
X377385Y143186D01*
X377696Y144747D01*
X377385Y146307D01*
X376501Y147631D01*
X375178Y148515D01*
X373617Y148825D01*
D02*
G37*
G36*
X827157Y132723D02*
X825596Y132413D01*
X824273Y131529D01*
X823389Y130206D01*
X823079Y128645D01*
X823389Y127084D01*
X824273Y125761D01*
X825596Y124877D01*
X827157Y124567D01*
X828718Y124877D01*
X830041Y125761D01*
X830925Y127084D01*
X831235Y128645D01*
X830925Y130206D01*
X830041Y131529D01*
X828718Y132413D01*
X827157Y132723D01*
D02*
G37*
G36*
X898359Y137723D02*
X896010Y137414D01*
X893820Y136507D01*
X891940Y135064D01*
X890498Y133184D01*
X889591Y130995D01*
X889282Y128645D01*
X889591Y126296D01*
X890498Y124106D01*
X891940Y122226D01*
X893820Y120784D01*
X896010Y119877D01*
X898359Y119568D01*
X900709Y119877D01*
X902898Y120784D01*
X904778Y122226D01*
X906221Y124106D01*
X907128Y126296D01*
X907437Y128645D01*
X907128Y130995D01*
X906221Y133184D01*
X904778Y135064D01*
X902898Y136507D01*
X900709Y137414D01*
X898359Y137723D01*
D02*
G37*
G36*
X932759Y137645D02*
X914759D01*
Y119645D01*
X932759D01*
Y137645D01*
D02*
G37*
G36*
X322817Y149604D02*
X321257Y149293D01*
X319933Y148409D01*
X319049Y147086D01*
X318739Y145525D01*
X319049Y143965D01*
X319933Y142641D01*
X321257Y141757D01*
X322817Y141447D01*
X324378Y141757D01*
X325701Y142641D01*
X326585Y143965D01*
X326896Y145525D01*
X326585Y147086D01*
X325701Y148409D01*
X324378Y149293D01*
X322817Y149604D01*
D02*
G37*
G36*
X297417Y149874D02*
X295857Y149564D01*
X294534Y148680D01*
X293650Y147357D01*
X293339Y145796D01*
X293650Y144235D01*
X294534Y142912D01*
X295857Y142028D01*
X297417Y141718D01*
X298978Y142028D01*
X300301Y142912D01*
X301185Y144235D01*
X301496Y145796D01*
X301185Y147357D01*
X300301Y148680D01*
X298978Y149564D01*
X297417Y149874D01*
D02*
G37*
G36*
X424417Y149129D02*
X422857Y148819D01*
X421534Y147935D01*
X420649Y146611D01*
X420339Y145051D01*
X420649Y143490D01*
X421534Y142167D01*
X422857Y141283D01*
X424417Y140972D01*
X425978Y141283D01*
X427301Y142167D01*
X428185Y143490D01*
X428496Y145051D01*
X428185Y146611D01*
X427301Y147935D01*
X425978Y148819D01*
X424417Y149129D01*
D02*
G37*
G36*
X348217Y148842D02*
X346657Y148531D01*
X345334Y147647D01*
X344450Y146324D01*
X344139Y144763D01*
X344450Y143203D01*
X345334Y141880D01*
X346657Y140996D01*
X348217Y140685D01*
X349778Y140996D01*
X351101Y141880D01*
X351985Y143203D01*
X352296Y144763D01*
X351985Y146324D01*
X351101Y147647D01*
X349778Y148531D01*
X348217Y148842D01*
D02*
G37*
G36*
X449468Y148971D02*
X447907Y148660D01*
X446584Y147776D01*
X445700Y146453D01*
X445389Y144892D01*
X445700Y143332D01*
X446584Y142009D01*
X447907Y141124D01*
X449468Y140814D01*
X451028Y141124D01*
X452351Y142009D01*
X453236Y143332D01*
X453546Y144892D01*
X453236Y146453D01*
X452351Y147776D01*
X451028Y148660D01*
X449468Y148971D01*
D02*
G37*
G36*
X360680Y805045D02*
X359119Y804734D01*
X357796Y803850D01*
X356912Y802527D01*
X356602Y800966D01*
X356912Y799406D01*
X357796Y798082D01*
X358641Y797518D01*
Y103270D01*
X357796Y102706D01*
X356912Y101383D01*
X356602Y99822D01*
X356912Y98261D01*
X357796Y96938D01*
X359119Y96054D01*
X360680Y95744D01*
X362241Y96054D01*
X363564Y96938D01*
X364448Y98261D01*
X364758Y99822D01*
X364448Y101383D01*
X363564Y102706D01*
X362719Y103270D01*
Y797518D01*
X363564Y798082D01*
X364448Y799406D01*
X364758Y800966D01*
X364448Y802527D01*
X363564Y803850D01*
X362241Y804734D01*
X360680Y805045D01*
D02*
G37*
G36*
X473598Y53205D02*
X464328D01*
Y43935D01*
X473598D01*
Y53205D01*
D02*
G37*
G36*
X485408D02*
X476138D01*
Y43935D01*
X485408D01*
Y53205D01*
D02*
G37*
G36*
X721360Y51859D02*
Y42665D01*
X730554D01*
X730359Y44146D01*
X729297Y46710D01*
X727607Y48912D01*
X725406Y50602D01*
X722841Y51664D01*
X721360Y51859D01*
D02*
G37*
G36*
X616053Y50927D02*
Y41733D01*
X625247D01*
X625051Y43215D01*
X623989Y45779D01*
X622300Y47980D01*
X620098Y49670D01*
X617534Y50732D01*
X616053Y50927D01*
D02*
G37*
G36*
X718820Y51859D02*
X717338Y51664D01*
X714774Y50602D01*
X712573Y48912D01*
X710883Y46710D01*
X709821Y44146D01*
X709626Y42665D01*
X718820D01*
Y51859D01*
D02*
G37*
G36*
X284480Y717818D02*
X282919Y717508D01*
X281596Y716624D01*
X280712Y715301D01*
X280402Y713740D01*
X280712Y712179D01*
X281596Y710856D01*
X282441Y710292D01*
Y103270D01*
X281596Y102706D01*
X280712Y101383D01*
X280402Y99822D01*
X280712Y98261D01*
X281596Y96938D01*
X282919Y96054D01*
X284480Y95744D01*
X286041Y96054D01*
X287364Y96938D01*
X288248Y98261D01*
X288558Y99822D01*
X288248Y101383D01*
X287364Y102706D01*
X286519Y103270D01*
Y710292D01*
X287364Y710856D01*
X288248Y712179D01*
X288558Y713740D01*
X288248Y715301D01*
X287364Y716624D01*
X286041Y717508D01*
X284480Y717818D01*
D02*
G37*
G36*
X309880Y718072D02*
X308319Y717762D01*
X306996Y716878D01*
X306112Y715555D01*
X305802Y713994D01*
X306112Y712433D01*
X306996Y711110D01*
X307841Y710546D01*
Y103270D01*
X306996Y102706D01*
X306112Y101383D01*
X305802Y99822D01*
X306112Y98261D01*
X306996Y96938D01*
X308319Y96054D01*
X309880Y95744D01*
X311441Y96054D01*
X312764Y96938D01*
X313648Y98261D01*
X313958Y99822D01*
X313648Y101383D01*
X312764Y102706D01*
X311919Y103270D01*
Y710546D01*
X312764Y711110D01*
X313648Y712433D01*
X313958Y713994D01*
X313648Y715555D01*
X312764Y716878D01*
X311441Y717762D01*
X309880Y718072D01*
D02*
G37*
G36*
X259080Y693180D02*
X257519Y692870D01*
X256196Y691986D01*
X255312Y690663D01*
X255002Y689102D01*
X255312Y687541D01*
X256196Y686218D01*
X257041Y685654D01*
Y103270D01*
X256196Y102706D01*
X255312Y101383D01*
X255002Y99822D01*
X255312Y98261D01*
X256196Y96938D01*
X257519Y96054D01*
X259080Y95744D01*
X260641Y96054D01*
X261964Y96938D01*
X262848Y98261D01*
X263158Y99822D01*
X262848Y101383D01*
X261964Y102706D01*
X261119Y103270D01*
Y685654D01*
X261964Y686218D01*
X262848Y687541D01*
X263158Y689102D01*
X262848Y690663D01*
X261964Y691986D01*
X260641Y692870D01*
X259080Y693180D01*
D02*
G37*
G36*
X589575Y99287D02*
X588014Y98977D01*
X586691Y98093D01*
X585807Y96770D01*
X585497Y95209D01*
X585807Y93648D01*
X586691Y92325D01*
X588014Y91441D01*
X589575Y91131D01*
X591136Y91441D01*
X592459Y92325D01*
X593343Y93648D01*
X593653Y95209D01*
X593343Y96770D01*
X592459Y98093D01*
X591136Y98977D01*
X589575Y99287D01*
D02*
G37*
G36*
X386334Y762522D02*
X384773Y762212D01*
X383450Y761328D01*
X382566Y760005D01*
X382256Y758444D01*
X382566Y756883D01*
X383450Y755560D01*
X384295Y754996D01*
Y103016D01*
X383450Y102452D01*
X382566Y101129D01*
X382256Y99568D01*
X382566Y98007D01*
X383450Y96684D01*
X384773Y95800D01*
X386334Y95490D01*
X387895Y95800D01*
X389218Y96684D01*
X390102Y98007D01*
X390412Y99568D01*
X390102Y101129D01*
X389218Y102452D01*
X388373Y103016D01*
Y754996D01*
X389218Y755560D01*
X390102Y756883D01*
X390412Y758444D01*
X390102Y760005D01*
X389218Y761328D01*
X387895Y762212D01*
X386334Y762522D01*
D02*
G37*
G36*
X560667Y732600D02*
X557795Y732222D01*
X555120Y731113D01*
X552822Y729350D01*
X551059Y727052D01*
X549950Y724377D01*
X549841Y723544D01*
X543985D01*
X543985Y723544D01*
X543205Y723389D01*
X542543Y722947D01*
X524573Y704977D01*
X524131Y704315D01*
X523976Y703535D01*
Y489066D01*
X523131Y488502D01*
X522247Y487179D01*
X521936Y485618D01*
X522247Y484057D01*
X523131Y482734D01*
X524454Y481850D01*
X526015Y481540D01*
X527576Y481850D01*
X528899Y482734D01*
X529783Y484057D01*
X530093Y485618D01*
X529783Y487179D01*
X528899Y488502D01*
X528054Y489066D01*
Y702690D01*
X544830Y719466D01*
X549841D01*
X549950Y718633D01*
X551059Y715957D01*
X552822Y713660D01*
X555120Y711896D01*
X557795Y710788D01*
X560667Y710410D01*
X563539Y710788D01*
X566214Y711896D01*
X568512Y713660D01*
X570275Y715957D01*
X571384Y718633D01*
X571762Y721505D01*
X571384Y724377D01*
X570275Y727052D01*
X568512Y729350D01*
X566214Y731113D01*
X563539Y732222D01*
X560667Y732600D01*
D02*
G37*
G36*
X491998Y1034604D02*
Y1030478D01*
X496124D01*
X495947Y1031370D01*
X494722Y1033202D01*
X492890Y1034427D01*
X491998Y1034604D01*
D02*
G37*
G36*
X454914Y1034858D02*
X454022Y1034681D01*
X452190Y1033456D01*
X450965Y1031624D01*
X450788Y1030732D01*
X454914D01*
Y1034858D01*
D02*
G37*
G36*
X489458Y1034604D02*
X488566Y1034427D01*
X486734Y1033202D01*
X485509Y1031370D01*
X485332Y1030478D01*
X489458D01*
Y1034604D01*
D02*
G37*
G36*
X472186Y1028192D02*
X468060D01*
X468237Y1027300D01*
X469462Y1025468D01*
X471294Y1024243D01*
X472186Y1024066D01*
Y1028192D01*
D02*
G37*
G36*
X478852D02*
X474726D01*
Y1024066D01*
X475618Y1024243D01*
X477450Y1025468D01*
X478675Y1027300D01*
X478852Y1028192D01*
D02*
G37*
G36*
X181425Y1047558D02*
X180533Y1047381D01*
X178700Y1046156D01*
X177476Y1044324D01*
X177299Y1043432D01*
X181425D01*
Y1047558D01*
D02*
G37*
G36*
X191516D02*
Y1043432D01*
X195642D01*
X195465Y1044324D01*
X194240Y1046156D01*
X192408Y1047381D01*
X191516Y1047558D01*
D02*
G37*
G36*
X474726Y1034858D02*
Y1030732D01*
X478852D01*
X478675Y1031624D01*
X477450Y1033456D01*
X475618Y1034681D01*
X474726Y1034858D01*
D02*
G37*
G36*
X457454D02*
Y1030732D01*
X461580D01*
X461403Y1031624D01*
X460178Y1033456D01*
X458346Y1034681D01*
X457454Y1034858D01*
D02*
G37*
G36*
X472186D02*
X471294Y1034681D01*
X469462Y1033456D01*
X468237Y1031624D01*
X468060Y1030732D01*
X472186D01*
Y1034858D01*
D02*
G37*
G36*
X461580Y1028192D02*
X457454D01*
Y1024066D01*
X458346Y1024243D01*
X460178Y1025468D01*
X461403Y1027300D01*
X461580Y1028192D01*
D02*
G37*
G36*
X496124Y1027938D02*
X485332D01*
X485509Y1027046D01*
X486734Y1025214D01*
Y1024312D01*
X485509Y1022480D01*
X485332Y1021588D01*
X496124D01*
X495947Y1022480D01*
X494722Y1024312D01*
Y1025214D01*
X495947Y1027046D01*
X496124Y1027938D01*
D02*
G37*
G36*
X729270Y1039986D02*
X711270D01*
Y1021986D01*
X729270D01*
Y1039986D01*
D02*
G37*
G36*
X902420Y1041257D02*
X899809Y1040914D01*
X897377Y1039906D01*
X895288Y1038303D01*
X893685Y1036214D01*
X892677Y1033782D01*
X892334Y1031171D01*
X892677Y1028561D01*
X893685Y1026128D01*
X895288Y1024039D01*
X897377Y1022436D01*
X899809Y1021429D01*
X902420Y1021085D01*
X905031Y1021429D01*
X907463Y1022436D01*
X909552Y1024039D01*
X911155Y1026128D01*
X912163Y1028561D01*
X912506Y1031171D01*
X912163Y1033782D01*
X911155Y1036214D01*
X909552Y1038303D01*
X907463Y1039906D01*
X905031Y1040914D01*
X902420Y1041257D01*
D02*
G37*
G36*
X489458Y1019048D02*
X485332D01*
X485509Y1018156D01*
X486734Y1016324D01*
X488566Y1015099D01*
X489458Y1014922D01*
Y1019048D01*
D02*
G37*
G36*
X496124D02*
X491998D01*
Y1014922D01*
X492890Y1015099D01*
X494722Y1016324D01*
X495947Y1018156D01*
X496124Y1019048D01*
D02*
G37*
G36*
X195642Y1028064D02*
X191516D01*
Y1023938D01*
X192408Y1024115D01*
X194240Y1025340D01*
X195465Y1027172D01*
X195642Y1028064D01*
D02*
G37*
G36*
X454914Y1028192D02*
X450788D01*
X450965Y1027300D01*
X452190Y1025468D01*
X454022Y1024243D01*
X454914Y1024066D01*
Y1028192D01*
D02*
G37*
G36*
X181425Y1028064D02*
X177299D01*
X177476Y1027172D01*
X178700Y1025340D01*
X180533Y1024115D01*
X181425Y1023938D01*
Y1028064D01*
D02*
G37*
G36*
X947420Y1040249D02*
X945070Y1039939D01*
X942881Y1039033D01*
X941001Y1037590D01*
X939558Y1035710D01*
X938652Y1033521D01*
X938342Y1031171D01*
X938652Y1028822D01*
X939558Y1026632D01*
X941001Y1024752D01*
X942881Y1023310D01*
X945070Y1022403D01*
X947420Y1022094D01*
X949770Y1022403D01*
X951959Y1023310D01*
X953839Y1024752D01*
X955282Y1026632D01*
X956188Y1028822D01*
X956498Y1031171D01*
X956188Y1033521D01*
X955282Y1035710D01*
X953839Y1037590D01*
X951959Y1039033D01*
X949770Y1039939D01*
X947420Y1040249D01*
D02*
G37*
G36*
X788670Y1039865D02*
X786420Y1039569D01*
X784323Y1038701D01*
X782522Y1037319D01*
X781140Y1035518D01*
X780272Y1033421D01*
X779976Y1031171D01*
X780272Y1028921D01*
X781140Y1026824D01*
X782522Y1025023D01*
X784323Y1023642D01*
X786420Y1022773D01*
X788670Y1022477D01*
X790920Y1022773D01*
X793017Y1023642D01*
X794818Y1025023D01*
X796200Y1026824D01*
X797068Y1028921D01*
X797364Y1031171D01*
X797068Y1033421D01*
X796200Y1035518D01*
X794818Y1037319D01*
X793017Y1038701D01*
X790920Y1039569D01*
X788670Y1039865D01*
D02*
G37*
G36*
X188976Y1047558D02*
X188084Y1047381D01*
X186470Y1046302D01*
X184856Y1047381D01*
X183965Y1047558D01*
Y1042162D01*
X182694D01*
Y1040892D01*
X177299D01*
X177476Y1040000D01*
X178174Y1038955D01*
X177476Y1037909D01*
X177299Y1037018D01*
X182694D01*
Y1034478D01*
X177299D01*
X177476Y1033586D01*
X178174Y1032541D01*
X177476Y1031495D01*
X177299Y1030604D01*
X182694D01*
Y1029334D01*
X183965D01*
Y1023938D01*
X184856Y1024115D01*
X186470Y1025194D01*
X188084Y1024115D01*
X188976Y1023938D01*
Y1029334D01*
X190246D01*
Y1030604D01*
X195642D01*
X195465Y1031495D01*
X194766Y1032541D01*
X195465Y1033586D01*
X195642Y1034478D01*
X190246D01*
Y1037018D01*
X195642D01*
X195465Y1037909D01*
X194766Y1038955D01*
X195465Y1040000D01*
X195642Y1040892D01*
X190246D01*
Y1042162D01*
X188976D01*
Y1047558D01*
D02*
G37*
G36*
X693259Y1123950D02*
X684065D01*
X684261Y1122468D01*
X685323Y1119904D01*
X687012Y1117703D01*
X689214Y1116013D01*
X691778Y1114951D01*
X693259Y1114756D01*
Y1123950D01*
D02*
G37*
G36*
X704993D02*
X695799D01*
Y1114756D01*
X697281Y1114951D01*
X699845Y1116013D01*
X702047Y1117703D01*
X703736Y1119904D01*
X704798Y1122468D01*
X704993Y1123950D01*
D02*
G37*
G36*
X949999Y1186111D02*
X944351Y1185667D01*
X938840Y1184344D01*
X933605Y1182175D01*
X928774Y1179214D01*
X924465Y1175534D01*
X920785Y1171226D01*
X917824Y1166394D01*
X915656Y1161159D01*
X914333Y1155649D01*
X913888Y1150000D01*
X914333Y1144351D01*
X915656Y1138841D01*
X917824Y1133606D01*
X920785Y1128774D01*
X924465Y1124465D01*
X928774Y1120785D01*
X933605Y1117824D01*
X938840Y1115656D01*
X944351Y1114333D01*
X949999Y1113888D01*
X955649Y1114333D01*
X961159Y1115656D01*
X966394Y1117824D01*
X971225Y1120785D01*
X975534Y1124465D01*
X979214Y1128774D01*
X982175Y1133606D01*
X984343Y1138841D01*
X985666Y1144351D01*
X986111Y1150000D01*
X985666Y1155649D01*
X984343Y1161159D01*
X982175Y1166394D01*
X979214Y1171226D01*
X975534Y1175534D01*
X971225Y1179214D01*
X966394Y1182175D01*
X961159Y1184344D01*
X955649Y1185667D01*
X949999Y1186111D01*
D02*
G37*
G36*
X471678Y1109788D02*
Y1105662D01*
X475804D01*
X475627Y1106554D01*
X474402Y1108386D01*
X472570Y1109611D01*
X471678Y1109788D01*
D02*
G37*
G36*
X49999Y1186111D02*
X44350Y1185667D01*
X38840Y1184344D01*
X33605Y1182175D01*
X28774Y1179214D01*
X24465Y1175534D01*
X20785Y1171226D01*
X17824Y1166394D01*
X15656Y1161159D01*
X14333Y1155649D01*
X13888Y1150000D01*
X14333Y1144351D01*
X15656Y1138841D01*
X17824Y1133606D01*
X20785Y1128774D01*
X24465Y1124465D01*
X28774Y1120785D01*
X33605Y1117824D01*
X38840Y1115656D01*
X44350Y1114333D01*
X49999Y1113888D01*
X55649Y1114333D01*
X61158Y1115656D01*
X66394Y1117824D01*
X71225Y1120785D01*
X75534Y1124465D01*
X79214Y1128774D01*
X82175Y1133606D01*
X84343Y1138841D01*
X85666Y1144351D01*
X86111Y1150000D01*
X85666Y1155649D01*
X84343Y1161159D01*
X82175Y1166394D01*
X79214Y1171226D01*
X75534Y1175534D01*
X71225Y1179214D01*
X66394Y1182175D01*
X61158Y1184344D01*
X55649Y1185667D01*
X49999Y1186111D01*
D02*
G37*
G36*
X693259Y1135684D02*
X691778Y1135489D01*
X689214Y1134427D01*
X687012Y1132737D01*
X685323Y1130536D01*
X684261Y1127971D01*
X684066Y1126490D01*
X693259D01*
Y1135684D01*
D02*
G37*
G36*
X695799Y1135684D02*
Y1126490D01*
X704993D01*
X704798Y1127971D01*
X703736Y1130536D01*
X702047Y1132737D01*
X699845Y1134427D01*
X697281Y1135489D01*
X695799Y1135684D01*
D02*
G37*
G36*
X797972Y1134220D02*
X779972D01*
Y1116220D01*
X797972D01*
Y1134220D01*
D02*
G37*
G36*
X763572Y1134298D02*
X761223Y1133988D01*
X759033Y1133082D01*
X757153Y1131639D01*
X755711Y1129759D01*
X754804Y1127570D01*
X754494Y1125220D01*
X754804Y1122870D01*
X755711Y1120681D01*
X757153Y1118801D01*
X759033Y1117358D01*
X761223Y1116452D01*
X763572Y1116142D01*
X765921Y1116452D01*
X768111Y1117358D01*
X769991Y1118801D01*
X771433Y1120681D01*
X772340Y1122870D01*
X772650Y1125220D01*
X772340Y1127570D01*
X771433Y1129759D01*
X769991Y1131639D01*
X768111Y1133082D01*
X765921Y1133988D01*
X763572Y1134298D01*
D02*
G37*
G36*
X728929Y1134220D02*
X710929D01*
Y1116220D01*
X728929D01*
Y1134220D01*
D02*
G37*
G36*
X469138Y1109788D02*
X468246Y1109611D01*
X466414Y1108386D01*
X465189Y1106554D01*
X465012Y1105662D01*
X469138D01*
Y1109788D01*
D02*
G37*
G36*
X468884Y1090168D02*
X464758D01*
X464935Y1089276D01*
X466160Y1087444D01*
X467992Y1086219D01*
X468884Y1086042D01*
Y1090168D01*
D02*
G37*
G36*
X475550D02*
X471424D01*
Y1086042D01*
X472316Y1086219D01*
X474148Y1087444D01*
X475373Y1089276D01*
X475550Y1090168D01*
D02*
G37*
G36*
X228204Y1056628D02*
X226643Y1056318D01*
X225320Y1055433D01*
X224585Y1054334D01*
X200558D01*
X199823Y1055433D01*
X198500Y1056318D01*
X196939Y1056628D01*
X195379Y1056318D01*
X194055Y1055433D01*
X193171Y1054110D01*
X192861Y1052550D01*
X193171Y1050989D01*
X194055Y1049666D01*
X195379Y1048782D01*
X196939Y1048471D01*
X198500Y1048782D01*
X199823Y1049666D01*
X200558Y1050765D01*
X224585D01*
X225320Y1049666D01*
X226643Y1048782D01*
X228204Y1048471D01*
X229765Y1048782D01*
X231088Y1049666D01*
X231972Y1050989D01*
X232282Y1052550D01*
X231972Y1054110D01*
X231088Y1055433D01*
X229765Y1056318D01*
X228204Y1056628D01*
D02*
G37*
G36*
X720270Y1065464D02*
X717921Y1065154D01*
X715731Y1064248D01*
X713851Y1062805D01*
X712409Y1060925D01*
X711502Y1058736D01*
X711192Y1056386D01*
X711502Y1054036D01*
X712409Y1051847D01*
X713851Y1049967D01*
X715731Y1048524D01*
X717921Y1047618D01*
X720270Y1047308D01*
X722620Y1047618D01*
X724809Y1048524D01*
X726689Y1049967D01*
X728132Y1051847D01*
X729038Y1054036D01*
X729348Y1056386D01*
X729038Y1058736D01*
X728132Y1060925D01*
X726689Y1062805D01*
X724809Y1064248D01*
X722620Y1065154D01*
X720270Y1065464D01*
D02*
G37*
G36*
X788670Y1065266D02*
X786420Y1064969D01*
X784323Y1064101D01*
X782522Y1062719D01*
X781140Y1060918D01*
X780272Y1058821D01*
X779976Y1056571D01*
X780272Y1054321D01*
X781140Y1052224D01*
X782522Y1050423D01*
X784323Y1049042D01*
X786420Y1048173D01*
X788670Y1047877D01*
X790920Y1048173D01*
X793017Y1049042D01*
X794818Y1050423D01*
X796200Y1052224D01*
X797068Y1054321D01*
X797364Y1056571D01*
X797068Y1058821D01*
X796200Y1060918D01*
X794818Y1062719D01*
X793017Y1064101D01*
X790920Y1064969D01*
X788670Y1065266D01*
D02*
G37*
G36*
X469138Y1103122D02*
X465012D01*
X465189Y1102230D01*
X466414Y1100398D01*
X468246Y1099173D01*
X469138Y1098996D01*
Y1103122D01*
D02*
G37*
G36*
X475804D02*
X471678D01*
Y1098996D01*
X472570Y1099173D01*
X474402Y1100398D01*
X475627Y1102230D01*
X475804Y1103122D01*
D02*
G37*
G36*
X471424Y1096834D02*
Y1092708D01*
X475550D01*
X475373Y1093600D01*
X474148Y1095432D01*
X472316Y1096657D01*
X471424Y1096834D01*
D02*
G37*
G36*
X208280Y1090690D02*
X206719Y1090380D01*
X205396Y1089496D01*
X204662Y1088397D01*
X204029Y1088284D01*
X203895D01*
X203262Y1088397D01*
X202528Y1089496D01*
X201205Y1090380D01*
X199644Y1090690D01*
X198083Y1090380D01*
X196760Y1089496D01*
X195876Y1088173D01*
X195566Y1086612D01*
X195876Y1085051D01*
X196760Y1083728D01*
X198083Y1082844D01*
X198871Y1082687D01*
Y1081393D01*
X198083Y1081236D01*
X196760Y1080352D01*
X195876Y1079029D01*
X195566Y1077468D01*
X195876Y1075907D01*
X196760Y1074584D01*
X198083Y1073700D01*
X199644Y1073390D01*
X201205Y1073700D01*
X202528Y1074584D01*
X203262Y1075683D01*
X203895Y1075796D01*
X204029D01*
X204662Y1075683D01*
X205396Y1074584D01*
X206719Y1073700D01*
X208280Y1073390D01*
X209841Y1073700D01*
X211164Y1074584D01*
X212048Y1075907D01*
X212358Y1077468D01*
X212048Y1079029D01*
X211164Y1080352D01*
X209841Y1081236D01*
X209053Y1081393D01*
Y1082687D01*
X209841Y1082844D01*
X211164Y1083728D01*
X212048Y1085051D01*
X212358Y1086612D01*
X212048Y1088173D01*
X211164Y1089496D01*
X209841Y1090380D01*
X208280Y1090690D01*
D02*
G37*
G36*
X468884Y1096834D02*
X467992Y1096657D01*
X466160Y1095432D01*
X464935Y1093600D01*
X464758Y1092708D01*
X468884D01*
Y1096834D01*
D02*
G37*
G36*
X351536Y1016316D02*
Y1012190D01*
X355662D01*
X355485Y1013082D01*
X354260Y1014914D01*
X352428Y1016139D01*
X351536Y1016316D01*
D02*
G37*
G36*
X560667Y859600D02*
X557795Y859222D01*
X555120Y858113D01*
X552822Y856350D01*
X551059Y854052D01*
X549950Y851376D01*
X549572Y848505D01*
X549950Y845633D01*
X551059Y842957D01*
X552822Y840660D01*
X555120Y838896D01*
X557795Y837788D01*
X560667Y837410D01*
X563539Y837788D01*
X566214Y838896D01*
X568512Y840660D01*
X570275Y842957D01*
X571384Y845633D01*
X571762Y848505D01*
X571384Y851376D01*
X570275Y854052D01*
X568512Y856350D01*
X566214Y858113D01*
X563539Y859222D01*
X560667Y859600D01*
D02*
G37*
G36*
X586067D02*
X583195Y859222D01*
X580519Y858113D01*
X578222Y856350D01*
X576459Y854052D01*
X575350Y851376D01*
X574972Y848505D01*
X575350Y845633D01*
X576459Y842957D01*
X578222Y840660D01*
X580519Y838896D01*
X583195Y837788D01*
X586067Y837410D01*
X588938Y837788D01*
X591614Y838896D01*
X593912Y840660D01*
X595675Y842957D01*
X596784Y845633D01*
X597162Y848505D01*
X596784Y851376D01*
X595675Y854052D01*
X593912Y856350D01*
X591614Y858113D01*
X588938Y859222D01*
X586067Y859600D01*
D02*
G37*
G36*
X128867Y859600D02*
X125995Y859222D01*
X123319Y858113D01*
X121021Y856350D01*
X119258Y854052D01*
X118150Y851376D01*
X117772Y848505D01*
X118150Y845633D01*
X119258Y842957D01*
X121021Y840659D01*
X123319Y838896D01*
X125995Y837788D01*
X128867Y837410D01*
X131738Y837788D01*
X134414Y838896D01*
X136712Y840659D01*
X138475Y842957D01*
X139584Y845633D01*
X139962Y848505D01*
X139584Y851376D01*
X138475Y854052D01*
X136712Y856350D01*
X134414Y858113D01*
X131738Y859222D01*
X128867Y859600D01*
D02*
G37*
G36*
X959338Y844950D02*
X945621D01*
Y831232D01*
X947299Y831398D01*
X950134Y832258D01*
X952747Y833654D01*
X955037Y835534D01*
X956916Y837824D01*
X958313Y840437D01*
X959173Y843272D01*
X959338Y844950D01*
D02*
G37*
G36*
X166748Y847235D02*
X154267D01*
X141786D01*
X142050Y845231D01*
X143313Y842181D01*
X145323Y839561D01*
X146182Y838902D01*
X145774Y837699D01*
X141422D01*
X140642Y837544D01*
X139980Y837102D01*
X139980Y837102D01*
X135080Y832202D01*
X134414Y832713D01*
X131738Y833822D01*
X128867Y834200D01*
X125995Y833822D01*
X123319Y832713D01*
X121021Y830950D01*
X119258Y828652D01*
X118150Y825976D01*
X117772Y823105D01*
X118150Y820233D01*
X119258Y817557D01*
X121021Y815259D01*
X123319Y813496D01*
X125995Y812388D01*
X128867Y812010D01*
X131738Y812388D01*
X134414Y813496D01*
X136712Y815259D01*
X138475Y817557D01*
X139584Y820233D01*
X139962Y823105D01*
X139584Y825976D01*
X138475Y828652D01*
X137964Y829318D01*
X142267Y833621D01*
X147816D01*
X148247Y832351D01*
X146421Y830950D01*
X144658Y828652D01*
X143550Y825976D01*
X143172Y823105D01*
X143550Y820233D01*
X144658Y817557D01*
X146421Y815259D01*
X148293Y813823D01*
X147862Y812553D01*
X141676D01*
X140896Y812398D01*
X140234Y811956D01*
X140234Y811956D01*
X135080Y806802D01*
X134414Y807313D01*
X131738Y808422D01*
X128867Y808800D01*
X125995Y808422D01*
X123319Y807313D01*
X121021Y805550D01*
X119258Y803252D01*
X118150Y800576D01*
X117772Y797705D01*
X118150Y794833D01*
X119258Y792157D01*
X121021Y789859D01*
X122893Y788423D01*
X122462Y787153D01*
X113538D01*
X112758Y786998D01*
X112096Y786556D01*
X112096Y786556D01*
X103968Y778428D01*
X103526Y777766D01*
X103371Y776986D01*
Y188918D01*
X103526Y188137D01*
X103968Y187476D01*
X115442Y176002D01*
X115244Y175006D01*
X115554Y173445D01*
X116438Y172122D01*
X117761Y171238D01*
X119322Y170928D01*
X120883Y171238D01*
X122206Y172122D01*
X123090Y173445D01*
X123400Y175006D01*
X123090Y176567D01*
X122206Y177890D01*
X120883Y178774D01*
X119322Y179084D01*
X118326Y178886D01*
X107449Y189762D01*
Y776141D01*
X114383Y783075D01*
X122821D01*
X123156Y782295D01*
X123178Y781805D01*
X121021Y780150D01*
X119258Y777852D01*
X118150Y775176D01*
X117772Y772305D01*
X118150Y769433D01*
X119258Y766757D01*
X121021Y764460D01*
X123319Y762696D01*
X125995Y761588D01*
X128867Y761210D01*
X131738Y761588D01*
X134414Y762696D01*
X136712Y764460D01*
X138475Y766757D01*
X139584Y769433D01*
X139962Y772305D01*
X139584Y775176D01*
X138475Y777852D01*
X136712Y780150D01*
X134556Y781805D01*
X134578Y782295D01*
X134912Y783075D01*
X141676D01*
X142456Y783230D01*
X143118Y783672D01*
X148053Y788607D01*
X148719Y788096D01*
X151395Y786988D01*
X154267Y786610D01*
X157138Y786988D01*
X159814Y788096D01*
X162112Y789859D01*
X163875Y792157D01*
X164984Y794833D01*
X165362Y797705D01*
X164984Y800576D01*
X163875Y803252D01*
X162112Y805550D01*
X159956Y807205D01*
X159978Y807695D01*
X160312Y808475D01*
X394887D01*
X409441Y793921D01*
Y103270D01*
X408596Y102706D01*
X407712Y101383D01*
X407402Y99822D01*
X407712Y98261D01*
X408596Y96938D01*
X409919Y96054D01*
X411480Y95744D01*
X413041Y96054D01*
X414364Y96938D01*
X415248Y98261D01*
X415558Y99822D01*
X415248Y101383D01*
X414364Y102706D01*
X413519Y103270D01*
Y794766D01*
X413364Y795546D01*
X412922Y796208D01*
X412922Y796208D01*
X397174Y811956D01*
X396512Y812398D01*
X395732Y812553D01*
X160671D01*
X160240Y813823D01*
X162112Y815259D01*
X163875Y817557D01*
X164984Y820233D01*
X165362Y823105D01*
X164984Y825976D01*
X163875Y828652D01*
X162112Y830950D01*
X160287Y832351D01*
X160718Y833621D01*
X429685D01*
X434841Y828465D01*
Y103270D01*
X433996Y102706D01*
X433112Y101383D01*
X432802Y99822D01*
X433112Y98261D01*
X433996Y96938D01*
X435319Y96054D01*
X436880Y95744D01*
X438441Y96054D01*
X439764Y96938D01*
X440648Y98261D01*
X440958Y99822D01*
X440648Y101383D01*
X439764Y102706D01*
X438919Y103270D01*
Y829310D01*
X438764Y830090D01*
X438322Y830752D01*
X438322Y830752D01*
X431972Y837102D01*
X431310Y837544D01*
X430530Y837699D01*
X162759D01*
X162351Y838902D01*
X163210Y839561D01*
X165220Y842181D01*
X166484Y845231D01*
X166748Y847235D01*
D02*
G37*
G36*
X155537Y860986D02*
Y849775D01*
X166748D01*
X166484Y851778D01*
X165220Y854829D01*
X163210Y857449D01*
X160591Y859458D01*
X157540Y860722D01*
X155537Y860986D01*
D02*
G37*
G36*
X584797Y872635D02*
X573527D01*
Y861365D01*
X584797D01*
Y872635D01*
D02*
G37*
G36*
X152997Y860986D02*
X150993Y860722D01*
X147943Y859458D01*
X145323Y857449D01*
X143313Y854829D01*
X142050Y851778D01*
X141786Y849775D01*
X152997D01*
Y860986D01*
D02*
G37*
G36*
X943081Y861208D02*
X941402Y861042D01*
X938567Y860182D01*
X935954Y858786D01*
X933664Y856906D01*
X931785Y854616D01*
X930388Y852003D01*
X929528Y849168D01*
X929363Y847490D01*
X943081D01*
Y861208D01*
D02*
G37*
G36*
X945621Y861208D02*
Y847490D01*
X959338D01*
X959173Y849168D01*
X958313Y852003D01*
X956916Y854616D01*
X955037Y856906D01*
X952747Y858786D01*
X950134Y860182D01*
X947299Y861042D01*
X945621Y861208D01*
D02*
G37*
G36*
X943081Y844950D02*
X929363D01*
X929528Y843272D01*
X930388Y840437D01*
X931785Y837824D01*
X933664Y835534D01*
X935954Y833654D01*
X938567Y832258D01*
X941402Y831398D01*
X943081Y831232D01*
Y844950D01*
D02*
G37*
G36*
X560667Y758000D02*
X557795Y757622D01*
X555120Y756513D01*
X552822Y754750D01*
X551059Y752452D01*
X549950Y749777D01*
X549841Y748944D01*
X528525D01*
X528525Y748944D01*
X527745Y748789D01*
X527083Y748347D01*
X527083Y748347D01*
X514178Y735442D01*
X513736Y734780D01*
X513581Y734000D01*
Y513722D01*
X512736Y513158D01*
X511852Y511835D01*
X511542Y510274D01*
X511852Y508713D01*
X512736Y507390D01*
X514059Y506506D01*
X515620Y506196D01*
X517181Y506506D01*
X518504Y507390D01*
X519388Y508713D01*
X519698Y510274D01*
X519388Y511835D01*
X518504Y513158D01*
X517659Y513722D01*
Y733155D01*
X529370Y744866D01*
X549841D01*
X549950Y744033D01*
X551059Y741357D01*
X552822Y739060D01*
X555120Y737296D01*
X557795Y736188D01*
X560667Y735810D01*
X563539Y736188D01*
X566214Y737296D01*
X568512Y739060D01*
X570275Y741357D01*
X571384Y744033D01*
X571762Y746905D01*
X571384Y749777D01*
X570275Y752452D01*
X568512Y754750D01*
X566214Y756513D01*
X563539Y757622D01*
X560667Y758000D01*
D02*
G37*
G36*
X154267Y783400D02*
X151395Y783022D01*
X148719Y781913D01*
X146421Y780150D01*
X144658Y777852D01*
X143550Y775176D01*
X143172Y772305D01*
X143550Y769433D01*
X144658Y766757D01*
X146421Y764460D01*
X148719Y762696D01*
X151395Y761588D01*
X154267Y761210D01*
X157138Y761588D01*
X159814Y762696D01*
X162112Y764460D01*
X163875Y766757D01*
X164984Y769433D01*
X165362Y772305D01*
X164984Y775176D01*
X163875Y777852D01*
X162112Y780150D01*
X159814Y781913D01*
X157138Y783022D01*
X154267Y783400D01*
D02*
G37*
G36*
X586067Y758000D02*
X583195Y757622D01*
X580519Y756513D01*
X578222Y754750D01*
X576459Y752452D01*
X575350Y749777D01*
X574972Y746905D01*
X575350Y744033D01*
X576459Y741357D01*
X578222Y739060D01*
X580519Y737296D01*
X583195Y736188D01*
X586067Y735810D01*
X588938Y736188D01*
X591614Y737296D01*
X593912Y739060D01*
X595675Y741357D01*
X596784Y744033D01*
X597162Y746905D01*
X596784Y749777D01*
X595675Y752452D01*
X593912Y754750D01*
X591614Y756513D01*
X588938Y757622D01*
X586067Y758000D01*
D02*
G37*
G36*
X154267Y758000D02*
X151395Y757622D01*
X148719Y756513D01*
X146421Y754750D01*
X144658Y752452D01*
X143550Y749776D01*
X143172Y746905D01*
X143550Y744033D01*
X144658Y741357D01*
X146421Y739060D01*
X148293Y737623D01*
X147862Y736353D01*
X141676D01*
X140896Y736198D01*
X140234Y735756D01*
X140234Y735756D01*
X135080Y730602D01*
X134414Y731113D01*
X131738Y732222D01*
X128867Y732600D01*
X125995Y732222D01*
X123319Y731113D01*
X121021Y729350D01*
X119258Y727052D01*
X118150Y724376D01*
X117772Y721505D01*
X118150Y718633D01*
X119258Y715957D01*
X121021Y713660D01*
X123319Y711896D01*
X125995Y710788D01*
X128867Y710410D01*
X131738Y710788D01*
X134414Y711896D01*
X136712Y713660D01*
X138475Y715957D01*
X139584Y718633D01*
X139962Y721505D01*
X139584Y724376D01*
X138475Y727052D01*
X137964Y727718D01*
X142521Y732275D01*
X148221D01*
X148556Y731495D01*
X148578Y731005D01*
X146421Y729350D01*
X144658Y727052D01*
X143550Y724376D01*
X143172Y721505D01*
X143550Y718633D01*
X144658Y715957D01*
X146421Y713660D01*
X148719Y711896D01*
X151395Y710788D01*
X154267Y710410D01*
X157138Y710788D01*
X159814Y711896D01*
X162112Y713660D01*
X163875Y715957D01*
X164984Y718633D01*
X165093Y719466D01*
X180988D01*
X247338Y653116D01*
X247999Y652674D01*
X248187Y652637D01*
X248830Y651674D01*
X250153Y650790D01*
X251714Y650480D01*
X253275Y650790D01*
X254598Y651674D01*
X255482Y652997D01*
X255792Y654558D01*
X255482Y656119D01*
X254598Y657442D01*
X253275Y658326D01*
X251714Y658636D01*
X250153Y658326D01*
X248830Y657442D01*
X248784Y657437D01*
X183275Y722947D01*
X182613Y723389D01*
X181833Y723544D01*
X165093D01*
X164984Y724376D01*
X163875Y727052D01*
X162112Y729350D01*
X159956Y731005D01*
X159978Y731495D01*
X160312Y732275D01*
X317417D01*
X333241Y716451D01*
Y103270D01*
X332396Y102706D01*
X331512Y101383D01*
X331202Y99822D01*
X331512Y98261D01*
X332396Y96938D01*
X333719Y96054D01*
X335280Y95744D01*
X336841Y96054D01*
X338164Y96938D01*
X339048Y98261D01*
X339358Y99822D01*
X339048Y101383D01*
X338164Y102706D01*
X337319Y103270D01*
Y717296D01*
X337164Y718076D01*
X336722Y718738D01*
X319704Y735756D01*
X319042Y736198D01*
X318262Y736353D01*
X160671D01*
X160240Y737623D01*
X162112Y739060D01*
X163875Y741357D01*
X164984Y744033D01*
X165362Y746905D01*
X164984Y749776D01*
X163875Y752452D01*
X162112Y754750D01*
X159814Y756513D01*
X157138Y757622D01*
X154267Y758000D01*
D02*
G37*
G36*
X128867D02*
X125995Y757622D01*
X123319Y756513D01*
X121021Y754750D01*
X119258Y752452D01*
X118150Y749776D01*
X117772Y746905D01*
X118150Y744033D01*
X119258Y741357D01*
X121021Y739060D01*
X123319Y737296D01*
X125995Y736188D01*
X128867Y735810D01*
X131738Y736188D01*
X134414Y737296D01*
X136712Y739060D01*
X138475Y741357D01*
X139584Y744033D01*
X139962Y746905D01*
X139584Y749776D01*
X138475Y752452D01*
X136712Y754750D01*
X134414Y756513D01*
X131738Y757622D01*
X128867Y758000D01*
D02*
G37*
G36*
X560667Y834200D02*
X557795Y833822D01*
X555120Y832713D01*
X552822Y830950D01*
X551059Y828652D01*
X549950Y825976D01*
X549572Y823105D01*
X549950Y820233D01*
X551059Y817557D01*
X552822Y815260D01*
X555120Y813496D01*
X557795Y812388D01*
X560667Y812010D01*
X563539Y812388D01*
X566214Y813496D01*
X568512Y815260D01*
X570275Y817557D01*
X571384Y820233D01*
X571762Y823105D01*
X571384Y825976D01*
X570275Y828652D01*
X568512Y830950D01*
X566214Y832713D01*
X563539Y833822D01*
X560667Y834200D01*
D02*
G37*
G36*
X586067D02*
X583195Y833822D01*
X580519Y832713D01*
X578222Y830950D01*
X576459Y828652D01*
X575350Y825976D01*
X574972Y823105D01*
X575350Y820233D01*
X576459Y817557D01*
X578222Y815260D01*
X580519Y813496D01*
X583195Y812388D01*
X586067Y812010D01*
X588938Y812388D01*
X591614Y813496D01*
X593912Y815260D01*
X595675Y817557D01*
X596784Y820233D01*
X597162Y823105D01*
X596784Y825976D01*
X595675Y828652D01*
X593912Y830950D01*
X591614Y832713D01*
X588938Y833822D01*
X586067Y834200D01*
D02*
G37*
G36*
X560667Y808800D02*
X557795Y808422D01*
X555120Y807313D01*
X552822Y805550D01*
X551059Y803252D01*
X549950Y800576D01*
X549841Y799744D01*
X506875D01*
X506875Y799744D01*
X506095Y799589D01*
X505433Y799147D01*
X492588Y786302D01*
X492146Y785640D01*
X491991Y784860D01*
Y604158D01*
X491146Y603594D01*
X490262Y602271D01*
X489952Y600710D01*
X490262Y599149D01*
X491146Y597826D01*
X492469Y596942D01*
X494030Y596632D01*
X495591Y596942D01*
X496914Y597826D01*
X497798Y599149D01*
X498108Y600710D01*
X497798Y602271D01*
X496914Y603594D01*
X496069Y604158D01*
Y784015D01*
X507720Y795666D01*
X549841D01*
X549950Y794833D01*
X551059Y792157D01*
X552822Y789860D01*
X555120Y788096D01*
X557795Y786988D01*
X560667Y786610D01*
X563539Y786988D01*
X566214Y788096D01*
X568512Y789860D01*
X570275Y792157D01*
X571384Y794833D01*
X571762Y797705D01*
X571384Y800576D01*
X570275Y803252D01*
X568512Y805550D01*
X566214Y807313D01*
X563539Y808422D01*
X560667Y808800D01*
D02*
G37*
G36*
Y783400D02*
X557795Y783022D01*
X555120Y781913D01*
X552822Y780150D01*
X551059Y777852D01*
X549950Y775176D01*
X549841Y774344D01*
X518813D01*
X518032Y774189D01*
X517371Y773747D01*
X503166Y759542D01*
X502724Y758880D01*
X502569Y758100D01*
Y496208D01*
X501724Y495644D01*
X500840Y494321D01*
X500530Y492760D01*
X500840Y491199D01*
X501724Y489876D01*
X503047Y488992D01*
X504608Y488682D01*
X506169Y488992D01*
X507492Y489876D01*
X508376Y491199D01*
X508686Y492760D01*
X508376Y494321D01*
X507492Y495644D01*
X506647Y496208D01*
Y757255D01*
X519658Y770266D01*
X549841D01*
X549950Y769433D01*
X551059Y766757D01*
X552822Y764460D01*
X555120Y762696D01*
X557795Y761588D01*
X560667Y761210D01*
X563539Y761588D01*
X566214Y762696D01*
X568512Y764460D01*
X570275Y766757D01*
X571384Y769433D01*
X571762Y772305D01*
X571384Y775176D01*
X570275Y777852D01*
X568512Y780150D01*
X566214Y781913D01*
X563539Y783022D01*
X560667Y783400D01*
D02*
G37*
G36*
X586067D02*
X583195Y783022D01*
X580519Y781913D01*
X578222Y780150D01*
X576459Y777852D01*
X575350Y775176D01*
X574972Y772305D01*
X575350Y769433D01*
X576459Y766757D01*
X578222Y764460D01*
X580519Y762696D01*
X583195Y761588D01*
X586067Y761210D01*
X588938Y761588D01*
X591614Y762696D01*
X593912Y764460D01*
X595675Y766757D01*
X596784Y769433D01*
X597162Y772305D01*
X596784Y775176D01*
X595675Y777852D01*
X593912Y780150D01*
X591614Y781913D01*
X588938Y783022D01*
X586067Y783400D01*
D02*
G37*
G36*
X598607Y872635D02*
X587337D01*
Y861365D01*
X598607D01*
Y872635D01*
D02*
G37*
G36*
X348996Y1009650D02*
X344870D01*
X345047Y1008758D01*
X346272Y1006926D01*
X348105Y1005701D01*
X348996Y1005524D01*
Y1009650D01*
D02*
G37*
G36*
X355662D02*
X351536D01*
Y1005524D01*
X352428Y1005701D01*
X354260Y1006926D01*
X355485Y1008758D01*
X355662Y1009650D01*
D02*
G37*
G36*
X788670Y1014465D02*
X786420Y1014169D01*
X784323Y1013301D01*
X782522Y1011919D01*
X781140Y1010118D01*
X780272Y1008021D01*
X779976Y1005771D01*
X780272Y1003521D01*
X781140Y1001424D01*
X782522Y999623D01*
X784323Y998242D01*
X786420Y997373D01*
X788670Y997077D01*
X790920Y997373D01*
X793017Y998242D01*
X794818Y999623D01*
X796200Y1001424D01*
X797068Y1003521D01*
X797364Y1005771D01*
X797068Y1008021D01*
X796200Y1010118D01*
X794818Y1011919D01*
X793017Y1013301D01*
X790920Y1014169D01*
X788670Y1014465D01*
D02*
G37*
G36*
X530457Y1052642D02*
X500126D01*
X499361Y1052325D01*
X499044Y1051560D01*
Y1008954D01*
X366014D01*
X365249Y1008637D01*
X364932Y1007872D01*
Y990600D01*
X365249Y989835D01*
X366014Y989518D01*
X511302D01*
X512067Y989835D01*
X512384Y990600D01*
Y1042350D01*
X530457D01*
X531223Y1042667D01*
X531540Y1043432D01*
Y1051560D01*
X531223Y1052325D01*
X530457Y1052642D01*
D02*
G37*
G36*
X240284Y1002299D02*
X238723Y1001988D01*
X237400Y1001104D01*
X236516Y999781D01*
X236205Y998220D01*
X236516Y996660D01*
X237400Y995337D01*
X238723Y994452D01*
X240284Y994142D01*
X241844Y994452D01*
X243167Y995337D01*
X244052Y996660D01*
X244362Y998220D01*
X244052Y999781D01*
X243167Y1001104D01*
X241844Y1001988D01*
X240284Y1002299D01*
D02*
G37*
G36*
X256032Y1019062D02*
X254471Y1018752D01*
X253148Y1017868D01*
X252264Y1016545D01*
X251954Y1014984D01*
X252264Y1013423D01*
X253148Y1012100D01*
X254471Y1011216D01*
X256032Y1010906D01*
X257593Y1011216D01*
X258916Y1012100D01*
X259800Y1013423D01*
X260110Y1014984D01*
X259800Y1016545D01*
X258916Y1017868D01*
X257593Y1018752D01*
X256032Y1019062D01*
D02*
G37*
G36*
X348996Y1016316D02*
X348105Y1016139D01*
X346272Y1014914D01*
X345047Y1013082D01*
X344870Y1012190D01*
X348996D01*
Y1016316D01*
D02*
G37*
G36*
X277462Y1018808D02*
X275902Y1018498D01*
X274578Y1017614D01*
X273694Y1016291D01*
X273384Y1014730D01*
X273694Y1013169D01*
X274578Y1011846D01*
X275902Y1010962D01*
X277462Y1010652D01*
X279023Y1010962D01*
X280346Y1011846D01*
X281230Y1013169D01*
X281541Y1014730D01*
X281230Y1016291D01*
X280346Y1017614D01*
X279023Y1018498D01*
X277462Y1018808D01*
D02*
G37*
G36*
X288304Y1018609D02*
X286744Y1018299D01*
X285420Y1017415D01*
X284536Y1016092D01*
X284226Y1014531D01*
X284536Y1012971D01*
X285420Y1011647D01*
X286744Y1010763D01*
X288304Y1010453D01*
X289865Y1010763D01*
X291188Y1011647D01*
X292072Y1012971D01*
X292383Y1014531D01*
X292072Y1016092D01*
X291188Y1017415D01*
X289865Y1018299D01*
X288304Y1018609D01*
D02*
G37*
G36*
X266620Y1018808D02*
X265059Y1018498D01*
X263736Y1017614D01*
X262852Y1016291D01*
X262542Y1014730D01*
X262852Y1013169D01*
X263736Y1011846D01*
X265059Y1010962D01*
X266620Y1010652D01*
X268181Y1010962D01*
X269504Y1011846D01*
X270388Y1013169D01*
X270699Y1014730D01*
X270388Y1016291D01*
X269504Y1017614D01*
X268181Y1018498D01*
X266620Y1018808D01*
D02*
G37*
G36*
X584797Y886445D02*
X573527D01*
Y875175D01*
X584797D01*
Y886445D01*
D02*
G37*
G36*
X598607D02*
X587337D01*
Y875175D01*
X598607D01*
Y886445D01*
D02*
G37*
G36*
X571667Y884905D02*
X549667D01*
Y875944D01*
X502049D01*
X501269Y875789D01*
X500607Y875347D01*
X500607Y875347D01*
X481472Y856212D01*
X481030Y855550D01*
X480874Y854770D01*
Y629558D01*
X480030Y628994D01*
X479146Y627671D01*
X478835Y626110D01*
X479146Y624549D01*
X480030Y623226D01*
X481353Y622342D01*
X482914Y622032D01*
X484474Y622342D01*
X485798Y623226D01*
X486682Y624549D01*
X486992Y626110D01*
X486682Y627671D01*
X485798Y628994D01*
X484953Y629558D01*
Y853925D01*
X502894Y871866D01*
X549667D01*
Y862905D01*
X571667D01*
Y884905D01*
D02*
G37*
G36*
X139867Y884905D02*
X117867D01*
Y862905D01*
X139867D01*
Y884905D01*
D02*
G37*
G36*
X165267D02*
X143267D01*
Y862905D01*
X165267D01*
Y884905D01*
D02*
G37*
G36*
X944351Y909837D02*
X940826Y909372D01*
X937542Y908012D01*
X934722Y905848D01*
X932558Y903028D01*
X931198Y899744D01*
X930734Y896220D01*
X931198Y892696D01*
X932558Y889412D01*
X934722Y886592D01*
X937542Y884428D01*
X940826Y883067D01*
X944351Y882604D01*
X947875Y883067D01*
X951159Y884428D01*
X953979Y886592D01*
X956143Y889412D01*
X957503Y892696D01*
X957967Y896220D01*
X957503Y899744D01*
X956143Y903028D01*
X953979Y905848D01*
X951159Y908012D01*
X947875Y909372D01*
X944351Y909837D01*
D02*
G37*
G36*
X700786Y930670D02*
X699225Y930360D01*
X697902Y929476D01*
X697338Y928631D01*
X112522D01*
X111742Y928476D01*
X111592Y928376D01*
X89620D01*
X88937Y928241D01*
X88358Y927854D01*
X81184Y920679D01*
X81008Y920644D01*
X80346Y920202D01*
X79904Y919540D01*
X79749Y918760D01*
Y741236D01*
X78904Y740672D01*
X78020Y739349D01*
X77710Y737788D01*
X78020Y736227D01*
X78904Y734904D01*
X80227Y734020D01*
X81788Y733709D01*
X83349Y734020D01*
X84672Y734904D01*
X85556Y736227D01*
X85866Y737788D01*
X85556Y739349D01*
X84672Y740672D01*
X83827Y741236D01*
Y918276D01*
X90359Y924808D01*
X111592D01*
X111742Y924708D01*
X112522Y924553D01*
X697338D01*
X697902Y923708D01*
X699225Y922824D01*
X700786Y922514D01*
X702347Y922824D01*
X703670Y923708D01*
X704554Y925031D01*
X704864Y926592D01*
X704554Y928153D01*
X703670Y929476D01*
X702347Y930360D01*
X700786Y930670D01*
D02*
G37*
G36*
X93218Y1094806D02*
X5842D01*
X5077Y1094489D01*
X4760Y1093724D01*
Y947290D01*
X5077Y946525D01*
X5842Y946208D01*
X93218D01*
X93984Y946525D01*
X94301Y947290D01*
Y1093724D01*
X93984Y1094489D01*
X93218Y1094806D01*
D02*
G37*
G36*
X673354Y910096D02*
X671793Y909786D01*
X670470Y908902D01*
X669906Y908057D01*
X111252D01*
X110472Y907902D01*
X109810Y907460D01*
X96348Y893998D01*
X95906Y893336D01*
X95751Y892556D01*
Y717950D01*
X94906Y717386D01*
X94022Y716063D01*
X93712Y714502D01*
X94022Y712941D01*
X94906Y711618D01*
X96229Y710734D01*
X97790Y710424D01*
X99351Y710734D01*
X100674Y711618D01*
X101558Y712941D01*
X101868Y714502D01*
X101558Y716063D01*
X100674Y717386D01*
X99829Y717950D01*
Y891711D01*
X112097Y903979D01*
X669906D01*
X670470Y903134D01*
X671793Y902250D01*
X673354Y901940D01*
X674915Y902250D01*
X676238Y903134D01*
X677122Y904457D01*
X677432Y906018D01*
X677122Y907579D01*
X676238Y908902D01*
X674915Y909786D01*
X673354Y910096D01*
D02*
G37*
G36*
X688340Y920002D02*
X686779Y919692D01*
X685456Y918808D01*
X684892Y917963D01*
X103378D01*
X103378Y917963D01*
X102598Y917808D01*
X101936Y917366D01*
X101936Y917366D01*
X93706Y909136D01*
X92710Y909334D01*
X91149Y909024D01*
X89826Y908140D01*
X88942Y906817D01*
X88632Y905256D01*
X88942Y903695D01*
X89826Y902372D01*
X91149Y901488D01*
X92710Y901178D01*
X94271Y901488D01*
X95594Y902372D01*
X96478Y903695D01*
X96788Y905256D01*
X96590Y906252D01*
X104223Y913885D01*
X684892D01*
X685456Y913040D01*
X686779Y912156D01*
X688340Y911846D01*
X689901Y912156D01*
X691224Y913040D01*
X692108Y914363D01*
X692418Y915924D01*
X692108Y917485D01*
X691224Y918808D01*
X689901Y919692D01*
X688340Y920002D01*
D02*
G37*
%LPD*%
G36*
X530457Y1043432D02*
X511302D01*
Y990600D01*
X366014D01*
Y1007872D01*
X500126D01*
Y1051560D01*
X530457D01*
Y1043432D01*
D02*
G37*
D34*
X202293Y670705D02*
X237236Y635762D01*
X154267Y670705D02*
X202293D01*
X191522Y696105D02*
X240063Y647564D01*
X212453Y645305D02*
X230378Y627380D01*
X154267Y645305D02*
X212453D01*
X535638Y81074D02*
X545919Y70793D01*
X259080Y99822D02*
Y689102D01*
X386334Y99568D02*
Y758444D01*
X360680Y99822D02*
Y800966D01*
X335280Y99822D02*
Y717296D01*
X309880Y99822D02*
Y713994D01*
X284480Y99822D02*
Y713740D01*
X81788Y737788D02*
Y918760D01*
X97790Y714502D02*
Y892556D01*
X92710Y905256D02*
X103378Y915924D01*
X688340D01*
X105410Y776986D02*
X113538Y785114D01*
X141676D01*
X154267Y797705D01*
X141676Y734314D02*
X318262D01*
X335280Y717296D01*
X141676Y810514D02*
X395732D01*
X141422Y835660D02*
X430530D01*
X128867Y797705D02*
X141676Y810514D01*
X128867Y721505D02*
X141676Y734314D01*
X128867Y823105D02*
X141422Y835660D01*
X154267Y696105D02*
X191522D01*
X154267Y721505D02*
X181833D01*
X248780Y654558D01*
X251714D01*
X535638Y81074D02*
Y661368D01*
X544975Y670705D01*
X560667D01*
X526015Y485618D02*
Y703535D01*
X543985Y721505D01*
X560667D01*
X482914Y626110D02*
Y854770D01*
X502049Y873905D01*
X560667D01*
X494030Y784860D02*
X506875Y797705D01*
X560667D01*
X518813Y772305D02*
X560667D01*
X504608Y758100D02*
X518813Y772305D01*
X504608Y492760D02*
Y758100D01*
X515620Y510274D02*
Y734000D01*
X528525Y746905D01*
X560667D01*
X430530Y835660D02*
X436880Y829310D01*
Y99822D02*
Y829310D01*
X395732Y810514D02*
X411480Y794766D01*
Y99822D02*
Y794766D01*
X105410Y188918D02*
Y776986D01*
Y188918D02*
X119322Y175006D01*
X616294Y446024D02*
Y789776D01*
X97790Y892556D02*
X111252Y906018D01*
X673354D01*
X616294Y789776D02*
X616458Y789940D01*
X586067Y797705D02*
X608693D01*
X616458Y789940D01*
X112522Y926592D02*
X700786D01*
X494030Y600710D02*
Y784860D01*
D35*
X829056Y633476D02*
X848868D01*
X850964Y605790D02*
Y633476D01*
X829056Y605790D02*
X848868D01*
X829056D02*
Y633476D01*
X848868D02*
X870458D01*
X872871Y605790D02*
Y633476D01*
X848868Y605790D02*
X870458D01*
Y633476D02*
X893826D01*
X894779Y605790D02*
Y633476D01*
X870458Y605790D02*
X893826D01*
Y633476D02*
X916686D01*
Y605790D02*
Y633476D01*
X893826Y605790D02*
X916686D01*
X903226Y612140D02*
Y627375D01*
X910844Y619757D01*
X900687D01*
D38*
X561170Y313944D02*
Y644801D01*
X560667Y645305D02*
X561170Y644801D01*
X469900Y452374D02*
Y843680D01*
X81788Y918760D02*
X89620Y926592D01*
X112522D01*
X196939Y1052550D02*
X228204D01*
D39*
X878840Y58674D02*
Y210726D01*
X898359Y230245D01*
X923759D01*
X901192Y310822D02*
X912056Y321685D01*
X928839D01*
X901192Y277208D02*
Y310822D01*
Y277208D02*
X923759Y254640D01*
Y230245D02*
Y254640D01*
D41*
X49530Y1020507D02*
D03*
D53*
X898359Y230245D02*
D03*
Y204845D02*
D03*
Y179445D02*
D03*
Y154045D02*
D03*
Y128645D02*
D03*
X923759Y230245D02*
D03*
Y204845D02*
D03*
Y179445D02*
D03*
Y154045D02*
D03*
X928839Y321685D02*
D03*
Y347085D02*
D03*
Y372485D02*
D03*
Y397885D02*
D03*
X614783Y40463D02*
D03*
X589383D02*
D03*
X694529Y1125220D02*
D03*
X347872Y42665D02*
D03*
X322472D02*
D03*
X297072D02*
D03*
X271672D02*
D03*
X246272D02*
D03*
X373268D02*
D03*
X398668D02*
D03*
X424068D02*
D03*
X449468D02*
D03*
X947420Y1031171D02*
D03*
X745490Y41395D02*
D03*
X720090D02*
D03*
X720270Y1056386D02*
D03*
X763572Y1125220D02*
D03*
D54*
X923759Y128645D02*
D03*
X928839Y296285D02*
D03*
X720270Y1030986D02*
D03*
D55*
X640183Y40463D02*
D03*
X719929Y1125220D02*
D03*
X474868Y42665D02*
D03*
X770890Y41395D02*
D03*
X788972Y1125220D02*
D03*
D56*
X154267Y645305D02*
D03*
Y670705D02*
D03*
Y696105D02*
D03*
Y772305D02*
D03*
Y746905D02*
D03*
Y721505D02*
D03*
Y848505D02*
D03*
Y823105D02*
D03*
Y797705D02*
D03*
X128867D02*
D03*
Y823105D02*
D03*
Y848505D02*
D03*
Y721505D02*
D03*
Y746905D02*
D03*
Y772305D02*
D03*
Y696105D02*
D03*
Y670705D02*
D03*
Y645305D02*
D03*
X560667Y645305D02*
D03*
Y670705D02*
D03*
Y696105D02*
D03*
Y772305D02*
D03*
Y746905D02*
D03*
Y721505D02*
D03*
Y848505D02*
D03*
Y823105D02*
D03*
Y797705D02*
D03*
X586067D02*
D03*
Y823105D02*
D03*
Y848505D02*
D03*
Y721505D02*
D03*
Y746905D02*
D03*
Y772305D02*
D03*
Y696105D02*
D03*
Y670705D02*
D03*
Y645305D02*
D03*
D57*
X154267Y873905D02*
D03*
X128867D02*
D03*
X560667Y873905D02*
D03*
X586067D02*
D03*
D58*
X902420Y1031171D02*
D03*
D59*
X788670D02*
D03*
Y1056571D02*
D03*
Y1005771D02*
D03*
D60*
X944351Y896220D02*
D03*
Y846220D02*
D03*
D61*
X947049Y724970D02*
D03*
Y482970D02*
D03*
D62*
X49999Y50000D02*
D03*
Y1150000D02*
D03*
X949999Y50000D02*
D03*
Y1150000D02*
D03*
D63*
X237236Y635762D02*
D03*
X240063Y647564D02*
D03*
X21082Y983640D02*
D03*
X49149Y982878D02*
D03*
X77216Y983132D02*
D03*
Y958850D02*
D03*
X49149Y958596D02*
D03*
X21082Y959358D02*
D03*
Y1032205D02*
D03*
X49149Y1031443D02*
D03*
X77216Y1031697D02*
D03*
Y1007415D02*
D03*
X49149Y1007161D02*
D03*
X21082Y1007923D02*
D03*
X20828Y1056488D02*
D03*
X48895Y1055726D02*
D03*
X76962Y1055980D02*
D03*
X48895Y1080008D02*
D03*
X20828Y1080770D02*
D03*
X386334Y758444D02*
D03*
X545919Y70793D02*
D03*
X97790Y714502D02*
D03*
X81788Y737788D02*
D03*
X92710Y905256D02*
D03*
X688340Y915924D02*
D03*
X673354Y906018D02*
D03*
X259080Y689102D02*
D03*
X284480Y713740D02*
D03*
X309880Y713994D02*
D03*
X386334Y99568D02*
D03*
X360680Y800966D02*
D03*
X436880Y99822D02*
D03*
X411480D02*
D03*
X360680D02*
D03*
X259080D02*
D03*
X284480D02*
D03*
X309880D02*
D03*
X335280D02*
D03*
X350266Y1010920D02*
D03*
X470408Y1104392D02*
D03*
X470154Y1091438D02*
D03*
X456184Y1029462D02*
D03*
X473456D02*
D03*
X416941Y997966D02*
D03*
X371602D02*
D03*
X432054D02*
D03*
X401828D02*
D03*
X386715D02*
D03*
X503428Y1002672D02*
D03*
X526288Y1047618D02*
D03*
X182694Y1042162D02*
D03*
Y1035748D02*
D03*
Y1029334D02*
D03*
X190246Y1042162D02*
D03*
Y1035748D02*
D03*
Y1029334D02*
D03*
X199644Y1077468D02*
D03*
X208280Y1086612D02*
D03*
Y1077468D02*
D03*
X199644Y1086612D02*
D03*
X196939Y1052550D02*
D03*
X230378Y627380D02*
D03*
X251714Y654558D02*
D03*
X616294Y446024D02*
D03*
X504608Y492760D02*
D03*
X526015Y485618D02*
D03*
X515620Y510274D02*
D03*
X482914Y626110D02*
D03*
X35942Y446914D02*
D03*
X250952Y447294D02*
D03*
X651130Y684656D02*
D03*
X667130Y608964D02*
D03*
X781375Y373563D02*
D03*
X827157Y128645D02*
D03*
X589575Y95209D02*
D03*
X272017Y146287D02*
D03*
X297417Y145796D02*
D03*
X322817Y145525D02*
D03*
X348217Y144763D02*
D03*
X373617Y144747D02*
D03*
X399017Y144476D02*
D03*
X424417Y145051D02*
D03*
X449468Y144892D02*
D03*
X277462Y1014730D02*
D03*
X266620D02*
D03*
X288304Y1014531D02*
D03*
X256032Y1014984D02*
D03*
X240284Y998220D02*
D03*
X119322Y175006D02*
D03*
X878840Y58674D02*
D03*
X490728Y1020318D02*
D03*
Y1029208D02*
D03*
X169291Y532892D02*
D03*
X561170Y313944D02*
D03*
X469900Y843680D02*
D03*
Y452374D02*
D03*
X700786Y926592D02*
D03*
X494030Y600710D02*
D03*
X94996Y553212D02*
D03*
X228204Y1052550D02*
D03*
X76962Y1080262D02*
D03*
M02*
