G04 Layer_Color=8388736*
%FSLAX44Y44*%
%MOMM*%
G71*
G01*
G75*
%ADD58C,1.8000*%
%ADD76C,1.2000*%
%ADD77R,7.5000X2.8000*%
%ADD78R,1.0000X0.6500*%
%ADD79R,1.2500X0.8000*%
%ADD80R,1.6500X0.8000*%
%ADD81R,3.2000X3.8000*%
%ADD82R,3.2000X2.8000*%
%ADD83R,1.0000X1.0000*%
%ADD84R,1.9000X1.9000*%
%ADD85R,0.4500X1.0500*%
%ADD86R,1.0500X0.4500*%
%ADD87R,1.1000X0.4500*%
%ADD88R,0.4500X1.1000*%
%ADD89R,1.2000X1.7000*%
%ADD90R,1.0000X1.0000*%
%ADD91R,4.7000X2.0000*%
%ADD92R,2.3500X2.0000*%
%ADD93R,3.0000X2.6000*%
%ADD94R,1.4000X2.0000*%
%ADD95R,1.2500X1.5000*%
%ADD96R,2.4000X1.4000*%
%ADD97R,1.7000X1.2000*%
%ADD98R,4.0000X4.4000*%
%ADD99R,2.0000X1.4000*%
%ADD100R,8.9376X14.8434*%
%ADD101R,1.8000X1.8000*%
%ADD102R,1.8000X1.8000*%
%ADD103C,2.2000*%
%ADD104R,2.2000X2.2000*%
%ADD105C,2.0000*%
%ADD106C,1.7240*%
%ADD107C,2.7000*%
%ADD108C,1.7000*%
%ADD109C,7.2000*%
%ADD110C,0.8000*%
D58*
X898359Y230245D02*
D03*
Y204845D02*
D03*
Y179445D02*
D03*
Y154045D02*
D03*
Y128645D02*
D03*
X923759Y230245D02*
D03*
Y204845D02*
D03*
Y179445D02*
D03*
Y154045D02*
D03*
X928839Y321685D02*
D03*
Y347085D02*
D03*
Y372485D02*
D03*
Y397885D02*
D03*
X614783Y40463D02*
D03*
X589383D02*
D03*
X694529Y1125220D02*
D03*
X347872Y42665D02*
D03*
X322472D02*
D03*
X297072D02*
D03*
X271672D02*
D03*
X246272D02*
D03*
X373268D02*
D03*
X398668D02*
D03*
X424068D02*
D03*
X449468D02*
D03*
X947420Y1031171D02*
D03*
X745490Y41395D02*
D03*
X720090D02*
D03*
X720270Y1056386D02*
D03*
X763572Y1125220D02*
D03*
D76*
X847194Y874268D02*
D03*
X288798Y1136904D02*
D03*
X795666Y1162050D02*
D03*
X401828Y1135888D02*
D03*
D77*
X402336Y1019170D02*
D03*
Y1066170D02*
D03*
D78*
X626403Y77293D02*
D03*
Y83793D02*
D03*
Y70793D02*
D03*
X604903D02*
D03*
Y83793D02*
D03*
Y77293D02*
D03*
D79*
X513707Y1012172D02*
D03*
Y1002672D02*
D03*
Y993172D02*
D03*
X537207D02*
D03*
Y1002672D02*
D03*
Y1012172D02*
D03*
D80*
X122969Y421780D02*
D03*
Y434480D02*
D03*
Y447180D02*
D03*
Y459880D02*
D03*
X68469Y421780D02*
D03*
Y434480D02*
D03*
Y447180D02*
D03*
Y459880D02*
D03*
X177689D02*
D03*
Y447180D02*
D03*
Y434480D02*
D03*
Y421780D02*
D03*
X232189Y459880D02*
D03*
Y447180D02*
D03*
Y434480D02*
D03*
Y421780D02*
D03*
D81*
X53396Y273190D02*
D03*
D82*
X267396D02*
D03*
D83*
X972794Y790459D02*
D03*
X956794D02*
D03*
X937448Y790109D02*
D03*
X921448D02*
D03*
X798009Y71226D02*
D03*
X782009D02*
D03*
X745618D02*
D03*
X761618D02*
D03*
X651130Y597720D02*
D03*
X667130D02*
D03*
X589575Y83630D02*
D03*
X573575D02*
D03*
X659510Y73660D02*
D03*
X643510D02*
D03*
X300587Y998210D02*
D03*
X284587D02*
D03*
X683706Y1092947D02*
D03*
X699706D02*
D03*
X651130Y672720D02*
D03*
X667130D02*
D03*
X838289Y128645D02*
D03*
X854289D02*
D03*
X966598D02*
D03*
X982598D02*
D03*
X966598Y154178D02*
D03*
X982598D02*
D03*
X966598Y179324D02*
D03*
X982598D02*
D03*
X966598Y204470D02*
D03*
X982598D02*
D03*
X854289Y154045D02*
D03*
X838289D02*
D03*
X854289Y179446D02*
D03*
X838289D02*
D03*
X667130Y647720D02*
D03*
X651130D02*
D03*
X667130Y572770D02*
D03*
X651130D02*
D03*
X667130Y523240D02*
D03*
X651130D02*
D03*
X157860Y532892D02*
D03*
X141860D02*
D03*
X112905Y553213D02*
D03*
X128905D02*
D03*
X253091Y998220D02*
D03*
X269091D02*
D03*
X270890Y1089758D02*
D03*
X254890D02*
D03*
X733996Y1093298D02*
D03*
X717996D02*
D03*
X590676Y1018540D02*
D03*
X574676D02*
D03*
X921068Y439928D02*
D03*
X937068D02*
D03*
X981074Y439674D02*
D03*
X965074D02*
D03*
D84*
X204188Y1082180D02*
D03*
D85*
X211688Y1067680D02*
D03*
X206688D02*
D03*
X201688D02*
D03*
X196688D02*
D03*
Y1096680D02*
D03*
X201688D02*
D03*
X206688D02*
D03*
X211688D02*
D03*
D86*
X189688Y1074680D02*
D03*
Y1079680D02*
D03*
Y1084680D02*
D03*
Y1089680D02*
D03*
X218688D02*
D03*
Y1084680D02*
D03*
Y1079680D02*
D03*
Y1074680D02*
D03*
D87*
X813199Y367245D02*
D03*
Y362245D02*
D03*
Y357245D02*
D03*
Y352245D02*
D03*
Y347245D02*
D03*
X836199D02*
D03*
Y352245D02*
D03*
Y357245D02*
D03*
Y362245D02*
D03*
Y367245D02*
D03*
D88*
X822199Y343245D02*
D03*
X827199D02*
D03*
Y371245D02*
D03*
X822199D02*
D03*
D89*
X824699Y357245D02*
D03*
D90*
X607531Y264794D02*
D03*
Y248794D02*
D03*
X490728Y1010538D02*
D03*
Y994538D02*
D03*
X250952Y475970D02*
D03*
Y459970D02*
D03*
X48260Y446914D02*
D03*
Y462914D02*
D03*
X793750Y389563D02*
D03*
Y373563D02*
D03*
X853099Y339470D02*
D03*
Y323470D02*
D03*
X172438Y1105930D02*
D03*
Y1121930D02*
D03*
X537207Y1047622D02*
D03*
Y1031622D02*
D03*
X142240Y1096874D02*
D03*
Y1080874D02*
D03*
X299720Y1014858D02*
D03*
Y1030858D02*
D03*
X512572Y958216D02*
D03*
Y974216D02*
D03*
X370840Y1118488D02*
D03*
Y1102488D02*
D03*
X449468Y115945D02*
D03*
Y131945D02*
D03*
X348217Y115945D02*
D03*
Y131945D02*
D03*
X424417Y115945D02*
D03*
Y131945D02*
D03*
X322817Y115945D02*
D03*
Y131945D02*
D03*
X399017Y115945D02*
D03*
Y131945D02*
D03*
X297417Y115945D02*
D03*
Y131945D02*
D03*
X373617Y115945D02*
D03*
Y131945D02*
D03*
X272017Y115945D02*
D03*
Y131945D02*
D03*
X350266Y1023124D02*
D03*
Y1039124D02*
D03*
X449467Y80385D02*
D03*
Y96385D02*
D03*
X347867Y80385D02*
D03*
Y96385D02*
D03*
X424067Y80385D02*
D03*
Y96385D02*
D03*
X322467Y80385D02*
D03*
Y96385D02*
D03*
X398667Y95884D02*
D03*
Y79884D02*
D03*
X297067Y80385D02*
D03*
Y96385D02*
D03*
X373267Y80385D02*
D03*
Y96385D02*
D03*
X271667Y80385D02*
D03*
Y96385D02*
D03*
X350108Y1055001D02*
D03*
Y1071001D02*
D03*
X590550Y1032384D02*
D03*
Y1048384D02*
D03*
X574710Y1032384D02*
D03*
Y1048384D02*
D03*
X561520Y264823D02*
D03*
Y248824D02*
D03*
X607531Y299179D02*
D03*
Y283179D02*
D03*
X561170Y299179D02*
D03*
Y283179D02*
D03*
D91*
X266700Y1035469D02*
D03*
Y1068469D02*
D03*
D92*
X720270Y956892D02*
D03*
Y997892D02*
D03*
D93*
X947420Y974171D02*
D03*
X886420D02*
D03*
Y1088171D02*
D03*
X947420D02*
D03*
D94*
X430230Y1098804D02*
D03*
X456230D02*
D03*
D95*
X204188Y1035469D02*
D03*
X227688D02*
D03*
D96*
X914049Y747970D02*
D03*
X926049Y467970D02*
D03*
D97*
X704049Y506470D02*
D03*
Y631220D02*
D03*
Y647720D02*
D03*
Y614720D02*
D03*
Y697720D02*
D03*
Y672720D02*
D03*
Y523470D02*
D03*
Y547720D02*
D03*
Y472970D02*
D03*
Y597720D02*
D03*
Y572720D02*
D03*
D98*
X783994Y929386D02*
D03*
X847194D02*
D03*
D99*
X166370Y1065830D02*
D03*
Y1039830D02*
D03*
X464566Y989672D02*
D03*
Y1015672D02*
D03*
D100*
X49530Y1020507D02*
D03*
D101*
X923759Y128645D02*
D03*
X928839Y296285D02*
D03*
X720270Y1030986D02*
D03*
D102*
X640183Y40463D02*
D03*
X719929Y1125220D02*
D03*
X474868Y42665D02*
D03*
X770890Y41395D02*
D03*
X788972Y1125220D02*
D03*
D103*
X154267Y645305D02*
D03*
Y670705D02*
D03*
Y696105D02*
D03*
Y772305D02*
D03*
Y746905D02*
D03*
Y721505D02*
D03*
Y848505D02*
D03*
Y823105D02*
D03*
Y797705D02*
D03*
X128867D02*
D03*
Y823105D02*
D03*
Y848505D02*
D03*
Y721505D02*
D03*
Y746905D02*
D03*
Y772305D02*
D03*
Y696105D02*
D03*
Y670705D02*
D03*
Y645305D02*
D03*
X560667Y645305D02*
D03*
Y670705D02*
D03*
Y696105D02*
D03*
Y772305D02*
D03*
Y746905D02*
D03*
Y721505D02*
D03*
Y848505D02*
D03*
Y823105D02*
D03*
Y797705D02*
D03*
X586067D02*
D03*
Y823105D02*
D03*
Y848505D02*
D03*
Y721505D02*
D03*
Y746905D02*
D03*
Y772305D02*
D03*
Y696105D02*
D03*
Y670705D02*
D03*
Y645305D02*
D03*
D104*
X154267Y873905D02*
D03*
X128867D02*
D03*
X560667Y873905D02*
D03*
X586067D02*
D03*
D105*
X902420Y1031171D02*
D03*
D106*
X788670D02*
D03*
Y1056571D02*
D03*
Y1005771D02*
D03*
D107*
X944351Y896220D02*
D03*
Y846220D02*
D03*
D108*
X947049Y724970D02*
D03*
Y482970D02*
D03*
D109*
X49999Y50000D02*
D03*
Y1150000D02*
D03*
X949999Y50000D02*
D03*
Y1150000D02*
D03*
D110*
X21082Y983640D02*
D03*
X49149Y982878D02*
D03*
X77216Y983132D02*
D03*
Y958850D02*
D03*
X49149Y958596D02*
D03*
X21082Y959358D02*
D03*
Y1032205D02*
D03*
X49149Y1031443D02*
D03*
X77216Y1031697D02*
D03*
Y1007415D02*
D03*
X49149Y1007161D02*
D03*
X21082Y1007923D02*
D03*
X20828Y1056488D02*
D03*
X48895Y1055726D02*
D03*
X76962Y1055980D02*
D03*
X48895Y1080008D02*
D03*
X20828Y1080770D02*
D03*
X199644Y1077468D02*
D03*
X208280Y1086612D02*
D03*
Y1077468D02*
D03*
X199644Y1086612D02*
D03*
X76962Y1080262D02*
D03*
M02*
