G04 Layer_Color=16711935*
%FSLAX44Y44*%
%MOMM*%
G71*
G01*
G75*
%ADD74C,0.1000*%
D74*
X999999Y50000D02*
Y1150000D01*
X999491Y1157115D02*
X999999Y1150000D01*
X997974Y1164087D02*
X999491Y1157115D01*
X995481Y1170770D02*
X997974Y1164087D01*
X992062Y1177032D02*
X995481Y1170770D01*
X987787Y1182743D02*
X992062Y1177032D01*
X982743Y1187787D02*
X987787Y1182743D01*
X977032Y1192062D02*
X982743Y1187787D01*
X970770Y1195481D02*
X977032Y1192062D01*
X964086Y1197974D02*
X970770Y1195481D01*
X957115Y1199491D02*
X964086Y1197974D01*
X949999Y1200000D02*
X957115Y1199491D01*
X49999Y1200000D02*
X949999D01*
X42884Y1199491D02*
X49999Y1200000D01*
X35913Y1197974D02*
X42884Y1199491D01*
X29229Y1195481D02*
X35913Y1197974D01*
X22968Y1192062D02*
X29229Y1195481D01*
X17256Y1187787D02*
X22968Y1192062D01*
X12212Y1182743D02*
X17256Y1187787D01*
X7937Y1177032D02*
X12212Y1182743D01*
X4518Y1170770D02*
X7937Y1177032D01*
X2025Y1164087D02*
X4518Y1170770D01*
X508Y1157115D02*
X2025Y1164087D01*
X-0Y1150000D02*
X508Y1157115D01*
X-0Y50000D02*
Y1150000D01*
Y50000D02*
X508Y42884D01*
X2025Y35913D01*
X4518Y29229D01*
X7937Y22968D01*
X12212Y17257D01*
X17256Y12212D01*
X22968Y7937D01*
X29229Y4518D01*
X35913Y2025D01*
X42884Y509D01*
X49999Y-0D01*
X949999D01*
X957115Y509D01*
X964086Y2025D01*
X970770Y4518D01*
X977032Y7937D01*
X982743Y12212D01*
X987787Y17257D01*
X992062Y22968D01*
X995481Y29229D01*
X997974Y35913D01*
X999491Y42884D01*
X999999Y50000D01*
M02*
