M48
;Layer_Color=9474304
;FILE_FORMAT=4:4
METRIC,LZ
;TYPE=PLATED
T1F00S00C0.3000
T2F00S00C0.8000
T3F00S00C1.0000
T4F00S00C1.1500
T5F00S00C1.5000
T6F00S00C1.6000
T7F00S00C1.8000
T8F00S00C3.3000
%
T01
X00589575Y00095209
X0087884Y00058674
X00545919Y00070793
X00119322Y00175006
X00035942Y00446914
X00250952Y00447294
X004699Y00452374
X00504608Y0049276
X00526015Y00485618
X00449468Y00144892
X00424417Y00145051
X00399017Y00144476
X00373617Y00144747
X00348217Y00144763
X00322817Y00145525
X00297417Y00145796
X00272017Y00146287
X0028448Y00099822
X0025908
X0030988
X0033528
X0036068
X00386334Y00099568
X0041148Y00099822
X0043688
X0056117Y00313944
X00616294Y00446024
X00781375Y00373563
X00827157Y00128645
X0066713Y00608964
X0065113Y00684656
X00482914Y0062611
X0049403Y0060071
X0051562Y00510274
X00169291Y00532892
X00230378Y0062738
X00237236Y00635762
X00240063Y00647564
X00251714Y00654558
X0025908Y00689102
X0028448Y0071374
X0030988Y00713994
X00386334Y00758444
X0036068Y00800966
X004699Y0084368
X00081788Y00737788
X0009779Y00714502
X00094996Y00553212
X0009271Y00905256
X00077216Y0095885
Y00983132
Y01007415
Y01031697
X00076962Y0105598
Y01080262
X00048895Y01080008
Y01055726
X00049149Y01031443
Y01007161
Y00982878
Y00958596
X00021082Y00959358
Y0098364
Y01007923
Y01032205
X00020828Y01056488
Y0108077
X00199644Y01077468
X0020828
Y01086612
X00199644
X00196939Y0105255
X00190246Y01042162
Y01035748
Y01029334
X00182694
Y01035748
Y01042162
X00228204Y0105255
X00256032Y01014984
X0026662Y0101473
X00277462
X00288304Y01014531
X00240284Y0099822
X00350266Y0101092
X00371602Y00997966
X00386715
X00401828
X00416941
X00432054
X00456184Y01029462
X00473456
X00490728Y01029208
Y01020318
X00503428Y01002672
X00526288Y01047618
X00470154Y01091438
X00470408Y01104392
X00673354Y00906018
X0068834Y00915924
X00700786Y00926592
T02
X0078867Y01005771
Y01031171
Y01056571
T03
X00589383Y00040463
X00614783
X00640183
X0072009Y00041395
X0074549
X0077089
X00474868Y00042665
X00449468
X00424068
X00398668
X00373268
X00347872
X00322472
X00297072
X00271672
X00246272
X00898359Y00128645
Y00154045
Y00179445
Y00204845
Y00230245
X00923759
Y00204845
Y00179445
Y00154045
Y00128645
X00928839Y00296285
Y00321685
Y00347085
Y00372485
Y00397885
X0072027Y01030986
Y01056386
X00719929Y0112522
X00694529
X00763572
X00788972
T04
X00560667Y00645305
Y00670705
Y00696105
Y00721505
Y00746905
Y00772305
Y00797705
Y00823105
Y00848505
Y00873905
X00586067
Y00848505
Y00823105
Y00797705
Y00772305
Y00746905
Y00721505
Y00696105
Y00670705
Y00645305
X00154267Y00645305
Y00670705
Y00696105
Y00721505
Y00746905
Y00772305
Y00797705
Y00823105
Y00848505
Y00873905
X00128867
Y00848505
Y00823105
Y00797705
Y00772305
Y00746905
Y00721505
Y00696105
Y00670705
Y00645305
T05
X00947049Y0048297
Y0072497
T06
X00944351Y0084622
Y0089622
X0094742Y01031171
T07
X0090242Y01031171
T08
X00949999Y0005
X00049999
Y0115
X00949999
M30
